<?xml version="1.0" standalone="no"?>
<!DOCTYPE svg PUBLIC "-//W3C//DTD SVG 1.1//EN" "http://www.w3.org/Graphics/SVG/1.1/DTD/svg11.dtd" >
<svg xmlns="http://www.w3.org/2000/svg" xmlns:xlink="http://www.w3.org/1999/xlink" version="1.1">
<metadata>
Created by FontForge 20170731 at Fri Aug 25 23:43:09 2017
 By Aleksey,,,
Copyright (c) 2017 by Josh Finklea. All rights reserved.
</metadata>
<defs>
<font id="CentraNo2-Book" horiz-adv-x="600" >
  <font-face 
    font-family="Centra No2"
    font-weight="400"
    font-stretch="normal"
    units-per-em="1000"
    panose-1="0 0 0 0 0 0 0 0 0 0"
    ascent="700"
    descent="-300"
    x-height="486"
    cap-height="700"
    bbox="-203 -229 1162 926"
    underline-thickness="50"
    underline-position="-200"
    unicode-range="U+0020-FB02"
  />
<missing-glyph horiz-adv-x="840" 
d="M70 0v700h700v-700h-700zM140 630v-560h560v560h-560zM420 301l-187 -188l-50 50l188 187l-188 187l50 50l187 -188l187 188l50 -50l-188 -187l188 -187l-50 -50z" />
    <glyph glyph-name=".notdef" horiz-adv-x="840" 
d="M70 0v700h700v-700h-700zM140 630v-560h560v560h-560zM420 301l-187 -188l-50 50l188 187l-188 187l50 50l187 -188l187 188l50 -50l-188 -187l188 -187l-50 -50z" />
    <glyph glyph-name=".null" horiz-adv-x="0" 
 />
    <glyph glyph-name="nonmarkingreturn" horiz-adv-x="333" 
 />
    <glyph glyph-name="space" unicode=" " horiz-adv-x="245" 
 />
    <glyph glyph-name="exclam" unicode="!" horiz-adv-x="262" 
d="M84 700h94l-8 -503h-78zM192 52q0 -25 -17.5 -43t-43.5 -18q-25 0 -43 17.5t-18 43.5q0 25 17.5 42.5t43.5 17.5t43.5 -17.5t17.5 -42.5z" />
    <glyph glyph-name="quotedbl" unicode="&#x22;" horiz-adv-x="341" 
d="M127 424h-70l-12 276h94zM284 424h-70l-12 276h94z" />
    <glyph glyph-name="numbersign" unicode="#" horiz-adv-x="653" 
d="M537 687l-26 -186h104v-67h-114l-25 -176h108v-67h-117l-27 -191h-76l27 191h-172l-27 -191h-76l27 191h-105v67h114l25 176h-108v67h118l26 186h76l-26 -186h172l26 186h76zM253 434l-25 -176h172l25 176h-172z" />
    <glyph glyph-name="dollar" unicode="$" horiz-adv-x="522" 
d="M232 776h67v-92q117 -22 162 -146l-77 -32q-27 74 -85 94v-209l29 -11q152 -58 152 -184q0 -80 -51 -132.5t-130 -61.5v-98h-67v99q-72 9 -122.5 53.5t-71.5 116.5l80 26q31 -93 114 -114v240l-15 6q-151 57 -151 179q0 73 46.5 120t119.5 55v91zM394 190q0 73 -95 110
v-217q42 8 68.5 36t26.5 71zM151 514q0 -61 81 -97v187q-37 -7 -59 -31t-22 -59z" />
    <glyph glyph-name="percent" unicode="%" horiz-adv-x="811" 
d="M710 687l-507 -687h-101l507 687h101zM443 152q0 67 47.5 113t116.5 46t116.5 -46t47.5 -113t-47.5 -113t-116.5 -46t-116.5 46t-47.5 113zM40 535q0 67 47.5 113t116.5 46t116.5 -46t47.5 -113t-47.5 -113t-116.5 -46t-116.5 46t-47.5 113zM121 535q0 -36 24 -60t59 -24
t59 24t24 60t-24 60t-59 24t-59 -24t-24 -60zM524 152q0 -36 24 -60t59 -24t59 24t24 60t-24 60t-59 24t-59 -24t-24 -60z" />
    <glyph glyph-name="ampersand" unicode="&#x26;" horiz-adv-x="708" 
d="M703 0h-123l-108 107q-102 -118 -240 -118q-84 0 -138 50.5t-54 129.5q0 63 35 114.5t112 102.5q-80 81 -80 161q0 70 49.5 117.5t122.5 47.5q71 0 119.5 -45t48.5 -112q0 -52 -28.5 -94t-96.5 -89l143 -141l116 138l66 -51l-120 -145zM243 71q84 0 163 91l3 3l-164 163
q-116 -71 -116 -153q0 -44 33 -74t81 -30zM194 549q0 -51 69 -120q99 65 99 124q0 33 -25 57.5t-60 24.5q-34 0 -58.5 -25.5t-24.5 -60.5z" />
    <glyph glyph-name="quotesingle" unicode="'" horiz-adv-x="184" 
d="M127 424h-70l-12 276h94z" />
    <glyph glyph-name="parenleft" unicode="(" horiz-adv-x="317" 
d="M55 294q0 130 43 249t121 210h88q-166 -205 -166 -459q0 -252 166 -459h-88q-78 92 -121 210.5t-43 248.5z" />
    <glyph glyph-name="parenright" unicode=")" horiz-adv-x="317" 
d="M262 294q0 -130 -43 -249t-121 -210h-88q166 205 166 459q0 252 -166 459h88q78 -92 121 -210.5t43 -248.5z" />
    <glyph glyph-name="asterisk" unicode="*" horiz-adv-x="421" 
d="M80 420l73 100l-118 38l21 69l118 -39v124h73v-124l118 39l21 -69l-118 -38l73 -100l-59 -44l-72 100l-71 -100z" />
    <glyph glyph-name="plus" unicode="+" 
d="M74 297v73h190v192h72v-192h190v-73h-190v-194h-72v194h-190z" />
    <glyph glyph-name="comma" unicode="," horiz-adv-x="253" 
d="M128 -99h-58l47 99h-2q-20 0 -35 15.5t-15 37.5q0 25 18 42t44 17q25 0 43 -17t18 -42q0 -21 -16 -57z" />
    <glyph glyph-name="hyphen" unicode="-" horiz-adv-x="424" 
d="M60 224v78h304v-78h-304z" />
    <glyph glyph-name="period" unicode="." horiz-adv-x="252" 
d="M187 52q0 -26 -17.5 -43.5t-43.5 -17.5t-43.5 17.5t-17.5 43.5q0 25 18 42.5t43 17.5t43 -17.5t18 -42.5z" />
    <glyph glyph-name="slash" unicode="/" horiz-adv-x="449" 
d="M444 765l-368 -865h-86l368 865h86z" />
    <glyph glyph-name="zero" unicode="0" horiz-adv-x="666" 
d="M333 -11q-90 0 -154 51t-93.5 129t-29.5 174t29.5 174.5t93.5 129.5t154 51t154 -51t93.5 -129.5t29.5 -174.5t-29.5 -174t-93.5 -129t-154 -51zM333 72q92 0 140 78.5t48 192.5t-48 193t-140 79t-140 -79t-48 -193t48 -192.5t140 -78.5z" />
    <glyph glyph-name="one" unicode="1" horiz-adv-x="341" 
d="M250 0h-88v603h-124v84h212v-687z" />
    <glyph glyph-name="two" unicode="2" horiz-adv-x="544" 
d="M271 698q96 0 159 -59t63 -150q0 -59 -29.5 -111t-95.5 -115l-194 -181h328v-82h-458v72l274 257q86 82 86 156q0 55 -38.5 92.5t-94.5 37.5q-60 0 -97.5 -44.5t-38.5 -108.5h-86q0 104 61.5 170t160.5 66z" />
    <glyph glyph-name="three" unicode="3" horiz-adv-x="556" 
d="M279 400q47 0 84 32.5t37 75.5q0 46 -35 77t-87 31q-55 0 -90.5 -36.5t-37.5 -93.5h-86q1 95 61.5 153.5t154.5 58.5q90 0 148.5 -52t58.5 -130q0 -49 -25 -88.5t-71 -61.5q57 -19 91 -65t34 -104q0 -91 -66.5 -149.5t-167.5 -58.5q-105 0 -169 62t-66 163h87
q5 -63 45 -102.5t103 -39.5q62 0 103.5 35t41.5 91q0 54 -42.5 89t-105.5 35h-38v78h38z" />
    <glyph glyph-name="four" unicode="4" horiz-adv-x="591" 
d="M26 161v67l341 458h100v-447h96v-78h-96v-161h-87v161h-354zM130 239h250v334z" />
    <glyph glyph-name="five" unicode="5" horiz-adv-x="565" 
d="M140 306l-78 17l49 364h368v-81h-298l-28 -203q60 58 152 58q96 0 159.5 -66.5t63.5 -162.5q0 -103 -70 -173t-173 -70q-104 0 -171.5 60.5t-68.5 154.5h89q1 -54 44 -93t106 -39q65 0 110 45.5t45 110.5q0 66 -45.5 110t-111.5 44q-44 0 -82 -21t-60 -55z" />
    <glyph glyph-name="six" unicode="6" horiz-adv-x="585" 
d="M544 232q0 -102 -72 -172.5t-176 -70.5q-107 0 -178 70t-71 174q0 90 77 206l164 248h106l-169 -247q36 25 87 25q99 0 165.5 -67.5t66.5 -165.5zM455 228q0 67 -46 112t-113 45q-68 0 -114 -44.5t-46 -111.5q0 -66 46 -111.5t113 -45.5t113.5 45.5t46.5 110.5z" />
    <glyph glyph-name="seven" unicode="7" horiz-adv-x="510" 
d="M480 619l-287 -619h-97l281 604h-342v82h445v-67z" />
    <glyph glyph-name="eight" unicode="8" horiz-adv-x="554" 
d="M277 698q87 0 148.5 -50.5t61.5 -130.5q0 -53 -28.5 -93t-70.5 -55q50 -18 88 -62.5t38 -111.5q0 -92 -70 -149t-167 -57t-167 57t-70 149q0 67 38 111.5t88 62.5q-42 15 -70.5 55t-28.5 93q0 80 61.5 130.5t148.5 50.5zM426 199q0 56 -43 91.5t-106 35.5t-106 -35.5
t-43 -91.5t43.5 -92t105.5 -36t105.5 36t43.5 92zM277 617q-51 0 -87.5 -29.5t-36.5 -76.5t36.5 -76.5t87.5 -29.5t87.5 29.5t36.5 76.5t-36.5 76.5t-87.5 29.5z" />
    <glyph glyph-name="nine" unicode="9" horiz-adv-x="585" 
d="M41 455q0 102 72 172.5t176 70.5q107 0 178 -70t71 -174q0 -90 -77 -206l-164 -248h-106l164 243q-33 -20 -82 -20q-99 0 -165.5 67.5t-66.5 164.5zM130 459q0 -67 46 -112t113 -45q68 0 114 44.5t46 111.5q0 66 -46 111.5t-113 45.5t-113.5 -45.5t-46.5 -110.5z" />
    <glyph glyph-name="colon" unicode=":" horiz-adv-x="252" 
d="M187 414q0 -26 -17.5 -43.5t-43.5 -17.5t-43.5 17.5t-17.5 43.5q0 25 18 42.5t43 17.5t43 -17.5t18 -42.5zM187 52q0 -26 -17.5 -43.5t-43.5 -17.5t-43.5 17.5t-17.5 43.5q0 25 18 42.5t43 17.5t43 -17.5t18 -42.5z" />
    <glyph glyph-name="semicolon" unicode=";" horiz-adv-x="253" 
d="M128 -99h-58l47 99h-2q-20 0 -35 15.5t-15 37.5q0 25 18 42t44 17q25 0 43 -17t18 -42q0 -21 -16 -57zM188 414q0 -26 -18 -43.5t-43 -17.5t-43 17.5t-18 43.5q0 25 18 42.5t43 17.5t43 -17.5t18 -42.5z" />
    <glyph glyph-name="less" unicode="&#x3c;" 
d="M88 294v78l423 205v-85l-330 -158l330 -158v-87z" />
    <glyph glyph-name="equal" unicode="=" 
d="M74 201v71h452v-71h-452zM74 395v71h452v-71h-452z" />
    <glyph glyph-name="greater" unicode="&#x3e;" 
d="M512 372v-78l-423 -205v85l331 158l-331 158v87z" />
    <glyph glyph-name="question" unicode="?" horiz-adv-x="525" 
d="M485 517q0 -92 -91 -174l-14 -13q-15 -12 -18 -15l-14.5 -14.5t-15.5 -18t-10.5 -17t-9 -20.5t-2.5 -20v-28h-89v35q0 74 95 151q80 65 80 129q0 49 -36.5 82.5t-90.5 33.5q-56 0 -93.5 -38.5t-38.5 -96.5h-87q0 95 62.5 157t157.5 62q92 0 153.5 -56t61.5 -139zM331 52
q0 -25 -17.5 -43t-43.5 -18t-43.5 17.5t-17.5 43.5q0 25 17.5 42.5t43.5 17.5t43.5 -17.5t17.5 -42.5z" />
    <glyph glyph-name="at" unicode="@" horiz-adv-x="866" 
d="M754 310q0 118 -85 195t-207 77q-141 0 -240.5 -93t-99.5 -236q0 -147 93 -233t228 -86q137 0 235 68l33 -58q-47 -35 -120 -56.5t-148 -21.5q-167 0 -282 104.5t-115 281.5q0 173 122.5 285.5t297.5 112.5q150 0 256 -96t106 -236q0 -112 -53.5 -181.5t-124.5 -69.5
q-45 -1 -68.5 20.5t-27.5 48.5q-48 -70 -143 -70q-72 0 -119 51.5t-47 131.5q0 84 55 143t132 59q100 0 136 -68l7 58h68l-29 -244q-7 -67 42 -67q38 0 68 52t30 128zM424 130q50 0 88 40.5t38 97.5q0 50 -30 84t-80 34t-86.5 -40t-36.5 -97q0 -52 30.5 -85.5t76.5 -33.5z
" />
    <glyph glyph-name="A" unicode="A" horiz-adv-x="671" 
d="M301 700h70l288 -700h-94l-82 203h-297l-82 -203h-92zM334 575l-116 -291h233z" />
    <glyph glyph-name="B" unicode="B" horiz-adv-x="612" 
d="M90 0v700h218q98 0 158 -50t60 -135q0 -103 -84 -143q61 -20 93.5 -65t32.5 -108q0 -93 -64.5 -146t-174.5 -53h-239zM179 79h149q69 0 109.5 32.5t40.5 90.5q0 56 -41.5 89t-110.5 33h-147v-245zM179 401h128q59 0 95 29.5t36 80.5q0 52 -36 81t-96 29h-127v-220z" />
    <glyph glyph-name="C" unicode="C" horiz-adv-x="661" 
d="M52 350q0 152 103.5 257t254.5 105q110 0 205 -63v-99q-101 76 -207 76q-111 0 -187.5 -80t-76.5 -196q0 -115 76.5 -195t187.5 -80q106 0 209 74v-99q-98 -61 -208 -61q-150 0 -253.5 104.5t-103.5 256.5z" />
    <glyph glyph-name="D" unicode="D" horiz-adv-x="711" 
d="M659 350q0 -149 -101 -249.5t-247 -100.5h-221v700h221q146 0 247 -100.5t101 -249.5zM567 350q0 113 -73.5 190t-184.5 77h-130v-534h130q111 0 184.5 77t73.5 190z" />
    <glyph glyph-name="E" unicode="E" horiz-adv-x="536" 
d="M90 0v700h389v-82h-300v-214h279v-81h-279v-241h302v-82h-391z" />
    <glyph glyph-name="F" unicode="F" horiz-adv-x="516" 
d="M179 323v-323h-89v700h381v-82h-292v-214h276v-81h-276z" />
    <glyph glyph-name="G" unicode="G" horiz-adv-x="789" 
d="M707 536l-79 -41q-32 63 -89.5 97.5t-130.5 34.5q-111 0 -188 -81t-77 -196q0 -114 77 -195t189 -81q96 0 161 59t76 152h-254v84h348v-34q0 -148 -92.5 -247t-239.5 -99q-148 0 -252 105.5t-104 255.5q0 151 104.5 256.5t252.5 105.5q97 0 176.5 -48t121.5 -128z" />
    <glyph glyph-name="H" unicode="H" horiz-adv-x="734" 
d="M90 0v700h89v-295h376v295h89v-700h-89v321h-376v-321h-89z" />
    <glyph glyph-name="I" unicode="I" horiz-adv-x="269" 
d="M90 700h89v-700h-89v700z" />
    <glyph glyph-name="J" unicode="J" horiz-adv-x="500" 
d="M420 211q0 -103 -54.5 -162.5t-147.5 -59.5q-72 0 -125.5 37.5t-77.5 105.5l74 41q44 -101 129 -101q53 0 83 36.5t30 101.5v490h89v-489z" />
    <glyph glyph-name="K" unicode="K" horiz-adv-x="620" 
d="M179 700v-301l293 301h112l-307 -315l331 -385h-113l-277 326l-39 -40v-286h-89v700h89z" />
    <glyph glyph-name="L" unicode="L" horiz-adv-x="449" 
d="M90 700h89v-617h250v-83h-339v700z" />
    <glyph glyph-name="M" unicode="M" horiz-adv-x="937" 
d="M742 700h105v-700h-87v545l-261 -545h-61l-261 545v-545h-87v700h108l272 -575z" />
    <glyph glyph-name="N" unicode="N" horiz-adv-x="775" 
d="M599 700h86v-700h-84l-425 565v-565h-86v700h91l418 -558v558z" />
    <glyph glyph-name="O" unicode="O" horiz-adv-x="822" 
d="M770 350q0 -149 -105.5 -255t-253.5 -106t-253.5 106t-105.5 255q0 150 105.5 256t253.5 106t253.5 -106t105.5 -256zM679 350q0 114 -78.5 195.5t-189.5 81.5t-189.5 -81.5t-78.5 -195.5t78.5 -195t189.5 -81t189.5 81t78.5 195z" />
    <glyph glyph-name="P" unicode="P" horiz-adv-x="559" 
d="M307 700q102 0 164 -54t62 -148t-62 -147.5t-164 -53.5h-128v-297h-89v700h217zM179 618v-239h128q61 0 98.5 32t37.5 87q0 57 -37.5 88.5t-98.5 31.5h-128z" />
    <glyph glyph-name="Q" unicode="Q" horiz-adv-x="822" 
d="M759 54l-56 -66l-83 69q-93 -68 -209 -68q-148 0 -253.5 106t-105.5 255q0 150 105.5 256t253.5 106t253.5 -106t105.5 -256q0 -131 -86 -233zM679 350q0 114 -78.5 195.5t-189.5 81.5t-189.5 -81.5t-78.5 -195.5t78.5 -195t189.5 -81q76 0 141 41l-69 59l56 65l78 -66
q62 76 62 177z" />
    <glyph glyph-name="R" unicode="R" horiz-adv-x="588" 
d="M179 297v-297h-89v700h205q101 0 163 -53.5t62 -148.5q0 -79 -47.5 -131t-126.5 -66l220 -301h-105l-214 297h-68zM179 618v-242h115q61 0 98.5 32.5t37.5 89.5t-37 88.5t-99 31.5h-115z" />
    <glyph glyph-name="S" unicode="S" horiz-adv-x="542" 
d="M37 168l83 30q20 -57 61 -91t99 -34q55 0 93 31t38 84q0 79 -104 118l-82 31q-160 60 -160 188q0 84 58.5 135.5t146.5 51.5q74 0 130 -41.5t82 -115.5l-81 -34q-39 107 -132 107q-49 0 -81.5 -27t-32.5 -71q0 -71 106 -111l81 -31q160 -61 160 -194q0 -93 -64.5 -149
t-160.5 -56q-88 0 -151 47.5t-89 131.5z" />
    <glyph glyph-name="T" unicode="T" horiz-adv-x="538" 
d="M20 618v82h498v-82h-204v-618h-90v618h-204z" />
    <glyph glyph-name="U" unicode="U" horiz-adv-x="695" 
d="M348 -11q-127 0 -197.5 79t-70.5 211v421h89v-420q0 -95 46.5 -151t132.5 -56q85 0 131.5 56.5t46.5 150.5v420h89v-421q0 -133 -70 -211.5t-197 -78.5z" />
    <glyph glyph-name="V" unicode="V" horiz-adv-x="629" 
d="M345 0h-60l-273 700h94l210 -551l209 551h92z" />
    <glyph glyph-name="W" unicode="W" horiz-adv-x="986" 
d="M308 0h-57l-237 700h92l176 -534l184 534h55l184 -534l177 534h90l-238 -700h-57l-185 533z" />
    <glyph glyph-name="X" unicode="X" horiz-adv-x="621" 
d="M595 700l-232 -339l247 -361h-103l-197 293l-198 -293h-101l246 360l-231 340h103l182 -271l184 271h100z" />
    <glyph glyph-name="Y" unicode="Y" horiz-adv-x="624" 
d="M268 312l-256 388h104l197 -306l197 306h102l-255 -388v-312h-89v312z" />
    <glyph glyph-name="Z" unicode="Z" horiz-adv-x="607" 
d="M569 646l-412 -565h415v-81h-537v54l411 565h-385v81h508v-54z" />
    <glyph glyph-name="bracketleft" unicode="[" horiz-adv-x="329" 
d="M80 -165v918h229v-71h-148v-776h148v-71h-229z" />
    <glyph glyph-name="backslash" unicode="\" horiz-adv-x="449" 
d="M373 -100l-368 865h86l368 -865h-86z" />
    <glyph glyph-name="bracketright" unicode="]" horiz-adv-x="329" 
d="M249 753v-918h-229v71h148v776h-148v71h229z" />
    <glyph glyph-name="asciicircum" unicode="^" horiz-adv-x="467" 
d="M269 700l158 -304h-87l-107 213l-107 -213h-86l157 304h72z" />
    <glyph glyph-name="underscore" unicode="_" horiz-adv-x="486" 
d="M14 -114v69h458v-69h-458z" />
    <glyph glyph-name="grave" unicode="`" horiz-adv-x="500" 
d="M348 577h-83l-112 139h103z" />
    <glyph glyph-name="a" unicode="a" horiz-adv-x="626" 
d="M461 486h85v-486h-85v78q-26 -41 -72.5 -65t-99.5 -24q-104 0 -174 73t-70 181q0 107 70.5 180.5t173.5 73.5q54 0 99.5 -22.5t72.5 -62.5v74zM466 243q0 74 -48 124.5t-119 50.5t-119 -50.5t-48 -124.5t48 -124.5t119 -50.5t119 50.5t48 124.5z" />
    <glyph glyph-name="b" unicode="b" horiz-adv-x="626" 
d="M165 0h-85v700h85v-291q26 40 72.5 64t99.5 24q104 0 174 -73t70 -181q0 -107 -70.5 -180.5t-173.5 -73.5q-54 0 -99.5 22t-72.5 62v-73zM494 243q0 74 -48 124.5t-119 50.5t-119 -50.5t-48 -124.5t48 -124.5t119 -50.5t119 50.5t48 124.5z" />
    <glyph glyph-name="c" unicode="c" horiz-adv-x="482" 
d="M45 243q0 108 71.5 181t182.5 73q76 0 138 -42v-87q-64 49 -134 49q-74 0 -122.5 -50t-48.5 -124q0 -73 48.5 -123.5t122.5 -50.5q62 0 137 48v-87q-66 -41 -140 -41q-113 0 -184 72.5t-71 181.5z" />
    <glyph glyph-name="d" unicode="d" horiz-adv-x="626" 
d="M461 700h85v-700h-85v77q-26 -40 -72.5 -64t-99.5 -24q-104 0 -174 73t-70 181q0 107 70.5 180.5t173.5 73.5q54 0 99.5 -22t72.5 -62v287zM466 243q0 74 -48 124.5t-119 50.5t-119 -50.5t-48 -124.5t48 -124.5t119 -50.5t119 50.5t48 124.5z" />
    <glyph glyph-name="e" unicode="e" horiz-adv-x="563" 
d="M293 -11q-108 0 -178 71.5t-70 182.5q0 109 69 181.5t173 72.5q102 0 169 -72.5t67 -177.5l-1 -31h-391q4 -64 51.5 -107t111.5 -43q51 0 83 21t58 62l70 -36q-31 -57 -86 -90.5t-126 -33.5zM133 287h303q-7 58 -49.5 96.5t-101.5 38.5q-57 0 -101.5 -41.5t-50.5 -93.5z
" />
    <glyph glyph-name="f" unicode="f" horiz-adv-x="346" 
d="M188 0h-86v409h-75v77h75v42q0 90 46 137t121 47q43 0 73 -12v-77q-25 10 -59 10q-95 0 -95 -103v-44h136v-77h-136v-409z" />
    <glyph glyph-name="g" unicode="g" horiz-adv-x="615" 
d="M450 93q-26 -40 -71.5 -64t-96.5 -24q-100 0 -168.5 70.5t-68.5 174.5t68.5 175.5t168.5 71.5q52 0 97 -22.5t71 -61.5v73h85v-458q0 -113 -65.5 -180.5t-175.5 -67.5q-76 0 -135 32.5t-93 93.5l68 48q53 -96 160 -96q71 0 113.5 45.5t42.5 122.5v67zM455 250
q0 71 -46.5 119.5t-115.5 48.5t-115 -48.5t-46 -119.5t46 -119.5t115 -48.5t115.5 48.5t46.5 119.5z" />
    <glyph glyph-name="h" unicode="h" horiz-adv-x="590" 
d="M166 254v-254h-86v700h86v-284q51 81 155 81q92 0 144 -57t52 -155v-285h-86v275q0 66 -33.5 104t-94.5 38q-62 0 -99.5 -44.5t-37.5 -118.5z" />
    <glyph glyph-name="i" unicode="i" horiz-adv-x="246" 
d="M181 630q0 -24 -17 -41t-41 -17t-41 17t-17 41t17 41t41 17t41 -17t17 -41zM80 486h86v-486h-86v486z" />
    <glyph glyph-name="j" unicode="j" horiz-adv-x="249" 
d="M83 -44v530h86v-530q0 -87 -40.5 -131.5t-110.5 -44.5q-31 0 -57 12v77q18 -10 49 -10q34 0 53.5 25t19.5 72zM184 630q0 -24 -17 -41t-41 -17t-41 17t-17 41t17 41t41 17t41 -17t17 -41z" />
    <glyph glyph-name="k" unicode="k" horiz-adv-x="508" 
d="M165 700v-407l204 193h110l-221 -207l240 -279h-109l-191 226l-33 -31v-195h-85v700h85z" />
    <glyph glyph-name="l" unicode="l" horiz-adv-x="246" 
d="M80 700h86v-700h-86v700z" />
    <glyph glyph-name="m" unicode="m" horiz-adv-x="879" 
d="M166 255v-255h-86v486h85v-70q44 81 143 81q106 0 153 -95q56 95 166 95q84 0 131.5 -55t47.5 -149v-293h-86v278q0 66 -28 103t-82 37q-56 0 -90 -44.5t-34 -118.5v-255h-86v276q0 66 -28.5 104t-81.5 38q-56 0 -90 -44.5t-34 -118.5z" />
    <glyph glyph-name="n" unicode="n" horiz-adv-x="590" 
d="M166 254v-254h-86v486h86v-70q51 81 155 81q92 0 144 -57t52 -155v-285h-86v275q0 66 -33.5 104t-94.5 38q-62 0 -99.5 -44.5t-37.5 -118.5z" />
    <glyph glyph-name="o" unicode="o" horiz-adv-x="598" 
d="M299 497q109 0 181.5 -73.5t72.5 -180.5t-72.5 -180.5t-181.5 -73.5t-181.5 73.5t-72.5 180.5t72.5 180.5t181.5 73.5zM299 418q-71 0 -119 -51t-48 -124t48 -124t119 -51t119 51t48 124t-48 124t-119 51z" />
    <glyph glyph-name="p" unicode="p" horiz-adv-x="626" 
d="M165 -208h-85v694h85v-77q26 40 72.5 64t99.5 24q104 0 174 -73t70 -181q0 -107 -70.5 -180.5t-173.5 -73.5q-54 0 -99.5 22t-72.5 62v-281zM494 243q0 74 -48 124.5t-119 50.5t-119 -50.5t-48 -124.5t48 -124.5t119 -50.5t119 50.5t48 124.5z" />
    <glyph glyph-name="q" unicode="q" horiz-adv-x="626" 
d="M461 486h85v-694h-85v285q-26 -40 -72.5 -64t-99.5 -24q-104 0 -174 73t-70 181q0 107 70.5 180.5t173.5 73.5q54 0 99.5 -22t72.5 -62v73zM466 243q0 74 -48 124.5t-119 50.5t-119 -50.5t-48 -124.5t48 -124.5t119 -50.5t119 50.5t48 124.5z" />
    <glyph glyph-name="r" unicode="r" horiz-adv-x="360" 
d="M334 492v-86q-9 2 -24 2q-67 0 -106 -48.5t-39 -128.5v-231h-85v486h84v-86q16 42 58.5 68t90.5 26z" />
    <glyph glyph-name="s" unicode="s" horiz-adv-x="420" 
d="M34 121l76 29q11 -39 40.5 -62.5t67.5 -23.5q33 0 57 18.5t24 49.5q0 47 -69 70l-54 18q-125 42 -125 138q0 61 45 100t113 39q59 0 102.5 -31.5t63.5 -86.5l-75 -30q-27 74 -93 74q-30 0 -50.5 -16.5t-20.5 -42.5q0 -43 71 -68l50 -17q127 -43 127 -142q0 -64 -48 -106
t-120 -42q-67 0 -116 36t-66 96z" />
    <glyph glyph-name="t" unicode="t" horiz-adv-x="355" 
d="M99 632h86v-146h136v-77h-136v-257q0 -43 19.5 -63t61.5 -20q32 0 55 15v-80q-28 -15 -75 -15q-69 0 -108 40t-39 111v269h-75v77h75v146z" />
    <glyph glyph-name="u" unicode="u" horiz-adv-x="587" 
d="M421 232v254h86v-486h-86v70q-51 -81 -154 -81q-91 0 -142.5 57t-51.5 155v285h86v-275q0 -66 32.5 -104t93.5 -38q62 0 99 44.5t37 118.5z" />
    <glyph glyph-name="v" unicode="v" horiz-adv-x="512" 
d="M291 0h-70l-203 486h92l147 -368l147 368h90z" />
    <glyph glyph-name="w" unicode="w" horiz-adv-x="794" 
d="M591 0h-66l-128 360l-128 -360h-66l-181 486h89l127 -364l129 364h62l129 -364l127 364h87z" />
    <glyph glyph-name="x" unicode="x" horiz-adv-x="501" 
d="M382 0l-133 188l-134 -188h-97l181 248l-173 238h100l125 -176l126 176h98l-173 -236l181 -250h-101z" />
    <glyph glyph-name="y" unicode="y" horiz-adv-x="513" 
d="M495 486l-234 -560q-33 -79 -69.5 -112.5t-90.5 -33.5q-30 0 -53 10v76q22 -8 46 -8q29 0 48.5 19t39.5 66l29 70l-193 473h92l146 -375l150 375h89z" />
    <glyph glyph-name="z" unicode="z" horiz-adv-x="450" 
d="M44 411v75h376v-51l-281 -360h285v-75h-398v53l279 358h-261z" />
    <glyph glyph-name="braceleft" unicode="{" horiz-adv-x="363" 
d="M201 166l-6 -145q-3 -63 23 -90.5t79 -27.5l36 1v-67q-20 -3 -44 -3q-90 0 -134 44t-40 140l6 146q4 81 -86 94v71q90 11 86 94l-6 145q-4 97 40 141t134 44l44 -3v-68q-16 2 -36 2q-53 0 -79 -27.5t-23 -90.5l6 -145q4 -96 -81 -127q85 -30 81 -128z" />
    <glyph glyph-name="bar" unicode="|" horiz-adv-x="272" 
d="M177 -156h-82v921h82v-921z" />
    <glyph glyph-name="braceright" unicode="}" horiz-adv-x="363" 
d="M162 421l6 145q3 63 -23 90.5t-79 27.5l-36 -1v67q20 3 44 3q90 0 134 -44t40 -140l-6 -146q-4 -81 86 -94v-71q-90 -11 -86 -94l6 -145q4 -97 -40 -141t-134 -44l-44 3v68q16 -2 36 -2q53 0 79 27.5t23 90.5l-6 145q-4 96 81 127q-85 30 -81 128z" />
    <glyph glyph-name="asciitilde" unicode="~" horiz-adv-x="521" 
d="M122 202h-77q1 57 37.5 92t89.5 35q42 0 73 -15.5t53 -31t44 -15.5q24 0 39.5 16.5t16.5 41.5h78q-1 -56 -38 -91.5t-90 -35.5q-42 0 -73 16t-53 31.5t-44 15.5q-24 0 -39.5 -17t-16.5 -42z" />
    <glyph glyph-name="nbspace" unicode="&#xa0;" horiz-adv-x="245" 
 />
    <glyph glyph-name="exclamdown" unicode="&#xa1;" horiz-adv-x="262" 
d="M178 -208h-94l8 498h78zM70 435q0 25 17.5 43t43.5 18q25 0 43 -18t18 -43t-17.5 -42.5t-43.5 -17.5t-43.5 17.5t-17.5 42.5z" />
    <glyph glyph-name="cent" unicode="&#xa2;" horiz-adv-x="473" 
d="M312 178q52 5 116 46v-84q-56 -36 -116 -40v-105h-65v108q-91 15 -145.5 81t-54.5 159q0 91 55.5 158t144.5 81v105h65v-102q61 -4 113 -39v-85q-55 42 -113 46v-329zM247 501q-52 -14 -83.5 -57t-31.5 -101q0 -57 31.5 -100.5t83.5 -58.5v317z" />
    <glyph glyph-name="sterling" unicode="&#xa3;" horiz-adv-x="594" 
d="M133 371v89q0 105 55 166t156 61q93 0 151.5 -60t58.5 -146h-85q0 51 -34.5 87.5t-88.5 36.5q-61 0 -92.5 -39t-31.5 -109v-86h180v-76h-180v-124q0 -70 -33 -90h358v-81h-491v81h21q56 0 56 90v124h-77v76h77z" />
    <glyph glyph-name="currency" unicode="&#xa4;" 
d="M535 332q0 -74 -45 -135l72 -72l-56 -55l-74 73q-59 -39 -132 -39q-74 0 -133 39l-73 -73l-56 55l72 72q-45 61 -45 135q0 73 45 134l-73 73l56 55l74 -74q61 40 133 40t133 -40l74 74l56 -55l-73 -73q45 -61 45 -134zM454 332q0 63 -45.5 107.5t-108.5 44.5
t-108.5 -44.5t-45.5 -107.5t45.5 -107.5t108.5 -44.5t108.5 44.5t45.5 107.5z" />
    <glyph glyph-name="yen" unicode="&#xa5;" horiz-adv-x="614" 
d="M85 246h179v57h-179v69h140l-207 312h101l189 -290l190 290h98l-207 -312h142v-69h-180v-57h180v-69h-180v-177h-87v177h-179v69z" />
    <glyph glyph-name="brokenbar" unicode="&#xa6;" horiz-adv-x="272" 
d="M177 385h-82v380h82v-380zM95 228h82v-384h-82v384z" />
    <glyph glyph-name="section" unicode="&#xa7;" horiz-adv-x="480" 
d="M419 556h-76q-5 40 -33.5 64.5t-69.5 24.5q-43 0 -70.5 -24.5t-27.5 -62.5q0 -56 63 -81l97 -38q138 -54 138 -153q0 -41 -25.5 -74t-69.5 -49q33 -19 52 -52t19 -73q0 -67 -50 -110.5t-126 -43.5q-74 0 -124.5 44t-54.5 112h76q5 -40 33.5 -64.5t69.5 -24.5
q43 0 70.5 24.5t27.5 62.5q0 56 -63 81l-97 38q-138 54 -138 153q0 41 25.5 74t69.5 49q-33 19 -52 52t-19 73q0 66 50 110t126 44q74 0 124.5 -44t54.5 -112zM362 280q0 63 -89 96l-69 25q-39 -6 -62.5 -29.5t-23.5 -55.5q0 -63 89 -96l69 -25q39 6 62.5 29.5t23.5 55.5z
" />
    <glyph glyph-name="dieresis" unicode="&#xa8;" horiz-adv-x="500" 
d="M212 628q0 -22 -15.5 -37.5t-37.5 -15.5q-21 0 -36.5 15.5t-15.5 37.5q0 21 15.5 36.5t36.5 15.5q22 0 37.5 -15.5t15.5 -36.5zM393 628q0 -22 -15.5 -37.5t-37.5 -15.5q-21 0 -36.5 15.5t-15.5 37.5q0 21 15.5 36.5t36.5 15.5q22 0 37.5 -15.5t15.5 -36.5z" />
    <glyph glyph-name="copyright" unicode="&#xa9;" horiz-adv-x="813" 
d="M230 349q0 80 55.5 135t140.5 55q60 0 104 -31v-74q-55 34 -104 34q-50 0 -84 -34.5t-34 -84.5q0 -48 34 -82.5t84 -34.5t105 34v-75q-45 -30 -104 -30q-87 0 -142 54.5t-55 133.5zM761 350q0 -149 -104 -255t-250 -106t-250.5 106t-104.5 255q0 150 104.5 256t250.5 106
t250 -106t104 -256zM682 350q0 119 -80.5 203.5t-194.5 84.5q-115 0 -195.5 -84.5t-80.5 -203.5q0 -118 80.5 -202.5t195.5 -84.5q114 0 194.5 84.5t80.5 202.5z" />
    <glyph glyph-name="ordfeminine" unicode="&#xaa;" horiz-adv-x="492" 
d="M351 665h73v-366h-73v56q-44 -64 -129 -64q-77 0 -130 55t-53 136t53 136t130 55q83 0 129 -59v51zM353 482q0 53 -34.5 88.5t-86.5 35.5t-86.5 -35.5t-34.5 -88.5t34.5 -88.5t86.5 -35.5t86.5 35.5t34.5 88.5z" />
    <glyph glyph-name="guillemotleft" unicode="&#xab;" horiz-adv-x="467" 
d="M172 60l-132 202l133 202h88l-132 -202l133 -202h-90zM347 60l-131 202l133 202h87l-132 -202l133 -202h-90z" />
    <glyph glyph-name="logicalnot" unicode="&#xac;" 
d="M74 375v71h452v-225h-72v154h-380z" />
    <glyph glyph-name="registered" unicode="&#xae;" horiz-adv-x="813" 
d="M761 350q0 -149 -104 -255t-250 -106t-250.5 106t-104.5 255q0 150 104.5 256t250.5 106t250 -106t104 -256zM682 350q0 119 -80.5 203.5t-194.5 84.5q-115 0 -195.5 -84.5t-80.5 -203.5q0 -118 80.5 -202.5t195.5 -84.5q114 0 194.5 84.5t80.5 202.5zM543 417
q0 -35 -19.5 -62.5t-52.5 -41.5l95 -143h-90l-82 130h-29v-130h-76v360h125q57 0 93 -30.5t36 -82.5zM465 415q0 22 -15.5 34t-38.5 12h-46v-93h46q23 0 38.5 12.5t15.5 34.5z" />
    <glyph glyph-name="macron" unicode="&#xaf;" horiz-adv-x="500" 
d="M384 598h-268v58h268v-58z" />
    <glyph glyph-name="degree" unicode="&#xb0;" horiz-adv-x="406" 
d="M203 698q62 0 105 -41.5t43 -101.5t-43 -101.5t-105 -41.5t-105 41t-43 102t43 102t105 41zM128 555q0 -32 22 -53.5t53 -21.5q30 0 52 21.5t22 53.5t-22 53.5t-52 21.5q-31 0 -53 -21.5t-22 -53.5z" />
    <glyph glyph-name="plusminus" unicode="&#xb1;" 
d="M74 391v71h190v184h72v-184h190v-71h-190v-182h-72v182h-190zM74 55v71h452v-71h-452z" />
    <glyph glyph-name="twosuperior" unicode="&#xb2;" horiz-adv-x="334" 
d="M309 363v-64h-278v56l147 123q56 47 56 89q0 28 -17.5 45t-46.5 17t-48 -21.5t-19 -53.5h-70q0 62 38.5 101t98.5 39q59 0 97 -34.5t38 -88.5q0 -71 -88 -143l-80 -65h172z" />
    <glyph glyph-name="threesuperior" unicode="&#xb3;" horiz-adv-x="336" 
d="M148 530h20q25 0 43 15t18 36t-16.5 35.5t-41.5 14.5q-27 0 -44.5 -16.5t-17.5 -40.5h-68q0 53 37 86.5t94 33.5q55 0 90.5 -30t35.5 -75q0 -55 -52 -83q68 -24 68 -94q0 -52 -40 -86t-101 -34q-62 0 -101.5 35.5t-39.5 92.5h70q1 -28 20.5 -45.5t51.5 -17.5
q31 0 50.5 16t19.5 42q0 27 -20.5 42.5t-55.5 15.5h-20v57z" />
    <glyph glyph-name="acute" unicode="&#xb4;" horiz-adv-x="500" 
d="M235 577h-84l93 139h102z" />
    <glyph glyph-name="uni00B5" unicode="&#xb5;" horiz-adv-x="594" 
d="M428 232v254h86v-486h-86v70q-51 -81 -154 -81q-63 0 -108 31v-228h-86v694h86v-275q0 -66 32.5 -104t93.5 -38q62 0 99 44.5t37 118.5z" />
    <glyph glyph-name="paragraph" unicode="&#xb6;" horiz-adv-x="577" 
d="M297 632v-740h-73v447h-12q-82 2 -134.5 50.5t-52.5 130.5q0 83 54 131.5t139 48.5h329v-68h-71v-740h-73v740h-106z" />
    <glyph glyph-name="periodcentered" unicode="&#xb7;" horiz-adv-x="252" 
d="M187 263q0 -25 -17.5 -43t-43.5 -18t-43.5 18t-17.5 43t18 42.5t43 17.5t43 -17.5t18 -42.5z" />
    <glyph glyph-name="cedilla" unicode="&#xb8;" horiz-adv-x="500" 
d="M258 -50q37 0 61 -23t24 -58q0 -38 -27.5 -63.5t-69.5 -25.5q-36 0 -62.5 22.5t-31.5 55.5h62q3 -10 12 -18t22 -8q16 0 26 10.5t10 25.5q0 14 -10 23.5t-25 9.5q-19 0 -31 -16l-52 30l36 82h61l-24 -51q6 4 19 4z" />
    <glyph glyph-name="onesuperior" unicode="&#xb9;" horiz-adv-x="229" 
d="M166 299h-71v321h-68v67h139v-388z" />
    <glyph glyph-name="ordmasculine" unicode="&#xba;" horiz-adv-x="459" 
d="M420 482q0 -79 -55.5 -135t-134.5 -56t-135 56t-56 135t56 135t135 56t134.5 -56t55.5 -135zM348 482q0 52 -34.5 88t-83.5 36t-83.5 -36t-34.5 -88t34.5 -88t83.5 -36t83.5 36t34.5 88z" />
    <glyph glyph-name="guillemotright" unicode="&#xbb;" horiz-adv-x="466" 
d="M295 464l131 -202l-133 -202h-87l132 202l-133 202h90zM119 464l132 -202l-133 -202h-87l132 202l-133 202h89z" />
    <glyph glyph-name="onequarter" unicode="&#xbc;" horiz-adv-x="736" 
d="M644 687l-507 -687h-91l507 687h91zM672 388v-242h49v-62h-49v-84h-69v84h-192v52l177 252h84zM603 305l-112 -159h112v159zM166 299h-71v321h-68v67h139v-388z" />
    <glyph glyph-name="onehalf" unicode="&#xbd;" horiz-adv-x="780" 
d="M644 687l-507 -687h-91l507 687h91zM755 64v-64h-278v56l147 123q56 47 56 89q0 28 -17.5 45t-46.5 17t-48 -21.5t-19 -53.5h-70q0 62 38.5 101t98.5 39q59 0 97 -34.5t38 -88.5q0 -71 -88 -143l-80 -65h172zM166 299h-71v321h-68v67h139v-388z" />
    <glyph glyph-name="threequarters" unicode="&#xbe;" horiz-adv-x="828" 
d="M148 530h20q25 0 43 15t18 36t-16.5 35.5t-41.5 14.5q-27 0 -44.5 -16.5t-17.5 -40.5h-68q0 53 37 86.5t94 33.5q55 0 90.5 -30t35.5 -75q0 -55 -52 -83q68 -24 68 -94q0 -52 -40 -86t-101 -34q-62 0 -101.5 35.5t-39.5 92.5h70q1 -28 20.5 -45.5t51.5 -17.5
q31 0 50.5 16t19.5 42q0 27 -20.5 42.5t-55.5 15.5h-20v57zM736 687l-507 -687h-91l507 687h91zM764 388v-242h49v-62h-49v-84h-69v84h-192v52l177 252h84zM695 305l-112 -159h112v159z" />
    <glyph glyph-name="questiondown" unicode="&#xbf;" horiz-adv-x="515" 
d="M50 -25q0 92 91 174l15 13q14 12 17 15l14.5 14.5t15.5 18t10.5 17t9 20.5t2.5 20v23h89v-30q0 -74 -95 -151q-80 -65 -80 -129q0 -49 36.5 -82.5t90.5 -33.5q56 0 93.5 38.5t38.5 96.5h87q0 -95 -62.5 -157t-157.5 -62q-92 0 -153.5 56t-61.5 139zM204 435q0 25 17.5 43
t43.5 18q25 0 43 -18t18 -43t-17.5 -42.5t-43.5 -17.5t-43.5 17.5t-17.5 42.5z" />
    <glyph glyph-name="Agrave" unicode="&#xc0;" horiz-adv-x="671" 
d="M301 700h70l288 -700h-94l-82 203h-297l-82 -203h-92zM334 575l-116 -291h233zM372 756h-83l-112 139h103z" />
    <glyph glyph-name="Aacute" unicode="&#xc1;" horiz-adv-x="671" 
d="M301 700h70l288 -700h-94l-82 203h-297l-82 -203h-92zM334 575l-116 -291h233zM383 756h-84l93 139h102z" />
    <glyph glyph-name="Acircumflex" unicode="&#xc2;" horiz-adv-x="671" 
d="M301 700h70l288 -700h-94l-82 203h-297l-82 -203h-92zM334 575l-116 -291h233zM278 756h-87l111 139h68l111 -139h-89l-57 72z" />
    <glyph glyph-name="Atilde" unicode="&#xc3;" horiz-adv-x="671" 
d="M301 700h70l288 -700h-94l-82 203h-297l-82 -203h-92zM334 575l-116 -291h233zM178 769q0 52 25 77.5t66 25.5q37 0 76.5 -24.5t55.5 -24.5q37 0 37 46h59q0 -53 -25.5 -78t-65.5 -25q-37 0 -76.5 24.5t-55.5 24.5q-37 0 -37 -46h-59z" />
    <glyph glyph-name="Adieresis" unicode="&#xc4;" horiz-adv-x="671" 
d="M301 700h70l288 -700h-94l-82 203h-297l-82 -203h-92zM334 575l-116 -291h233zM298 826q0 -22 -15.5 -37.5t-37.5 -15.5q-21 0 -36.5 15.5t-15.5 37.5q0 21 15.5 36.5t36.5 15.5q22 0 37.5 -15.5t15.5 -36.5zM479 826q0 -22 -15.5 -37.5t-37.5 -15.5q-21 0 -36.5 15.5
t-15.5 37.5q0 21 15.5 36.5t36.5 15.5q22 0 37.5 -15.5t15.5 -36.5z" />
    <glyph glyph-name="Aring" unicode="&#xc5;" horiz-adv-x="671" 
d="M301 700h70l288 -700h-94l-82 203h-297l-82 -203h-92zM334 575l-116 -291h233zM434 830q0 -40 -28.5 -67.5t-69.5 -27.5t-69.5 27.5t-28.5 67.5q0 41 28.5 68.5t69.5 27.5t69.5 -27.5t28.5 -68.5zM377 830q0 18 -12 30.5t-29 12.5t-29 -12.5t-12 -30.5q0 -17 12 -29.5
t29 -12.5t29 12.5t12 29.5z" />
    <glyph glyph-name="AE" unicode="&#xc6;" horiz-adv-x="936" 
d="M490 0v201h-253l-126 -201h-100l444 700h424v-82h-300v-214h279v-81h-279v-241h302v-82h-391zM287 282h203v327z" />
    <glyph glyph-name="Ccedilla" unicode="&#xc7;" horiz-adv-x="661" 
d="M404 -50q37 0 61 -23t24 -58q0 -38 -27.5 -63.5t-69.5 -25.5q-36 0 -62.5 22.5t-31.5 55.5h62q3 -10 12 -18t22 -8q16 0 26 10.5t10 25.5q0 14 -10 23.5t-25 9.5q-19 0 -31 -16l-52 30l34 79q-128 22 -211 121.5t-83 234.5q0 152 103.5 257t254.5 105q110 0 205 -63v-99
q-101 76 -207 76q-111 0 -187.5 -80t-76.5 -196q0 -115 76.5 -195t187.5 -80q106 0 209 74v-99q-98 -61 -208 -61h-4l-20 -43q6 4 19 4z" />
    <glyph glyph-name="Egrave" unicode="&#xc8;" horiz-adv-x="536" 
d="M90 0v700h389v-82h-300v-214h279v-81h-279v-241h302v-82h-391zM355 756h-83l-112 139h103z" />
    <glyph glyph-name="Eacute" unicode="&#xc9;" horiz-adv-x="536" 
d="M90 0v700h389v-82h-300v-214h279v-81h-279v-241h302v-82h-391zM311 756h-84l93 139h102z" />
    <glyph glyph-name="Ecircumflex" unicode="&#xca;" horiz-adv-x="536" 
d="M90 0v700h389v-82h-300v-214h279v-81h-279v-241h302v-82h-391zM227 756h-87l111 139h68l111 -139h-89l-57 72z" />
    <glyph glyph-name="Edieresis" unicode="&#xcb;" horiz-adv-x="536" 
d="M90 0v700h389v-82h-300v-214h279v-81h-279v-241h302v-82h-391zM247 826q0 -22 -15.5 -37.5t-37.5 -15.5q-21 0 -36.5 15.5t-15.5 37.5q0 21 15.5 36.5t36.5 15.5q22 0 37.5 -15.5t15.5 -36.5zM428 826q0 -22 -15.5 -37.5t-37.5 -15.5q-21 0 -36.5 15.5t-15.5 37.5
q0 21 15.5 36.5t36.5 15.5q22 0 37.5 -15.5t15.5 -36.5z" />
    <glyph glyph-name="Igrave" unicode="&#xcc;" horiz-adv-x="269" 
d="M90 700h89v-700h-89v700zM176 756h-83l-112 139h103z" />
    <glyph glyph-name="Iacute" unicode="&#xcd;" horiz-adv-x="269" 
d="M90 700h89v-700h-89v700zM177 756h-84l93 139h102z" />
    <glyph glyph-name="Icircumflex" unicode="&#xce;" horiz-adv-x="269" 
d="M90 700h89v-700h-89v700zM76 756h-87l111 139h68l111 -139h-89l-57 72z" />
    <glyph glyph-name="Idieresis" unicode="&#xcf;" horiz-adv-x="269" 
d="M90 700h89v-700h-89v700zM96 826q0 -22 -15.5 -37.5t-37.5 -15.5q-21 0 -36.5 15.5t-15.5 37.5q0 21 15.5 36.5t36.5 15.5q22 0 37.5 -15.5t15.5 -36.5zM277 826q0 -22 -15.5 -37.5t-37.5 -15.5q-21 0 -36.5 15.5t-15.5 37.5q0 21 15.5 36.5t36.5 15.5q22 0 37.5 -15.5
t15.5 -36.5z" />
    <glyph glyph-name="Eth" unicode="&#xd0;" horiz-adv-x="726" 
d="M674 350q0 -149 -101 -249.5t-247 -100.5h-221v312h-89v80h89v308h221q146 0 247 -100.5t101 -249.5zM399 392v-80h-205v-229h130q111 0 184.5 77t73.5 190t-73.5 190t-184.5 77h-130v-225h205z" />
    <glyph glyph-name="Ntilde" unicode="&#xd1;" horiz-adv-x="775" 
d="M599 700h86v-700h-84l-425 565v-565h-86v700h91l418 -558v558zM245 769q0 52 25 77.5t66 25.5q37 0 76.5 -24.5t55.5 -24.5q37 0 37 46h59q0 -53 -25 -78t-66 -25q-37 0 -76.5 24.5t-55.5 24.5q-37 0 -37 -46h-59z" />
    <glyph glyph-name="Ograve" unicode="&#xd2;" horiz-adv-x="822" 
d="M770 350q0 -149 -105.5 -255t-253.5 -106t-253.5 106t-105.5 255q0 150 105.5 256t253.5 106t253.5 -106t105.5 -256zM679 350q0 114 -78.5 195.5t-189.5 81.5t-189.5 -81.5t-78.5 -195.5t78.5 -195t189.5 -81t189.5 81t78.5 195zM459 756h-83l-112 139h103z" />
    <glyph glyph-name="Oacute" unicode="&#xd3;" horiz-adv-x="822" 
d="M770 350q0 -149 -105.5 -255t-253.5 -106t-253.5 106t-105.5 255q0 150 105.5 256t253.5 106t253.5 -106t105.5 -256zM679 350q0 114 -78.5 195.5t-189.5 81.5t-189.5 -81.5t-78.5 -195.5t78.5 -195t189.5 -81t189.5 81t78.5 195zM447 756h-84l93 139h102z" />
    <glyph glyph-name="Ocircumflex" unicode="&#xd4;" horiz-adv-x="822" 
d="M770 350q0 -149 -105.5 -255t-253.5 -106t-253.5 106t-105.5 255q0 150 105.5 256t253.5 106t253.5 -106t105.5 -256zM679 350q0 114 -78.5 195.5t-189.5 81.5t-189.5 -81.5t-78.5 -195.5t78.5 -195t189.5 -81t189.5 81t78.5 195zM353 756h-87l111 139h68l111 -139h-89
l-57 72z" />
    <glyph glyph-name="Otilde" unicode="&#xd5;" horiz-adv-x="822" 
d="M770 350q0 -149 -105.5 -255t-253.5 -106t-253.5 106t-105.5 255q0 150 105.5 256t253.5 106t253.5 -106t105.5 -256zM679 350q0 114 -78.5 195.5t-189.5 81.5t-189.5 -81.5t-78.5 -195.5t78.5 -195t189.5 -81t189.5 81t78.5 195zM252 769q0 52 25 77.5t66 25.5
q37 0 76.5 -24.5t55.5 -24.5q37 0 37 46h59q0 -53 -25.5 -78t-65.5 -25q-37 0 -76.5 24.5t-55.5 24.5q-37 0 -37 -46h-59z" />
    <glyph glyph-name="Odieresis" unicode="&#xd6;" horiz-adv-x="822" 
d="M770 350q0 -149 -105.5 -255t-253.5 -106t-253.5 106t-105.5 255q0 150 105.5 256t253.5 106t253.5 -106t105.5 -256zM679 350q0 114 -78.5 195.5t-189.5 81.5t-189.5 -81.5t-78.5 -195.5t78.5 -195t189.5 -81t189.5 81t78.5 195zM373 826q0 -22 -15.5 -37.5t-37.5 -15.5
q-21 0 -36.5 15.5t-15.5 37.5q0 21 15.5 36.5t36.5 15.5q22 0 37.5 -15.5t15.5 -36.5zM554 826q0 -22 -15.5 -37.5t-37.5 -15.5q-21 0 -36.5 15.5t-15.5 37.5q0 21 15.5 36.5t36.5 15.5q22 0 37.5 -15.5t15.5 -36.5z" />
    <glyph glyph-name="multiply" unicode="&#xd7;" 
d="M78 506l50 49l172 -172l173 172l50 -49l-173 -173l173 -172l-50 -50l-173 172l-172 -172l-50 50l172 172z" />
    <glyph glyph-name="Oslash" unicode="&#xd8;" horiz-adv-x="822" 
d="M770 350q0 -149 -105.5 -255t-253.5 -106q-121 0 -216 73l-75 -81l-61 57l77 81q-84 100 -84 231q0 150 105.5 256t253.5 106q119 0 217 -74l76 80l57 -53l-77 -82q86 -102 86 -233zM679 350q0 93 -56 168l-368 -393q70 -51 156 -51q111 0 189.5 81t78.5 195zM143 350
q0 -92 54 -167l371 391q-71 53 -157 53q-111 0 -189.5 -81.5t-78.5 -195.5z" />
    <glyph glyph-name="Ugrave" unicode="&#xd9;" horiz-adv-x="695" 
d="M348 -11q-127 0 -197.5 79t-70.5 211v421h89v-420q0 -95 46.5 -151t132.5 -56q85 0 131.5 56.5t46.5 150.5v420h89v-421q0 -133 -70 -211.5t-197 -78.5zM406 756h-83l-112 139h103z" />
    <glyph glyph-name="Uacute" unicode="&#xda;" horiz-adv-x="695" 
d="M348 -11q-127 0 -197.5 79t-70.5 211v421h89v-420q0 -95 46.5 -151t132.5 -56q85 0 131.5 56.5t46.5 150.5v420h89v-421q0 -133 -70 -211.5t-197 -78.5zM371 756h-84l93 139h102z" />
    <glyph glyph-name="Ucircumflex" unicode="&#xdb;" horiz-adv-x="695" 
d="M348 -11q-127 0 -197.5 79t-70.5 211v421h89v-420q0 -95 46.5 -151t132.5 -56q85 0 131.5 56.5t46.5 150.5v420h89v-421q0 -133 -70 -211.5t-197 -78.5zM290 756h-87l111 139h68l111 -139h-89l-57 72z" />
    <glyph glyph-name="Udieresis" unicode="&#xdc;" horiz-adv-x="695" 
d="M348 -11q-127 0 -197.5 79t-70.5 211v421h89v-420q0 -95 46.5 -151t132.5 -56q85 0 131.5 56.5t46.5 150.5v420h89v-421q0 -133 -70 -211.5t-197 -78.5zM311 826q0 -22 -15.5 -37.5t-37.5 -15.5q-21 0 -36.5 15.5t-15.5 37.5q0 21 15.5 36.5t36.5 15.5q22 0 37.5 -15.5
t15.5 -36.5zM492 826q0 -22 -15.5 -37.5t-37.5 -15.5q-21 0 -36.5 15.5t-15.5 37.5q0 21 15.5 36.5t36.5 15.5q22 0 37.5 -15.5t15.5 -36.5z" />
    <glyph glyph-name="Yacute" unicode="&#xdd;" horiz-adv-x="624" 
d="M268 312l-256 388h104l197 -306l197 306h102l-255 -388v-312h-89v312zM351 756h-84l93 139h102z" />
    <glyph glyph-name="Thorn" unicode="&#xde;" horiz-adv-x="559" 
d="M90 700h89v-145h128q102 0 164 -54t62 -148t-62 -147.5t-164 -53.5h-128v-152h-89v700zM179 473v-239h128q61 0 98.5 32t37.5 87q0 57 -37.5 88.5t-98.5 31.5h-128z" />
    <glyph glyph-name="germandbls" unicode="&#xdf;" horiz-adv-x="602" 
d="M281 422h18q55 0 92.5 32.5t37.5 84.5q0 48 -37 80.5t-91 32.5q-63 0 -99 -43.5t-36 -116.5v-492h-86v487q0 114 57.5 178.5t163.5 64.5q92 0 152.5 -52.5t60.5 -131.5q0 -54 -26 -95.5t-69 -64.5q60 -22 96.5 -71.5t36.5 -114.5q0 -95 -65.5 -152.5t-170.5 -57.5
q-40 0 -78 11v76q24 -9 73 -9q66 0 110 38.5t44 99.5t-47.5 99.5t-116.5 38.5h-20v78z" />
    <glyph glyph-name="agrave" unicode="&#xe0;" horiz-adv-x="626" 
d="M461 486h85v-486h-85v78q-26 -41 -72.5 -65t-99.5 -24q-104 0 -174 73t-70 181q0 107 70.5 180.5t173.5 73.5q54 0 99.5 -22.5t72.5 -62.5v74zM466 243q0 74 -48 124.5t-119 50.5t-119 -50.5t-48 -124.5t48 -124.5t119 -50.5t119 50.5t48 124.5zM366 577h-83l-112 139
h103z" />
    <glyph glyph-name="aacute" unicode="&#xe1;" horiz-adv-x="626" 
d="M461 486h85v-486h-85v78q-26 -41 -72.5 -65t-99.5 -24q-104 0 -174 73t-70 181q0 107 70.5 180.5t173.5 73.5q54 0 99.5 -22.5t72.5 -62.5v74zM466 243q0 74 -48 124.5t-119 50.5t-119 -50.5t-48 -124.5t48 -124.5t119 -50.5t119 50.5t48 124.5zM338 577h-84l93 139h102z
" />
    <glyph glyph-name="acircumflex" unicode="&#xe2;" horiz-adv-x="626" 
d="M461 486h85v-486h-85v78q-26 -41 -72.5 -65t-99.5 -24q-104 0 -174 73t-70 181q0 107 70.5 180.5t173.5 73.5q54 0 99.5 -22.5t72.5 -62.5v74zM466 243q0 74 -48 124.5t-119 50.5t-119 -50.5t-48 -124.5t48 -124.5t119 -50.5t119 50.5t48 124.5zM244 577h-87l111 139h68
l111 -139h-89l-57 72z" />
    <glyph glyph-name="atilde" unicode="&#xe3;" horiz-adv-x="626" 
d="M461 486h85v-486h-85v78q-26 -41 -72.5 -65t-99.5 -24q-104 0 -174 73t-70 181q0 107 70.5 180.5t173.5 73.5q54 0 99.5 -22.5t72.5 -62.5v74zM466 243q0 74 -48 124.5t-119 50.5t-119 -50.5t-48 -124.5t48 -124.5t119 -50.5t119 50.5t48 124.5zM149 588q0 52 25 77.5
t66 25.5q37 0 76.5 -24.5t55.5 -24.5q37 0 37 46h59q0 -52 -25 -77.5t-66 -25.5q-37 0 -76.5 24.5t-55.5 24.5q-37 0 -37 -46h-59z" />
    <glyph glyph-name="adieresis" unicode="&#xe4;" horiz-adv-x="626" 
d="M461 486h85v-486h-85v78q-26 -41 -72.5 -65t-99.5 -24q-104 0 -174 73t-70 181q0 107 70.5 180.5t173.5 73.5q54 0 99.5 -22.5t72.5 -62.5v74zM466 243q0 74 -48 124.5t-119 50.5t-119 -50.5t-48 -124.5t48 -124.5t119 -50.5t119 50.5t48 124.5zM261 628
q0 -22 -15.5 -37.5t-37.5 -15.5q-21 0 -36.5 15.5t-15.5 37.5q0 21 15.5 36.5t36.5 15.5q22 0 37.5 -15.5t15.5 -36.5zM442 628q0 -22 -15.5 -37.5t-37.5 -15.5q-21 0 -36.5 15.5t-15.5 37.5q0 21 15.5 36.5t36.5 15.5q22 0 37.5 -15.5t15.5 -36.5z" />
    <glyph glyph-name="aring" unicode="&#xe5;" horiz-adv-x="626" 
d="M461 486h85v-486h-85v78q-26 -41 -72.5 -65t-99.5 -24q-104 0 -174 73t-70 181q0 107 70.5 180.5t173.5 73.5q54 0 99.5 -22.5t72.5 -62.5v74zM466 243q0 74 -48 124.5t-119 50.5t-119 -50.5t-48 -124.5t48 -124.5t119 -50.5t119 50.5t48 124.5zM398 650
q0 -41 -28.5 -68.5t-70.5 -27.5t-70.5 27.5t-28.5 68.5q0 40 29 67.5t70 27.5t70 -27.5t29 -67.5zM341 650q0 17 -12.5 29.5t-29.5 12.5t-29.5 -12.5t-12.5 -29.5q0 -18 12.5 -30.5t29.5 -12.5t29.5 12.5t12.5 30.5z" />
    <glyph glyph-name="ae" unicode="&#xe6;" horiz-adv-x="866" 
d="M263 421q-87 0 -113 -86l-81 23q18 64 70 101.5t123 37.5q117 0 161 -85q69 85 175 85q98 0 163 -72.5t65 -177.5l-1 -31h-376q4 -64 49.5 -107t106.5 -43q48 0 78.5 21t54.5 62l70 -36q-30 -57 -83 -90.5t-121 -33.5q-128 0 -196 105q-66 -105 -203 -105
q-67 0 -110 39.5t-43 99.5q0 65 42.5 105t125.5 51l145 18v25q0 44 -27.5 69t-74.5 25zM596 422q-54 0 -97 -41.5t-48 -93.5h289q-7 58 -47 96.5t-97 38.5zM139 133q0 -31 23 -49.5t59 -18.5q63 0 104 43t41 105v16l-132 -17q-45 -6 -70 -27t-25 -52z" />
    <glyph glyph-name="ccedilla" unicode="&#xe7;" horiz-adv-x="482" 
d="M293 -50q37 0 61 -23t24 -58q0 -38 -27.5 -63.5t-69.5 -25.5q-36 0 -62.5 22.5t-31.5 55.5h62q7 -26 34 -26q16 0 26 10.5t10 25.5q0 14 -10 23.5t-25 9.5q-19 0 -31 -16l-52 30l35 81q-87 19 -139 87t-52 160q0 108 71.5 181t182.5 73q76 0 138 -42v-87q-64 49 -134 49
q-74 0 -122.5 -50t-48.5 -124q0 -73 48.5 -123.5t122.5 -50.5q62 0 137 48v-87q-66 -41 -140 -41h-6l-20 -43q6 4 19 4z" />
    <glyph glyph-name="egrave" unicode="&#xe8;" horiz-adv-x="563" 
d="M293 -11q-108 0 -178 71.5t-70 182.5q0 109 69 181.5t173 72.5q102 0 169 -72.5t67 -177.5l-1 -31h-391q4 -64 51.5 -107t111.5 -43q51 0 83 21t58 62l70 -36q-31 -57 -86 -90.5t-126 -33.5zM133 287h303q-7 58 -49.5 96.5t-101.5 38.5q-57 0 -101.5 -41.5t-50.5 -93.5z
M346 577h-83l-112 139h103z" />
    <glyph glyph-name="eacute" unicode="&#xe9;" horiz-adv-x="563" 
d="M293 -11q-108 0 -178 71.5t-70 182.5q0 109 69 181.5t173 72.5q102 0 169 -72.5t67 -177.5l-1 -31h-391q4 -64 51.5 -107t111.5 -43q51 0 83 21t58 62l70 -36q-31 -57 -86 -90.5t-126 -33.5zM133 287h303q-7 58 -49.5 96.5t-101.5 38.5q-57 0 -101.5 -41.5t-50.5 -93.5z
M318 577h-84l93 139h102z" />
    <glyph glyph-name="ecircumflex" unicode="&#xea;" horiz-adv-x="563" 
d="M293 -11q-108 0 -178 71.5t-70 182.5q0 109 69 181.5t173 72.5q102 0 169 -72.5t67 -177.5l-1 -31h-391q4 -64 51.5 -107t111.5 -43q51 0 83 21t58 62l70 -36q-31 -57 -86 -90.5t-126 -33.5zM133 287h303q-7 58 -49.5 96.5t-101.5 38.5q-57 0 -101.5 -41.5t-50.5 -93.5z
M230 577h-87l111 139h68l111 -139h-89l-57 72z" />
    <glyph glyph-name="edieresis" unicode="&#xeb;" horiz-adv-x="563" 
d="M293 -11q-108 0 -178 71.5t-70 182.5q0 109 69 181.5t173 72.5q102 0 169 -72.5t67 -177.5l-1 -31h-391q4 -64 51.5 -107t111.5 -43q51 0 83 21t58 62l70 -36q-31 -57 -86 -90.5t-126 -33.5zM133 287h303q-7 58 -49.5 96.5t-101.5 38.5q-57 0 -101.5 -41.5t-50.5 -93.5z
M250 628q0 -22 -15.5 -37.5t-37.5 -15.5q-21 0 -36.5 15.5t-15.5 37.5q0 21 15.5 36.5t36.5 15.5q22 0 37.5 -15.5t15.5 -36.5zM431 628q0 -22 -15.5 -37.5t-37.5 -15.5q-21 0 -36.5 15.5t-15.5 37.5q0 21 15.5 36.5t36.5 15.5q22 0 37.5 -15.5t15.5 -36.5z" />
    <glyph glyph-name="igrave" unicode="&#xec;" horiz-adv-x="246" 
d="M164 577h-83l-112 139h103zM80 486h86v-486h-86v486z" />
    <glyph glyph-name="iacute" unicode="&#xed;" horiz-adv-x="246" 
d="M166 577h-84l93 139h102zM80 486h86v-486h-86v486z" />
    <glyph glyph-name="icircumflex" unicode="&#xee;" horiz-adv-x="246" 
d="M80 486h86v-486h-86v486zM65 577h-87l111 139h68l111 -139h-89l-57 72z" />
    <glyph glyph-name="idieresis" unicode="&#xef;" horiz-adv-x="246" 
d="M85 628q0 -22 -15.5 -37.5t-37.5 -15.5q-21 0 -36.5 15.5t-15.5 37.5q0 21 15.5 36.5t36.5 15.5q22 0 37.5 -15.5t15.5 -36.5zM266 628q0 -22 -15.5 -37.5t-37.5 -15.5q-21 0 -36.5 15.5t-15.5 37.5q0 21 15.5 36.5t36.5 15.5q22 0 37.5 -15.5t15.5 -36.5zM80 486h86
v-486h-86v486z" />
    <glyph glyph-name="eth" unicode="&#xf0;" horiz-adv-x="602" 
d="M555 241q0 -107 -72.5 -179.5t-181.5 -72.5q-108 0 -181 72.5t-73 181.5q0 96 68.5 166t164.5 70q82 0 124 -38q-40 58 -81 106l-26 30l-138 -54l-33 54l128 51l-81 96h100l56 -67l123 49l33 -54l-114 -45l32 -38q83 -98 117.5 -173.5t34.5 -154.5zM468 240
q0 71 -47 118.5t-120 47.5q-71 0 -119 -48.5t-48 -117.5q0 -72 48 -122.5t119 -50.5t119 50.5t48 122.5z" />
    <glyph glyph-name="ntilde" unicode="&#xf1;" horiz-adv-x="590" 
d="M166 254v-254h-86v486h86v-70q51 81 155 81q92 0 144 -57t52 -155v-285h-86v275q0 66 -33.5 104t-94.5 38q-62 0 -99.5 -44.5t-37.5 -118.5zM141 588q0 52 25 77.5t66 25.5q37 0 76.5 -24.5t55.5 -24.5q37 0 37 46h59q0 -52 -25 -77.5t-66 -25.5q-37 0 -76.5 24.5
t-55.5 24.5q-37 0 -37 -46h-59z" />
    <glyph glyph-name="ograve" unicode="&#xf2;" horiz-adv-x="598" 
d="M299 497q109 0 181.5 -73.5t72.5 -180.5t-72.5 -180.5t-181.5 -73.5t-181.5 73.5t-72.5 180.5t72.5 180.5t181.5 73.5zM299 418q-71 0 -119 -51t-48 -124t48 -124t119 -51t119 51t48 124t-48 124t-119 51zM345 577h-83l-112 139h103z" />
    <glyph glyph-name="oacute" unicode="&#xf3;" horiz-adv-x="598" 
d="M299 497q109 0 181.5 -73.5t72.5 -180.5t-72.5 -180.5t-181.5 -73.5t-181.5 73.5t-72.5 180.5t72.5 180.5t181.5 73.5zM299 418q-71 0 -119 -51t-48 -124t48 -124t119 -51t119 51t48 124t-48 124t-119 51zM337 577h-84l93 139h102z" />
    <glyph glyph-name="ocircumflex" unicode="&#xf4;" horiz-adv-x="598" 
d="M299 497q109 0 181.5 -73.5t72.5 -180.5t-72.5 -180.5t-181.5 -73.5t-181.5 73.5t-72.5 180.5t72.5 180.5t181.5 73.5zM299 418q-71 0 -119 -51t-48 -124t48 -124t119 -51t119 51t48 124t-48 124t-119 51zM241 577h-87l111 139h68l111 -139h-89l-57 72z" />
    <glyph glyph-name="otilde" unicode="&#xf5;" horiz-adv-x="598" 
d="M299 497q109 0 181.5 -73.5t72.5 -180.5t-72.5 -180.5t-181.5 -73.5t-181.5 73.5t-72.5 180.5t72.5 180.5t181.5 73.5zM299 418q-71 0 -119 -51t-48 -124t48 -124t119 -51t119 51t48 124t-48 124t-119 51zM140 588q0 52 25 77.5t66 25.5q37 0 76.5 -24.5t55.5 -24.5
q37 0 37 46h59q0 -52 -25.5 -77.5t-65.5 -25.5q-37 0 -76.5 24.5t-55.5 24.5q-37 0 -37 -46h-59z" />
    <glyph glyph-name="odieresis" unicode="&#xf6;" horiz-adv-x="598" 
d="M299 497q109 0 181.5 -73.5t72.5 -180.5t-72.5 -180.5t-181.5 -73.5t-181.5 73.5t-72.5 180.5t72.5 180.5t181.5 73.5zM299 418q-71 0 -119 -51t-48 -124t48 -124t119 -51t119 51t48 124t-48 124t-119 51zM261 628q0 -22 -15.5 -37.5t-37.5 -15.5q-21 0 -36.5 15.5
t-15.5 37.5q0 21 15.5 36.5t36.5 15.5q22 0 37.5 -15.5t15.5 -36.5zM442 628q0 -22 -15.5 -37.5t-37.5 -15.5q-21 0 -36.5 15.5t-15.5 37.5q0 21 15.5 36.5t36.5 15.5q22 0 37.5 -15.5t15.5 -36.5z" />
    <glyph glyph-name="divide" unicode="&#xf7;" 
d="M74 297v73h452v-73h-452zM356 508q0 -23 -16 -39.5t-40 -16.5q-23 0 -39.5 16.5t-16.5 39.5t16.5 39t39.5 16t39.5 -16t16.5 -39zM356 160q0 -23 -16 -39.5t-40 -16.5q-23 0 -39.5 16.5t-16.5 39.5t16.5 39t39.5 16t39.5 -16t16.5 -39z" />
    <glyph glyph-name="oslash" unicode="&#xf8;" horiz-adv-x="602" 
d="M495 501l55 -54l-46 -49q51 -69 51 -155q0 -107 -72.5 -180.5t-181.5 -73.5q-83 0 -146 44l-48 -50l-55 54l47 49q-52 68 -52 157q0 107 72.5 180.5t181.5 73.5q81 0 147 -45zM301 418q-71 0 -119 -51t-48 -124q0 -52 25 -94l231 242q-40 27 -89 27zM468 243q0 50 -25 92
l-231 -242q41 -25 89 -25q71 0 119 51t48 124z" />
    <glyph glyph-name="ugrave" unicode="&#xf9;" horiz-adv-x="587" 
d="M421 232v254h86v-486h-86v70q-51 -81 -154 -81q-91 0 -142.5 57t-51.5 155v285h86v-275q0 -66 32.5 -104t93.5 -38q62 0 99 44.5t37 118.5zM344 577h-83l-112 139h103z" />
    <glyph glyph-name="uacute" unicode="&#xfa;" horiz-adv-x="587" 
d="M421 232v254h86v-486h-86v70q-51 -81 -154 -81q-91 0 -142.5 57t-51.5 155v285h86v-275q0 -66 32.5 -104t93.5 -38q62 0 99 44.5t37 118.5zM320 577h-84l93 139h102z" />
    <glyph glyph-name="ucircumflex" unicode="&#xfb;" horiz-adv-x="587" 
d="M421 232v254h86v-486h-86v70q-51 -81 -154 -81q-91 0 -142.5 57t-51.5 155v285h86v-275q0 -66 32.5 -104t93.5 -38q62 0 99 44.5t37 118.5zM232 577h-87l111 139h68l111 -139h-89l-57 72z" />
    <glyph glyph-name="udieresis" unicode="&#xfc;" horiz-adv-x="587" 
d="M421 232v254h86v-486h-86v70q-51 -81 -154 -81q-91 0 -142.5 57t-51.5 155v285h86v-275q0 -66 32.5 -104t93.5 -38q62 0 99 44.5t37 118.5zM251 628q0 -22 -15.5 -37.5t-37.5 -15.5q-21 0 -36.5 15.5t-15.5 37.5q0 21 15.5 36.5t36.5 15.5q22 0 37.5 -15.5t15.5 -36.5z
M432 628q0 -22 -15.5 -37.5t-37.5 -15.5q-21 0 -36.5 15.5t-15.5 37.5q0 21 15.5 36.5t36.5 15.5q22 0 37.5 -15.5t15.5 -36.5z" />
    <glyph glyph-name="yacute" unicode="&#xfd;" horiz-adv-x="513" 
d="M495 486l-234 -560q-33 -79 -69.5 -112.5t-90.5 -33.5q-30 0 -53 10v76q22 -8 46 -8q29 0 48.5 19t39.5 66l29 70l-193 473h92l146 -375l150 375h89zM292 577h-84l93 139h102z" />
    <glyph glyph-name="thorn" unicode="&#xfe;" horiz-adv-x="626" 
d="M80 -208v908h85v-291q26 40 72.5 64t99.5 24q104 0 174 -73t70 -181q0 -107 -70.5 -180.5t-173.5 -73.5q-54 0 -99.5 22t-72.5 62v-281h-85zM494 243q0 74 -48 124.5t-119 50.5t-119 -50.5t-48 -124.5t48 -124.5t119 -50.5t119 50.5t48 124.5z" />
    <glyph glyph-name="ydieresis" unicode="&#xff;" horiz-adv-x="513" 
d="M495 486l-234 -560q-33 -79 -69.5 -112.5t-90.5 -33.5q-30 0 -53 10v76q22 -8 46 -8q29 0 48.5 19t39.5 66l29 70l-193 473h92l146 -375l150 375h89zM219 628q0 -22 -15.5 -37.5t-37.5 -15.5q-21 0 -36.5 15.5t-15.5 37.5q0 21 15.5 36.5t36.5 15.5q22 0 37.5 -15.5
t15.5 -36.5zM400 628q0 -22 -15.5 -37.5t-37.5 -15.5q-21 0 -36.5 15.5t-15.5 37.5q0 21 15.5 36.5t36.5 15.5q22 0 37.5 -15.5t15.5 -36.5z" />
    <glyph glyph-name="Amacron" unicode="&#x100;" horiz-adv-x="671" 
d="M301 700h70l288 -700h-94l-82 203h-297l-82 -203h-92zM334 575l-116 -291h233zM470 780h-268v58h268v-58z" />
    <glyph glyph-name="amacron" unicode="&#x101;" horiz-adv-x="626" 
d="M461 486h85v-486h-85v78q-26 -41 -72.5 -65t-99.5 -24q-104 0 -174 73t-70 181q0 107 70.5 180.5t173.5 73.5q54 0 99.5 -22.5t72.5 -62.5v74zM466 243q0 74 -48 124.5t-119 50.5t-119 -50.5t-48 -124.5t48 -124.5t119 -50.5t119 50.5t48 124.5zM435 600h-268v58h268v-58
z" />
    <glyph glyph-name="Abreve" unicode="&#x102;" horiz-adv-x="671" 
d="M301 700h70l288 -700h-94l-82 203h-297l-82 -203h-92zM334 575l-116 -291h233zM336 819q28 0 46.5 20t20.5 53h67q0 -59 -37.5 -96t-96.5 -37t-96.5 37t-37.5 96h67q2 -33 20.5 -53t46.5 -20z" />
    <glyph glyph-name="abreve" unicode="&#x103;" horiz-adv-x="626" 
d="M461 486h85v-486h-85v78q-26 -41 -72.5 -65t-99.5 -24q-104 0 -174 73t-70 181q0 107 70.5 180.5t173.5 73.5q54 0 99.5 -22.5t72.5 -62.5v74zM466 243q0 74 -48 124.5t-119 50.5t-119 -50.5t-48 -124.5t48 -124.5t119 -50.5t119 50.5t48 124.5zM299 637q28 0 46.5 20
t20.5 53h67q0 -59 -37.5 -96t-96.5 -37t-96.5 37t-37.5 96h67q2 -33 20.5 -53t46.5 -20z" />
    <glyph glyph-name="Aogonek" unicode="&#x104;" horiz-adv-x="671" 
d="M301 700h70l288 -700q-50 -16 -83 -45.5t-33 -58.5q0 -38 44 -38q29 0 49 16v-62q-30 -16 -68 -16q-45 0 -71 23t-26 62q0 71 94 119l-82 203h-297l-82 -203h-92zM334 575l-116 -291h233z" />
    <glyph glyph-name="aogonek" unicode="&#x105;" horiz-adv-x="626" 
d="M461 0v78q-26 -41 -72.5 -65t-99.5 -24q-104 0 -174 73t-70 181q0 107 70.5 180.5t173.5 73.5q54 0 99.5 -22.5t72.5 -62.5v74h85v-486q-48 -21 -77.5 -48t-29.5 -56q0 -38 44 -38q29 0 49 16v-62q-30 -16 -68 -16q-45 0 -71 23t-26 62q0 71 94 119zM466 243
q0 74 -48 124.5t-119 50.5t-119 -50.5t-48 -124.5t48 -124.5t119 -50.5t119 50.5t48 124.5z" />
    <glyph glyph-name="Cacute" unicode="&#x106;" horiz-adv-x="661" 
d="M52 350q0 152 103.5 257t254.5 105q110 0 205 -63v-99q-101 76 -207 76q-111 0 -187.5 -80t-76.5 -196q0 -115 76.5 -195t187.5 -80q106 0 209 74v-99q-98 -61 -208 -61q-150 0 -253.5 104.5t-103.5 256.5zM433 756h-84l93 139h102z" />
    <glyph glyph-name="cacute" unicode="&#x107;" horiz-adv-x="482" 
d="M45 243q0 108 71.5 181t182.5 73q76 0 138 -42v-87q-64 49 -134 49q-74 0 -122.5 -50t-48.5 -124q0 -73 48.5 -123.5t122.5 -50.5q62 0 137 48v-87q-66 -41 -140 -41q-113 0 -184 72.5t-71 181.5zM323 577h-84l93 139h102z" />
    <glyph glyph-name="Ccircumflex" unicode="&#x108;" horiz-adv-x="661" 
d="M52 350q0 152 103.5 257t254.5 105q110 0 205 -63v-99q-101 76 -207 76q-111 0 -187.5 -80t-76.5 -196q0 -115 76.5 -195t187.5 -80q106 0 209 74v-99q-98 -61 -208 -61q-150 0 -253.5 104.5t-103.5 256.5zM348 756h-87l111 139h68l111 -139h-89l-57 72z" />
    <glyph glyph-name="ccircumflex" unicode="&#x109;" horiz-adv-x="482" 
d="M45 243q0 108 71.5 181t182.5 73q76 0 138 -42v-87q-64 49 -134 49q-74 0 -122.5 -50t-48.5 -124q0 -73 48.5 -123.5t122.5 -50.5q62 0 137 48v-87q-66 -41 -140 -41q-113 0 -184 72.5t-71 181.5zM239 577h-87l111 139h68l111 -139h-89l-57 72z" />
    <glyph glyph-name="Cdotaccent" unicode="&#x10a;" horiz-adv-x="661" 
d="M52 350q0 152 103.5 257t254.5 105q110 0 205 -63v-99q-101 76 -207 76q-111 0 -187.5 -80t-76.5 -196q0 -115 76.5 -195t187.5 -80q106 0 209 74v-99q-98 -61 -208 -61q-150 0 -253.5 104.5t-103.5 256.5zM466 827q0 -23 -16.5 -39.5t-39.5 -16.5t-39.5 16.5t-16.5 39.5
t16.5 39.5t39.5 16.5t39.5 -16.5t16.5 -39.5z" />
    <glyph glyph-name="cdotaccent" unicode="&#x10b;" horiz-adv-x="482" 
d="M45 243q0 108 71.5 181t182.5 73q76 0 138 -42v-87q-64 49 -134 49q-74 0 -122.5 -50t-48.5 -124q0 -73 48.5 -123.5t122.5 -50.5q62 0 137 48v-87q-66 -41 -140 -41q-113 0 -184 72.5t-71 181.5zM359 630q0 -24 -17 -41t-41 -17t-41 17t-17 41t17 41t41 17t41 -17
t17 -41z" />
    <glyph glyph-name="Ccaron" unicode="&#x10c;" horiz-adv-x="661" 
d="M52 350q0 152 103.5 257t254.5 105q110 0 205 -63v-99q-101 76 -207 76q-111 0 -187.5 -80t-76.5 -196q0 -115 76.5 -195t187.5 -80q106 0 209 74v-99q-98 -61 -208 -61q-150 0 -253.5 104.5t-103.5 256.5zM464 895h87l-111 -139h-68l-111 139h89l57 -72z" />
    <glyph glyph-name="ccaron" unicode="&#x10d;" horiz-adv-x="482" 
d="M45 243q0 108 71.5 181t182.5 73q76 0 138 -42v-87q-64 49 -134 49q-74 0 -122.5 -50t-48.5 -124q0 -73 48.5 -123.5t122.5 -50.5q62 0 137 48v-87q-66 -41 -140 -41q-113 0 -184 72.5t-71 181.5zM359 716h87l-111 -139h-68l-111 139h89l57 -72z" />
    <glyph glyph-name="Dcaron" unicode="&#x10e;" horiz-adv-x="711" 
d="M659 350q0 -149 -101 -249.5t-247 -100.5h-221v700h221q146 0 247 -100.5t101 -249.5zM567 350q0 113 -73.5 190t-184.5 77h-130v-534h130q111 0 184.5 77t73.5 190zM384 895h87l-111 -139h-68l-111 139h89l57 -72z" />
    <glyph glyph-name="dcaron" unicode="&#x10f;" horiz-adv-x="626" 
d="M461 700h85v-700h-85v77q-26 -40 -72.5 -64t-99.5 -24q-104 0 -174 73t-70 181q0 107 70.5 180.5t173.5 73.5q54 0 99.5 -22t72.5 -62v287zM466 243q0 74 -48 124.5t-119 50.5t-119 -50.5t-48 -124.5t48 -124.5t119 -50.5t119 50.5t48 124.5zM661 548h-74l28 163h88z" />
    <glyph glyph-name="Dcroat" unicode="&#x110;" horiz-adv-x="726" 
d="M674 350q0 -149 -101 -249.5t-247 -100.5h-221v312h-89v80h89v308h221q146 0 247 -100.5t101 -249.5zM399 392v-80h-205v-229h130q111 0 184.5 77t73.5 190t-73.5 190t-184.5 77h-130v-225h205z" />
    <glyph glyph-name="dcroat" unicode="&#x111;" horiz-adv-x="631" 
d="M461 700h85v-78h67v-64h-67v-558h-85v77q-26 -40 -72.5 -64t-99.5 -24q-104 0 -174 73t-70 181q0 107 70.5 180.5t173.5 73.5q54 0 99.5 -22t72.5 -62v145h-221v64h221v78zM466 243q0 74 -48 124.5t-119 50.5t-119 -50.5t-48 -124.5t48 -124.5t119 -50.5t119 50.5
t48 124.5z" />
    <glyph glyph-name="Emacron" unicode="&#x112;" horiz-adv-x="536" 
d="M90 0v700h389v-82h-300v-214h279v-81h-279v-241h302v-82h-391zM419 780h-268v58h268v-58z" />
    <glyph glyph-name="emacron" unicode="&#x113;" horiz-adv-x="563" 
d="M293 -11q-108 0 -178 71.5t-70 182.5q0 109 69 181.5t173 72.5q102 0 169 -72.5t67 -177.5l-1 -31h-391q4 -64 51.5 -107t111.5 -43q51 0 83 21t58 62l70 -36q-31 -57 -86 -90.5t-126 -33.5zM133 287h303q-7 58 -49.5 96.5t-101.5 38.5q-57 0 -101.5 -41.5t-50.5 -93.5z
M421 598h-268v58h268v-58z" />
    <glyph glyph-name="Ebreve" unicode="&#x114;" horiz-adv-x="536" 
d="M90 0v700h389v-82h-300v-214h279v-81h-279v-241h302v-82h-391zM284 819q28 0 46.5 20t20.5 53h67q0 -59 -37.5 -96t-96.5 -37t-96.5 37t-37.5 96h67q2 -33 20.5 -53t46.5 -20z" />
    <glyph glyph-name="ebreve" unicode="&#x115;" horiz-adv-x="563" 
d="M293 -11q-108 0 -178 71.5t-70 182.5q0 109 69 181.5t173 72.5q102 0 169 -72.5t67 -177.5l-1 -31h-391q4 -64 51.5 -107t111.5 -43q51 0 83 21t58 62l70 -36q-31 -57 -86 -90.5t-126 -33.5zM133 287h303q-7 58 -49.5 96.5t-101.5 38.5q-57 0 -101.5 -41.5t-50.5 -93.5z
M287 637q28 0 46.5 20t20.5 53h67q0 -59 -37.5 -96t-96.5 -37t-96.5 37t-37.5 96h67q2 -33 20.5 -53t46.5 -20z" />
    <glyph glyph-name="Edotaccent" unicode="&#x116;" horiz-adv-x="536" 
d="M90 0v700h389v-82h-300v-214h279v-81h-279v-241h302v-82h-391zM342 827q0 -23 -16.5 -39.5t-39.5 -16.5t-39.5 16.5t-16.5 39.5t16.5 39.5t39.5 16.5t39.5 -16.5t16.5 -39.5z" />
    <glyph glyph-name="edotaccent" unicode="&#x117;" horiz-adv-x="563" 
d="M293 -11q-108 0 -178 71.5t-70 182.5q0 109 69 181.5t173 72.5q102 0 169 -72.5t67 -177.5l-1 -31h-391q4 -64 51.5 -107t111.5 -43q51 0 83 21t58 62l70 -36q-31 -57 -86 -90.5t-126 -33.5zM133 287h303q-7 58 -49.5 96.5t-101.5 38.5q-57 0 -101.5 -41.5t-50.5 -93.5z
M346 630q0 -24 -17 -41t-41 -17t-41 17t-17 41t17 41t41 17t41 -17t17 -41z" />
    <glyph glyph-name="Eogonek" unicode="&#x118;" horiz-adv-x="536" 
d="M90 0v700h389v-82h-300v-214h279v-81h-279v-241h302v-82h-21q-48 -21 -77.5 -48t-29.5 -56q0 -38 44 -38q29 0 49 16v-62q-30 -16 -68 -16q-45 0 -71 23t-26 62q0 71 94 119h-285z" />
    <glyph glyph-name="eogonek" unicode="&#x119;" horiz-adv-x="563" 
d="M293 -11q-108 0 -178 71.5t-70 182.5q0 109 69 181.5t173 72.5q102 0 169 -72.5t67 -177.5l-1 -31h-391q4 -64 51.5 -107t111.5 -43q51 0 83 21t58 62l70 -36q-16 -33 -89 -106q-55 -55 -55 -101q0 -48 44 -48q30 0 50 15v-61q-32 -16 -72 -16q-44 0 -69.5 25.5
t-25.5 65.5q0 59 55 107q-27 -5 -50 -5zM133 287h303q-7 58 -49.5 96.5t-101.5 38.5q-57 0 -101.5 -41.5t-50.5 -93.5z" />
    <glyph glyph-name="Ecaron" unicode="&#x11a;" horiz-adv-x="536" 
d="M90 0v700h389v-82h-300v-214h279v-81h-279v-241h302v-82h-391zM342 895h87l-111 -139h-68l-111 139h89l57 -72z" />
    <glyph glyph-name="ecaron" unicode="&#x11b;" horiz-adv-x="563" 
d="M293 -11q-108 0 -178 71.5t-70 182.5q0 109 69 181.5t173 72.5q102 0 169 -72.5t67 -177.5l-1 -31h-391q4 -64 51.5 -107t111.5 -43q51 0 83 21t58 62l70 -36q-31 -57 -86 -90.5t-126 -33.5zM133 287h303q-7 58 -49.5 96.5t-101.5 38.5q-57 0 -101.5 -41.5t-50.5 -93.5z
M345 716h87l-111 -139h-68l-111 139h89l57 -72z" />
    <glyph glyph-name="Gcircumflex" unicode="&#x11c;" horiz-adv-x="789" 
d="M707 536l-79 -41q-32 63 -89.5 97.5t-130.5 34.5q-111 0 -188 -81t-77 -196q0 -114 77 -195t189 -81q96 0 161 59t76 152h-254v84h348v-34q0 -148 -92.5 -247t-239.5 -99q-148 0 -252 105.5t-104 255.5q0 151 104.5 256.5t252.5 105.5q97 0 176.5 -48t121.5 -128z
M348 756h-87l111 139h68l111 -139h-89l-57 72z" />
    <glyph glyph-name="gcircumflex" unicode="&#x11d;" horiz-adv-x="615" 
d="M450 93q-26 -40 -71.5 -64t-96.5 -24q-100 0 -168.5 70.5t-68.5 174.5t68.5 175.5t168.5 71.5q52 0 97 -22.5t71 -61.5v73h85v-458q0 -113 -65.5 -180.5t-175.5 -67.5q-76 0 -135 32.5t-93 93.5l68 48q53 -96 160 -96q71 0 113.5 45.5t42.5 122.5v67zM455 250
q0 71 -46.5 119.5t-115.5 48.5t-115 -48.5t-46 -119.5t46 -119.5t115 -48.5t115.5 48.5t46.5 119.5zM241 577h-87l111 139h68l111 -139h-89l-57 72z" />
    <glyph glyph-name="Gbreve" unicode="&#x11e;" horiz-adv-x="789" 
d="M707 536l-79 -41q-32 63 -89.5 97.5t-130.5 34.5q-111 0 -188 -81t-77 -196q0 -114 77 -195t189 -81q96 0 161 59t76 152h-254v84h348v-34q0 -148 -92.5 -247t-239.5 -99q-148 0 -252 105.5t-104 255.5q0 151 104.5 256.5t252.5 105.5q97 0 176.5 -48t121.5 -128z
M408 819q28 0 46.5 20t20.5 53h67q0 -59 -37.5 -96t-96.5 -37t-96.5 37t-37.5 96h67q2 -33 20.5 -53t46.5 -20z" />
    <glyph glyph-name="gbreve" unicode="&#x11f;" horiz-adv-x="615" 
d="M450 93q-26 -40 -71.5 -64t-96.5 -24q-100 0 -168.5 70.5t-68.5 174.5t68.5 175.5t168.5 71.5q52 0 97 -22.5t71 -61.5v73h85v-458q0 -113 -65.5 -180.5t-175.5 -67.5q-76 0 -135 32.5t-93 93.5l68 48q53 -96 160 -96q71 0 113.5 45.5t42.5 122.5v67zM455 250
q0 71 -46.5 119.5t-115.5 48.5t-115 -48.5t-46 -119.5t46 -119.5t115 -48.5t115.5 48.5t46.5 119.5zM298 637q28 0 46.5 20t20.5 53h67q0 -59 -37.5 -96t-96.5 -37t-96.5 37t-37.5 96h67q2 -33 20.5 -53t46.5 -20z" />
    <glyph glyph-name="Gdotaccent" unicode="&#x120;" horiz-adv-x="789" 
d="M707 536l-79 -41q-32 63 -89.5 97.5t-130.5 34.5q-111 0 -188 -81t-77 -196q0 -114 77 -195t189 -81q96 0 161 59t76 152h-254v84h348v-34q0 -148 -92.5 -247t-239.5 -99q-148 0 -252 105.5t-104 255.5q0 151 104.5 256.5t252.5 105.5q97 0 176.5 -48t121.5 -128z
M466 827q0 -23 -16.5 -39.5t-39.5 -16.5t-39.5 16.5t-16.5 39.5t16.5 39.5t39.5 16.5t39.5 -16.5t16.5 -39.5z" />
    <glyph glyph-name="gdotaccent" unicode="&#x121;" horiz-adv-x="615" 
d="M450 93q-26 -40 -71.5 -64t-96.5 -24q-100 0 -168.5 70.5t-68.5 174.5t68.5 175.5t168.5 71.5q52 0 97 -22.5t71 -61.5v73h85v-458q0 -113 -65.5 -180.5t-175.5 -67.5q-76 0 -135 32.5t-93 93.5l68 48q53 -96 160 -96q71 0 113.5 45.5t42.5 122.5v67zM455 250
q0 71 -46.5 119.5t-115.5 48.5t-115 -48.5t-46 -119.5t46 -119.5t115 -48.5t115.5 48.5t46.5 119.5zM357 630q0 -24 -17 -41t-41 -17t-41 17t-17 41t17 41t41 17t41 -17t17 -41z" />
    <glyph glyph-name="Gcommaaccent" unicode="&#x122;" horiz-adv-x="789" 
d="M707 536l-79 -41q-32 63 -89.5 97.5t-130.5 34.5q-111 0 -188 -81t-77 -196q0 -114 77 -195t189 -81q96 0 161 59t76 152h-254v84h348v-34q0 -148 -92.5 -247t-239.5 -99q-148 0 -252 105.5t-104 255.5q0 151 104.5 256.5t252.5 105.5q97 0 176.5 -48t121.5 -128z
M419 -218h-53l33 69h-2q-18 0 -31 13t-13 31q0 23 16 38t38 15q24 0 39.5 -14.5t15.5 -37.5q0 -21 -9 -41z" />
    <glyph glyph-name="gcommaaccent" unicode="&#x123;" horiz-adv-x="615" 
d="M450 93q-26 -40 -71.5 -64t-96.5 -24q-100 0 -168.5 70.5t-68.5 174.5t68.5 175.5t168.5 71.5q52 0 97 -22.5t71 -61.5v73h85v-458q0 -113 -65.5 -180.5t-175.5 -67.5q-76 0 -135 32.5t-93 93.5l68 48q53 -96 160 -96q71 0 113.5 45.5t42.5 122.5v67zM455 250
q0 71 -46.5 119.5t-115.5 48.5t-115 -48.5t-46 -119.5t46 -119.5t115 -48.5t115.5 48.5t46.5 119.5zM283 731h51l-33 -68h2q18 0 31 -13t13 -34q0 -22 -15.5 -36.5t-38.5 -14.5q-22 0 -38 15t-16 36q0 19 14 51z" />
    <glyph glyph-name="Hcircumflex" unicode="&#x124;" horiz-adv-x="734" 
d="M90 0v700h89v-295h376v295h89v-700h-89v321h-376v-321h-89zM309 756h-87l111 139h68l111 -139h-89l-57 72z" />
    <glyph glyph-name="hcircumflex" unicode="&#x125;" horiz-adv-x="590" 
d="M166 254v-254h-86v700h86v-284q51 81 155 81q92 0 144 -57t52 -155v-285h-86v275q0 66 -33.5 104t-94.5 38q-62 0 -99.5 -44.5t-37.5 -118.5zM67 756h-87l111 139h68l111 -139h-89l-57 72z" />
    <glyph glyph-name="Hbar" unicode="&#x126;" horiz-adv-x="764" 
d="M105 0v514h-78v80h78v106h89v-106h376v106h89v-106h78v-80h-78v-514h-89v321h-376v-321h-89zM194 405h376v109h-376v-109z" />
    <glyph glyph-name="hbar" unicode="&#x127;" horiz-adv-x="595" 
d="M171 254v-254h-86v558h-67v64h67v78h86v-78h211v-64h-211v-142q51 81 155 81q92 0 144 -57t52 -155v-285h-86v275q0 66 -33.5 104t-94.5 38q-62 0 -99.5 -44.5t-37.5 -118.5z" />
    <glyph glyph-name="Itilde" unicode="&#x128;" horiz-adv-x="269" 
d="M90 700h89v-700h-89v700zM-27 769q0 52 25 77.5t66 25.5q37 0 76.5 -24.5t55.5 -24.5q37 0 37 46h59q0 -53 -25 -78t-66 -25q-37 0 -76.5 24.5t-55.5 24.5q-37 0 -37 -46h-59z" />
    <glyph glyph-name="itilde" unicode="&#x129;" horiz-adv-x="246" 
d="M-40 588q0 52 25 77.5t66 25.5q37 0 76.5 -24.5t55.5 -24.5q37 0 37 46h59q0 -52 -25.5 -77.5t-65.5 -25.5q-37 0 -76.5 24.5t-55.5 24.5q-37 0 -37 -46h-59zM80 486h86v-486h-86v486z" />
    <glyph glyph-name="Imacron" unicode="&#x12a;" horiz-adv-x="269" 
d="M90 700h89v-700h-89v700zM268 780h-268v58h268v-58z" />
    <glyph glyph-name="imacron" unicode="&#x12b;" horiz-adv-x="246" 
d="M257 598h-268v58h268v-58zM80 486h86v-486h-86v486z" />
    <glyph glyph-name="Ibreve" unicode="&#x12c;" horiz-adv-x="269" 
d="M90 700h89v-700h-89v700zM134 819q28 0 46.5 20t20.5 53h67q0 -59 -37.5 -96t-96.5 -37t-96.5 37t-37.5 96h67q2 -33 20.5 -53t46.5 -20z" />
    <glyph glyph-name="ibreve" unicode="&#x12d;" horiz-adv-x="246" 
d="M123 637q28 0 46.5 20t20.5 53h67q0 -59 -37.5 -96t-96.5 -37t-96.5 37t-37.5 96h67q2 -33 20.5 -53t46.5 -20zM80 486h86v-486h-86v486z" />
    <glyph glyph-name="Iogonek" unicode="&#x12e;" horiz-adv-x="269" 
d="M90 700h89v-700q-88 -39 -88 -98q0 -45 39 -45q33 0 53 16v-61q-30 -16 -69 -16q-44 0 -69 25t-25 67q0 65 70 112v700z" />
    <glyph glyph-name="iogonek" unicode="&#x12f;" horiz-adv-x="246" 
d="M80 486h86v-486q-88 -45 -88 -98q0 -21 11 -33t29 -12q32 0 52 16v-61q-30 -16 -69 -16q-44 0 -69 25t-25 67q0 64 73 112v486zM181 630q0 -24 -17 -41t-41 -17t-41 17t-17 41t17 41t41 17t41 -17t17 -41z" />
    <glyph glyph-name="Idotaccent" unicode="&#x130;" horiz-adv-x="269" 
d="M90 700h89v-700h-89v700zM190 827q0 -23 -16.5 -39.5t-39.5 -16.5t-39.5 16.5t-16.5 39.5t16.5 39.5t39.5 16.5t39.5 -16.5t16.5 -39.5z" />
    <glyph glyph-name="dotlessi" unicode="&#x131;" horiz-adv-x="246" 
d="M80 486h86v-486h-86v486z" />
    <glyph glyph-name="IJ" unicode="&#x132;" horiz-adv-x="752" 
d="M90 700h89v-700h-89v700zM672 211q0 -103 -54.5 -162.5t-147.5 -59.5q-72 0 -125.5 37.5t-77.5 105.5l74 41q44 -101 129 -101q53 0 83 36.5t30 101.5v490h89v-489z" />
    <glyph glyph-name="ij" unicode="&#x133;" horiz-adv-x="495" 
d="M181 630q0 -24 -17 -41t-41 -17t-41 17t-17 41t17 41t41 17t41 -17t17 -41zM80 486h86v-486h-86v486zM329 -44v530h86v-530q0 -87 -40.5 -131.5t-110.5 -44.5q-31 0 -57 12v77q17 -10 49 -10q34 0 53.5 25t19.5 72zM430 630q0 -24 -17 -41t-41 -17t-41 17t-17 41t17 41
t41 17t41 -17t17 -41z" />
    <glyph glyph-name="Jcircumflex" unicode="&#x134;" horiz-adv-x="500" 
d="M420 211q0 -103 -54.5 -162.5t-147.5 -59.5q-72 0 -125.5 37.5t-77.5 105.5l74 41q44 -101 129 -101q53 0 83 36.5t30 101.5v490h89v-489zM318 756h-87l111 139h68l111 -139h-89l-57 72z" />
    <glyph glyph-name="jcircumflex" unicode="&#x135;" horiz-adv-x="249" 
d="M83 -44v530h86v-530q0 -87 -40.5 -131.5t-110.5 -44.5q-31 0 -57 12v78q18 -10 49 -10q34 0 53.5 24.5t19.5 71.5zM69 577h-87l111 139h68l111 -139h-89l-57 72z" />
    <glyph glyph-name="Kcommaaccent" unicode="&#x136;" horiz-adv-x="620" 
d="M179 700v-301l293 301h112l-307 -315l331 -385h-113l-277 326l-39 -40v-286h-89v700h89zM339 -218h-53l33 69h-2q-18 0 -31 13t-13 31q0 23 16 38t38 15q24 0 39.5 -14.5t15.5 -37.5q0 -21 -9 -41z" />
    <glyph glyph-name="kcommaaccent" unicode="&#x137;" horiz-adv-x="508" 
d="M165 700v-407l204 193h110l-221 -207l240 -279h-109l-191 226l-33 -31v-195h-85v700h85zM283 -218h-53l33 69h-2q-18 0 -31 13t-13 31q0 23 16 38t38 15q24 0 39.5 -14.5t15.5 -37.5q0 -21 -9 -41z" />
    <glyph glyph-name="kgreenlandic" unicode="&#x138;" horiz-adv-x="508" 
d="M80 486h85v-193l204 193h110l-221 -207l240 -279h-109l-191 226l-33 -31v-195h-85v486z" />
    <glyph glyph-name="Lacute" unicode="&#x139;" horiz-adv-x="449" 
d="M90 700h89v-617h250v-83h-339v700zM177 756h-84l93 139h102z" />
    <glyph glyph-name="lacute" unicode="&#x13a;" horiz-adv-x="246" 
d="M80 700h86v-700h-86v700zM166 756h-84l93 139h102z" />
    <glyph glyph-name="Lcommaaccent" unicode="&#x13b;" horiz-adv-x="449" 
d="M90 700h89v-617h250v-83h-339v700zM271 -218h-53l33 69h-2q-18 0 -31 13t-13 31q0 23 16 38t38 15q24 0 39.5 -14.5t15.5 -37.5q0 -21 -9 -41z" />
    <glyph glyph-name="lcommaaccent" unicode="&#x13c;" horiz-adv-x="246" 
d="M80 700h86v-700h-86v700zM136 -218h-53l33 69h-2q-18 0 -31 13t-13 31q0 23 16 38t38 15q24 0 39.5 -14.5t15.5 -37.5q0 -21 -9 -41z" />
    <glyph glyph-name="Lcaron" unicode="&#x13d;" horiz-adv-x="449" 
d="M90 700h89v-617h250v-83h-339v700zM336 548h-74l28 163h88z" />
    <glyph glyph-name="lcaron" unicode="&#x13e;" horiz-adv-x="246" 
d="M80 700h86v-700h-86v700zM280 548h-74l28 163h88z" />
    <glyph glyph-name="Ldot" unicode="&#x13f;" horiz-adv-x="449" 
d="M90 700h89v-617h250v-83h-339v700zM414 352q0 -24 -17 -41t-41 -17t-41 17t-17 41t17 41t41 17t41 -17t17 -41z" />
    <glyph glyph-name="ldot" unicode="&#x140;" horiz-adv-x="322" 
d="M80 700h86v-700h-86v700zM342 330q0 -24 -17 -41t-41 -17t-41 17t-17 41t17 41t41 17t41 -17t17 -41z" />
    <glyph glyph-name="Lslash" unicode="&#x141;" horiz-adv-x="464" 
d="M105 700h89v-312l163 83v-78l-163 -83v-227h250v-83h-339v265l-88 -45v78l88 45v357z" />
    <glyph glyph-name="lslash" unicode="&#x142;" horiz-adv-x="286" 
d="M100 700h86v-264l89 49v-77l-89 -49v-359h-86v312l-87 -47v77l87 47v311z" />
    <glyph glyph-name="Nacute" unicode="&#x143;" horiz-adv-x="775" 
d="M599 700h86v-700h-84l-425 565v-565h-86v700h91l418 -558v558zM439 756h-84l93 139h102z" />
    <glyph glyph-name="nacute" unicode="&#x144;" horiz-adv-x="590" 
d="M166 254v-254h-86v486h86v-70q51 81 155 81q92 0 144 -57t52 -155v-285h-86v275q0 66 -33.5 104t-94.5 38q-62 0 -99.5 -44.5t-37.5 -118.5zM330 577h-84l93 139h102z" />
    <glyph glyph-name="Ncommaaccent" unicode="&#x145;" horiz-adv-x="775" 
d="M599 700h86v-700h-84l-425 565v-565h-86v700h91l418 -558v558zM391 -218h-53l33 69h-2q-18 0 -31 13t-13 31q0 23 16 38t38 15q24 0 39.5 -14.5t15.5 -37.5q0 -21 -9 -41z" />
    <glyph glyph-name="ncommaaccent" unicode="&#x146;" horiz-adv-x="590" 
d="M166 254v-254h-86v486h86v-70q51 81 155 81q92 0 144 -57t52 -155v-285h-86v275q0 66 -33.5 104t-94.5 38q-62 0 -99.5 -44.5t-37.5 -118.5zM311 -218h-53l33 69h-2q-18 0 -31 13t-13 31q0 23 16 38t38 15q24 0 39.5 -14.5t15.5 -37.5q0 -21 -9 -41z" />
    <glyph glyph-name="Ncaron" unicode="&#x147;" horiz-adv-x="775" 
d="M599 700h86v-700h-84l-425 565v-565h-86v700h91l418 -558v558zM453 895h87l-111 -139h-68l-111 139h89l57 -72z" />
    <glyph glyph-name="ncaron" unicode="&#x148;" horiz-adv-x="590" 
d="M166 254v-254h-86v486h86v-70q51 81 155 81q92 0 144 -57t52 -155v-285h-86v275q0 66 -33.5 104t-94.5 38q-62 0 -99.5 -44.5t-37.5 -118.5zM357 716h87l-111 -139h-68l-111 139h89l57 -72z" />
    <glyph glyph-name="Eng" unicode="&#x14a;" horiz-adv-x="775" 
d="M599 700h86v-707q0 -101 -52.5 -157t-146.5 -56q-36 0 -87 15v79q42 -13 80 -13q55 0 86.5 36t31.5 102v6l-421 560v-565h-86v700h91l418 -558v558z" />
    <glyph glyph-name="eng" unicode="&#x14b;" horiz-adv-x="590" 
d="M431 275q0 66 -33.5 104t-94.5 38q-62 0 -99.5 -44.5t-37.5 -118.5v-254h-86v486h86v-70q49 81 155 81q92 0 144 -57t52 -155v-329q0 -87 -40.5 -131.5t-110.5 -44.5q-31 0 -57 12v78q17 -10 49 -10q34 0 53.5 24.5t19.5 71.5v319z" />
    <glyph glyph-name="Omacron" unicode="&#x14c;" horiz-adv-x="822" 
d="M770 350q0 -149 -105.5 -255t-253.5 -106t-253.5 106t-105.5 255q0 150 105.5 256t253.5 106t253.5 -106t105.5 -256zM679 350q0 114 -78.5 195.5t-189.5 81.5t-189.5 -81.5t-78.5 -195.5t78.5 -195t189.5 -81t189.5 81t78.5 195zM545 780h-268v58h268v-58z" />
    <glyph glyph-name="omacron" unicode="&#x14d;" horiz-adv-x="598" 
d="M299 497q109 0 181.5 -73.5t72.5 -180.5t-72.5 -180.5t-181.5 -73.5t-181.5 73.5t-72.5 180.5t72.5 180.5t181.5 73.5zM299 418q-71 0 -119 -51t-48 -124t48 -124t119 -51t119 51t48 124t-48 124t-119 51zM433 598h-268v58h268v-58z" />
    <glyph glyph-name="Obreve" unicode="&#x14e;" horiz-adv-x="822" 
d="M770 350q0 -149 -105.5 -255t-253.5 -106t-253.5 106t-105.5 255q0 150 105.5 256t253.5 106t253.5 -106t105.5 -256zM679 350q0 114 -78.5 195.5t-189.5 81.5t-189.5 -81.5t-78.5 -195.5t78.5 -195t189.5 -81t189.5 81t78.5 195zM411 819q28 0 46.5 20t20.5 53h67
q0 -59 -37.5 -96t-96.5 -37t-96.5 37t-37.5 96h67q2 -33 20.5 -53t46.5 -20z" />
    <glyph glyph-name="obreve" unicode="&#x14f;" horiz-adv-x="598" 
d="M299 497q109 0 181.5 -73.5t72.5 -180.5t-72.5 -180.5t-181.5 -73.5t-181.5 73.5t-72.5 180.5t72.5 180.5t181.5 73.5zM299 418q-71 0 -119 -51t-48 -124t48 -124t119 -51t119 51t48 124t-48 124t-119 51zM299 637q28 0 46.5 20t20.5 53h67q0 -59 -37.5 -96t-96.5 -37
t-96.5 37t-37.5 96h67q2 -33 20.5 -53t46.5 -20z" />
    <glyph glyph-name="Ohungarumlaut" unicode="&#x150;" horiz-adv-x="822" 
d="M770 350q0 -149 -105.5 -255t-253.5 -106t-253.5 106t-105.5 255q0 150 105.5 256t253.5 106t253.5 -106t105.5 -256zM679 350q0 114 -78.5 195.5t-189.5 81.5t-189.5 -81.5t-78.5 -195.5t78.5 -195t189.5 -81t189.5 81t78.5 195zM369 756h-76l85 139h93zM530 756h-76
l85 139h93z" />
    <glyph glyph-name="ohungarumlaut" unicode="&#x151;" horiz-adv-x="598" 
d="M299 497q109 0 181.5 -73.5t72.5 -180.5t-72.5 -180.5t-181.5 -73.5t-181.5 73.5t-72.5 180.5t72.5 180.5t181.5 73.5zM299 418q-71 0 -119 -51t-48 -124t48 -124t119 -51t119 51t48 124t-48 124t-119 51zM259 572h-76l85 139h93zM420 572h-76l85 139h92z" />
    <glyph glyph-name="OE" unicode="&#x152;" horiz-adv-x="975" 
d="M400 0q-146 0 -247 100.5t-101 249.5t101 249.5t247 100.5h518v-82h-300v-214h279v-81h-279v-241h302v-82h-520zM144 350q0 -113 73.5 -190t184.5 -77h127v534h-127q-111 0 -184.5 -77t-73.5 -190z" />
    <glyph glyph-name="oe" unicode="&#x153;" horiz-adv-x="974" 
d="M701 497q100 0 166.5 -72.5t66.5 -177.5l-1 -31h-384q4 -64 50.5 -107t108.5 -43q50 0 81.5 21.5t56.5 61.5l70 -36q-30 -57 -84.5 -90.5t-124.5 -33.5q-66 0 -119 30t-84 83q-32 -52 -86 -82.5t-119 -30.5q-109 0 -181.5 73.5t-72.5 180.5t72.5 180.5t181.5 73.5
q65 0 119 -30.5t87 -83.5q31 53 82 83.5t114 30.5zM299 418q-71 0 -119 -51t-48 -124t48 -124t119 -51t119 51t48 124t-48 124t-119 51zM699 422q-56 0 -99 -41.5t-49 -93.5h297q-7 58 -48.5 96.5t-100.5 38.5z" />
    <glyph glyph-name="Racute" unicode="&#x154;" horiz-adv-x="588" 
d="M179 297v-297h-89v700h205q101 0 163 -53.5t62 -148.5q0 -79 -47.5 -131t-126.5 -66l220 -301h-105l-214 297h-68zM179 618v-242h115q61 0 98.5 32.5t37.5 89.5t-37 88.5t-99 31.5h-115zM306 756h-84l93 139h102z" />
    <glyph glyph-name="racute" unicode="&#x155;" horiz-adv-x="360" 
d="M334 492v-86q-9 2 -24 2q-67 0 -106 -48.5t-39 -128.5v-231h-85v486h84v-86q16 42 58.5 68t90.5 26zM226 577h-84l93 139h102z" />
    <glyph glyph-name="Rcommaaccent" unicode="&#x156;" horiz-adv-x="588" 
d="M179 297v-297h-89v700h205q101 0 163 -53.5t62 -148.5q0 -79 -47.5 -131t-126.5 -66l220 -301h-105l-214 297h-68zM179 618v-242h115q61 0 98.5 32.5t37.5 89.5t-37 88.5t-99 31.5h-115zM330 -218h-53l33 69h-2q-18 0 -31 13t-13 31q0 23 16 38t38 15q24 0 39.5 -14.5
t15.5 -37.5q0 -21 -9 -41z" />
    <glyph glyph-name="rcommaaccent" unicode="&#x157;" horiz-adv-x="360" 
d="M334 492v-86q-9 2 -24 2q-67 0 -106 -48.5t-39 -128.5v-231h-85v486h84v-86q16 42 58.5 68t90.5 26zM136 -218h-53l33 69h-2q-18 0 -31 13t-13 31q0 23 16 38t38 15q24 0 39.5 -14.5t15.5 -37.5q0 -21 -9 -41z" />
    <glyph glyph-name="Rcaron" unicode="&#x158;" horiz-adv-x="588" 
d="M179 297v-297h-89v700h205q101 0 163 -53.5t62 -148.5q0 -79 -47.5 -131t-126.5 -66l220 -301h-105l-214 297h-68zM179 618v-242h115q61 0 98.5 32.5t37.5 89.5t-37 88.5t-99 31.5h-115zM345 895h87l-111 -139h-68l-111 139h89l57 -72z" />
    <glyph glyph-name="rcaron" unicode="&#x159;" horiz-adv-x="360" 
d="M334 492v-86q-9 2 -24 2q-67 0 -106 -48.5t-39 -128.5v-231h-85v486h84v-86q16 42 58.5 68t90.5 26zM266 716h87l-111 -139h-68l-111 139h89l57 -72z" />
    <glyph glyph-name="Sacute" unicode="&#x15a;" horiz-adv-x="542" 
d="M37 168l83 30q20 -57 61 -91t99 -34q55 0 93 31t38 84q0 79 -104 118l-82 31q-160 60 -160 188q0 84 58.5 135.5t146.5 51.5q74 0 130 -41.5t82 -115.5l-81 -34q-39 107 -132 107q-49 0 -81.5 -27t-32.5 -71q0 -71 106 -111l81 -31q160 -61 160 -194q0 -93 -64.5 -149
t-160.5 -56q-88 0 -151 47.5t-89 131.5zM307 756h-84l93 139h102z" />
    <glyph glyph-name="sacute" unicode="&#x15b;" horiz-adv-x="420" 
d="M34 121l76 29q11 -39 40.5 -62.5t67.5 -23.5q33 0 57 18.5t24 49.5q0 47 -69 70l-54 18q-125 42 -125 138q0 61 45 100t113 39q59 0 102.5 -31.5t63.5 -86.5l-75 -30q-27 74 -93 74q-30 0 -50.5 -16.5t-20.5 -42.5q0 -43 71 -68l50 -17q127 -43 127 -142q0 -64 -48 -106
t-120 -42q-67 0 -116 36t-66 96zM238 577h-84l93 139h102z" />
    <glyph glyph-name="Scircumflex" unicode="&#x15c;" horiz-adv-x="542" 
d="M37 168l83 30q20 -57 61 -91t99 -34q55 0 93 31t38 84q0 79 -104 118l-82 31q-160 60 -160 188q0 84 58.5 135.5t146.5 51.5q74 0 130 -41.5t82 -115.5l-81 -34q-39 107 -132 107q-49 0 -81.5 -27t-32.5 -71q0 -71 106 -111l81 -31q160 -61 160 -194q0 -93 -64.5 -149
t-160.5 -56q-88 0 -151 47.5t-89 131.5zM210 756h-87l111 139h68l111 -139h-89l-57 72z" />
    <glyph glyph-name="scircumflex" unicode="&#x15d;" horiz-adv-x="420" 
d="M34 121l76 29q11 -39 40.5 -62.5t67.5 -23.5q33 0 57 18.5t24 49.5q0 47 -69 70l-54 18q-125 42 -125 138q0 61 45 100t113 39q59 0 102.5 -31.5t63.5 -86.5l-75 -30q-27 74 -93 74q-30 0 -50.5 -16.5t-20.5 -42.5q0 -43 71 -68l50 -17q127 -43 127 -142q0 -64 -48 -106
t-120 -42q-67 0 -116 36t-66 96zM149 577h-87l111 139h68l111 -139h-89l-57 72z" />
    <glyph glyph-name="Scedilla" unicode="&#x15e;" horiz-adv-x="542" 
d="M298 -50q37 0 61 -23t24 -58q0 -38 -27.5 -63.5t-69.5 -25.5q-36 0 -62.5 22.5t-31.5 55.5h62q3 -10 12 -18t22 -8q16 0 26 10.5t10 25.5q0 14 -10 23.5t-25 9.5q-19 0 -31 -16l-52 30l33 77q-74 9 -126.5 55t-75.5 121l83 30q20 -57 61 -91t99 -34q55 0 93 31t38 84
q0 79 -104 118l-82 31q-160 60 -160 188q0 84 58.5 135.5t146.5 51.5q74 0 130 -41.5t82 -115.5l-81 -34q-39 107 -132 107q-49 0 -81.5 -27t-32.5 -71q0 -71 106 -111l81 -31q160 -61 160 -194q0 -87 -57.5 -142t-145.5 -62l-20 -44q6 4 19 4z" />
    <glyph glyph-name="scedilla" unicode="&#x15f;" horiz-adv-x="420" 
d="M228 -50q37 0 61 -23t24 -58q0 -38 -27.5 -63.5t-69.5 -25.5q-36 0 -62.5 22.5t-31.5 55.5h62q3 -10 12 -18t22 -8q16 0 26 10.5t10 25.5q0 14 -10 23.5t-25 9.5q-19 0 -31 -16l-52 30l34 79q-51 10 -86.5 43.5t-49.5 83.5l76 29q11 -39 40.5 -62.5t67.5 -23.5
q33 0 57 18.5t24 49.5q0 47 -69 70l-54 18q-125 42 -125 138q0 61 45 100t113 39q59 0 102.5 -31.5t63.5 -86.5l-75 -30q-27 74 -93 74q-30 0 -50.5 -16.5t-20.5 -42.5q0 -43 71 -68l50 -17q127 -43 127 -142q0 -61 -44 -102t-111 -45l-20 -44q6 4 19 4z" />
    <glyph glyph-name="Scaron" unicode="&#x160;" horiz-adv-x="542" 
d="M37 168l83 30q20 -57 61 -91t99 -34q55 0 93 31t38 84q0 79 -104 118l-82 31q-160 60 -160 188q0 84 58.5 135.5t146.5 51.5q74 0 130 -41.5t82 -115.5l-81 -34q-39 107 -132 107q-49 0 -81.5 -27t-32.5 -71q0 -71 106 -111l81 -31q160 -61 160 -194q0 -93 -64.5 -149
t-160.5 -56q-88 0 -151 47.5t-89 131.5zM326 895h87l-111 -139h-68l-111 139h89l57 -72z" />
    <glyph glyph-name="scaron" unicode="&#x161;" horiz-adv-x="420" 
d="M34 121l76 29q11 -39 40.5 -62.5t67.5 -23.5q33 0 57 18.5t24 49.5q0 47 -69 70l-54 18q-125 42 -125 138q0 61 45 100t113 39q59 0 102.5 -31.5t63.5 -86.5l-75 -30q-27 74 -93 74q-30 0 -50.5 -16.5t-20.5 -42.5q0 -43 71 -68l50 -17q127 -43 127 -142q0 -64 -48 -106
t-120 -42q-67 0 -116 36t-66 96zM267 716h87l-111 -139h-68l-111 139h89l57 -72z" />
    <glyph glyph-name="Tcommaaccent" unicode="&#x162;" horiz-adv-x="538" 
d="M20 618v82h498v-82h-204v-618h-90v618h-204zM282 -218h-53l33 69h-2q-18 0 -31 13t-13 31q0 23 16 38t38 15q24 0 39.5 -14.5t15.5 -37.5q0 -21 -9 -41z" />
    <glyph glyph-name="tcommaaccent" unicode="&#x163;" horiz-adv-x="355" 
d="M99 632h86v-146h136v-77h-136v-257q0 -43 19.5 -63t61.5 -20q32 0 55 15v-80q-28 -15 -75 -15q-69 0 -108 40t-39 111v269h-75v77h75v146zM213 -218h-53l33 69h-2q-18 0 -31 13t-13 31q0 23 16 38t38 15q24 0 39.5 -14.5t15.5 -37.5q0 -21 -9 -41z" />
    <glyph glyph-name="Tcaron" unicode="&#x164;" horiz-adv-x="538" 
d="M20 618v82h498v-82h-204v-618h-90v618h-204zM328 895h87l-111 -139h-68l-111 139h89l57 -72z" />
    <glyph glyph-name="tcaron" unicode="&#x165;" horiz-adv-x="355" 
d="M99 632h86v-146h136v-77h-136v-257q0 -43 19.5 -63t61.5 -20q32 0 55 15v-80q-28 -15 -75 -15q-69 0 -108 40t-39 111v269h-75v77h75v146zM321 548h-74l28 163h88z" />
    <glyph glyph-name="Tbar" unicode="&#x166;" horiz-adv-x="538" 
d="M20 618v82h498v-82h-204v-227h129v-81h-129v-310h-90v310h-129v81h129v227h-204z" />
    <glyph glyph-name="tbar" unicode="&#x167;" horiz-adv-x="355" 
d="M99 632h86v-146h136v-77h-136v-104h136v-75h-136v-78q0 -43 19.5 -63t61.5 -20q32 0 55 15v-80q-28 -15 -75 -15q-69 0 -108 40t-39 111v90h-69v75h69v104h-75v77h75v146z" />
    <glyph glyph-name="Utilde" unicode="&#x168;" horiz-adv-x="695" 
d="M348 -11q-127 0 -197.5 79t-70.5 211v421h89v-420q0 -95 46.5 -151t132.5 -56q85 0 131.5 56.5t46.5 150.5v420h89v-421q0 -133 -70 -211.5t-197 -78.5zM192 769q0 52 25 77.5t66 25.5q37 0 76.5 -24.5t55.5 -24.5q37 0 37 46h59q0 -53 -25.5 -78t-65.5 -25
q-37 0 -76.5 24.5t-55.5 24.5q-37 0 -37 -46h-59z" />
    <glyph glyph-name="utilde" unicode="&#x169;" horiz-adv-x="587" 
d="M421 232v254h86v-486h-86v70q-51 -81 -154 -81q-91 0 -142.5 57t-51.5 155v285h86v-275q0 -66 32.5 -104t93.5 -38q62 0 99 44.5t37 118.5zM134 588q0 52 25 77.5t66 25.5q37 0 76.5 -24.5t55.5 -24.5q37 0 37 46h59q0 -52 -25.5 -77.5t-65.5 -25.5q-37 0 -76.5 24.5
t-55.5 24.5q-37 0 -37 -46h-59z" />
    <glyph glyph-name="Umacron" unicode="&#x16a;" horiz-adv-x="695" 
d="M348 -11q-127 0 -197.5 79t-70.5 211v421h89v-420q0 -95 46.5 -151t132.5 -56q85 0 131.5 56.5t46.5 150.5v420h89v-421q0 -133 -70 -211.5t-197 -78.5zM481 780h-268v58h268v-58z" />
    <glyph glyph-name="umacron" unicode="&#x16b;" horiz-adv-x="587" 
d="M421 232v254h86v-486h-86v70q-51 -81 -154 -81q-91 0 -142.5 57t-51.5 155v285h86v-275q0 -66 32.5 -104t93.5 -38q62 0 99 44.5t37 118.5zM425 598h-268v58h268v-58z" />
    <glyph glyph-name="Ubreve" unicode="&#x16c;" horiz-adv-x="695" 
d="M348 -11q-127 0 -197.5 79t-70.5 211v421h89v-420q0 -95 46.5 -151t132.5 -56q85 0 131.5 56.5t46.5 150.5v420h89v-421q0 -133 -70 -211.5t-197 -78.5zM348 819q28 0 46.5 20t20.5 53h67q0 -59 -37.5 -96t-96.5 -37t-96.5 37t-37.5 96h67q2 -33 20.5 -53t46.5 -20z" />
    <glyph glyph-name="ubreve" unicode="&#x16d;" horiz-adv-x="587" 
d="M421 232v254h86v-486h-86v70q-51 -81 -154 -81q-91 0 -142.5 57t-51.5 155v285h86v-275q0 -66 32.5 -104t93.5 -38q62 0 99 44.5t37 118.5zM291 637q28 0 46.5 20t20.5 53h67q0 -59 -37.5 -96t-96.5 -37t-96.5 37t-37.5 96h67q2 -33 20.5 -53t46.5 -20z" />
    <glyph glyph-name="Uring" unicode="&#x16e;" horiz-adv-x="695" 
d="M348 -11q-127 0 -197.5 79t-70.5 211v421h89v-420q0 -95 46.5 -151t132.5 -56q85 0 131.5 56.5t46.5 150.5v420h89v-421q0 -133 -70 -211.5t-197 -78.5zM445 830q0 -40 -28.5 -67.5t-69.5 -27.5t-69.5 27.5t-28.5 67.5q0 41 28.5 68.5t69.5 27.5t69.5 -27.5t28.5 -68.5z
M388 830q0 18 -12 30.5t-29 12.5t-29 -12.5t-12 -30.5q0 -17 12 -29.5t29 -12.5t29 12.5t12 29.5z" />
    <glyph glyph-name="uring" unicode="&#x16f;" horiz-adv-x="587" 
d="M421 232v254h86v-486h-86v70q-51 -81 -154 -81q-91 0 -142.5 57t-51.5 155v285h86v-275q0 -66 32.5 -104t93.5 -38q62 0 99 44.5t37 118.5zM389 650q0 -41 -28.5 -68.5t-70.5 -27.5t-70.5 27.5t-28.5 68.5q0 40 29 67.5t70 27.5t70 -27.5t29 -67.5zM332 650
q0 17 -12.5 29.5t-29.5 12.5t-29.5 -12.5t-12.5 -29.5q0 -18 12.5 -30.5t29.5 -12.5t29.5 12.5t12.5 30.5z" />
    <glyph glyph-name="Uhungarumlaut" unicode="&#x170;" horiz-adv-x="695" 
d="M348 -11q-127 0 -197.5 79t-70.5 211v421h89v-420q0 -95 46.5 -151t132.5 -56q85 0 131.5 56.5t46.5 150.5v420h89v-421q0 -133 -70 -211.5t-197 -78.5zM294 756h-76l85 139h93zM455 756h-76l85 139h93z" />
    <glyph glyph-name="uhungarumlaut" unicode="&#x171;" horiz-adv-x="587" 
d="M421 232v254h86v-486h-86v70q-51 -81 -154 -81q-91 0 -142.5 57t-51.5 155v285h86v-275q0 -66 32.5 -104t93.5 -38q62 0 99 44.5t37 118.5zM240 572h-76l85 139h93zM401 572h-76l85 139h92z" />
    <glyph glyph-name="Uogonek" unicode="&#x172;" horiz-adv-x="695" 
d="M348 -11q-127 0 -197.5 79t-70.5 211v421h89v-420q0 -95 46.5 -151t132.5 -56q85 0 131.5 56.5t46.5 150.5v420h89v-421q0 -200 -151 -271q-114 -54 -114 -112q0 -38 43 -38q30 0 50 16v-62q-30 -16 -68 -16q-45 0 -71.5 23t-26.5 62q0 62 74 108h-3z" />
    <glyph glyph-name="uogonek" unicode="&#x173;" horiz-adv-x="587" 
d="M421 232v254h86v-486q-48 -21 -78.5 -48.5t-30.5 -55.5q0 -38 44 -38q30 0 49 16v-62q-30 -16 -67 -16q-45 0 -71.5 23t-26.5 62q0 71 95 119v70q-51 -81 -154 -81q-91 0 -142.5 57t-51.5 155v285h86v-275q0 -66 32.5 -104t93.5 -38q62 0 99 44.5t37 118.5z" />
    <glyph glyph-name="Wcircumflex" unicode="&#x174;" horiz-adv-x="986" 
d="M308 0h-57l-237 700h92l176 -534l184 534h55l184 -534l177 534h90l-238 -700h-57l-185 533zM435 756h-87l111 139h68l111 -139h-89l-57 72z" />
    <glyph glyph-name="wcircumflex" unicode="&#x175;" horiz-adv-x="794" 
d="M591 0h-66l-128 360l-128 -360h-66l-181 486h89l127 -364l129 364h62l129 -364l127 364h87zM342 577h-87l111 139h68l111 -139h-89l-57 72z" />
    <glyph glyph-name="Ycircumflex" unicode="&#x176;" horiz-adv-x="624" 
d="M268 312l-256 388h104l197 -306l197 306h102l-255 -388v-312h-89v312zM255 756h-87l111 139h68l111 -139h-89l-57 72z" />
    <glyph glyph-name="ycircumflex" unicode="&#x177;" horiz-adv-x="513" 
d="M495 486l-234 -560q-33 -79 -69.5 -112.5t-90.5 -33.5q-30 0 -53 10v76q22 -8 46 -8q29 0 48.5 19t39.5 66l29 70l-193 473h92l146 -375l150 375h89zM200 577h-87l111 139h68l111 -139h-89l-57 72z" />
    <glyph glyph-name="Ydieresis" unicode="&#x178;" horiz-adv-x="624" 
d="M268 312l-256 388h104l197 -306l197 306h102l-255 -388v-312h-89v312zM275 826q0 -22 -15.5 -37.5t-37.5 -15.5q-21 0 -36.5 15.5t-15.5 37.5q0 21 15.5 36.5t36.5 15.5q22 0 37.5 -15.5t15.5 -36.5zM456 826q0 -22 -15.5 -37.5t-37.5 -15.5q-21 0 -36.5 15.5t-15.5 37.5
q0 21 15.5 36.5t36.5 15.5q22 0 37.5 -15.5t15.5 -36.5z" />
    <glyph glyph-name="Zacute" unicode="&#x179;" horiz-adv-x="607" 
d="M569 646l-412 -565h415v-81h-537v54l411 565h-385v81h508v-54zM347 756h-84l93 139h102z" />
    <glyph glyph-name="zacute" unicode="&#x17a;" horiz-adv-x="450" 
d="M44 411v75h376v-51l-281 -360h285v-75h-398v53l279 358h-261zM269 577h-84l93 139h102z" />
    <glyph glyph-name="Zdotaccent" unicode="&#x17b;" horiz-adv-x="607" 
d="M569 646l-412 -565h415v-81h-537v54l411 565h-385v81h508v-54zM381 827q0 -23 -16.5 -39.5t-39.5 -16.5t-39.5 16.5t-16.5 39.5t16.5 39.5t39.5 16.5t39.5 -16.5t16.5 -39.5z" />
    <glyph glyph-name="zdotaccent" unicode="&#x17c;" horiz-adv-x="450" 
d="M44 411v75h376v-51l-281 -360h285v-75h-398v53l279 358h-261zM301 630q0 -24 -17 -41t-41 -17t-41 17t-17 41t17 41t41 17t41 -17t17 -41z" />
    <glyph glyph-name="Zcaron" unicode="&#x17d;" horiz-adv-x="607" 
d="M569 646l-412 -565h415v-81h-537v54l411 565h-385v81h508v-54zM382 895h87l-111 -139h-68l-111 139h89l57 -72z" />
    <glyph glyph-name="zcaron" unicode="&#x17e;" horiz-adv-x="450" 
d="M44 411v75h376v-51l-281 -360h285v-75h-398v53l279 358h-261zM301 716h87l-111 -139h-68l-111 139h89l57 -72z" />
    <glyph glyph-name="florin" unicode="&#x192;" horiz-adv-x="528" 
d="M112 328v77h116l26 146q15 82 61.5 125t119.5 43q42 0 73 -13v-81q-30 14 -65 14q-87 0 -104 -95l-25 -139h131v-77h-144l-57 -327q-14 -82 -60.5 -125t-120.5 -43q-42 0 -73 13v81q30 -14 65 -14q87 0 104 95l56 320h-103z" />
    <glyph glyph-name="AEacute" unicode="&#x1fc;" horiz-adv-x="936" 
d="M490 0v201h-253l-126 -201h-100l444 700h424v-82h-300v-214h279v-81h-279v-241h302v-82h-391zM287 282h203v327zM619 756h-84l93 139h102z" />
    <glyph glyph-name="aeacute" unicode="&#x1fd;" horiz-adv-x="866" 
d="M263 421q-87 0 -113 -86l-81 23q18 64 70 101.5t123 37.5q117 0 161 -85q69 85 175 85q98 0 163 -72.5t65 -177.5l-1 -31h-376q4 -64 49.5 -107t106.5 -43q48 0 78.5 21t54.5 62l70 -36q-30 -57 -83 -90.5t-121 -33.5q-128 0 -196 105q-66 -105 -203 -105
q-67 0 -110 39.5t-43 99.5q0 65 42.5 105t125.5 51l145 18v25q0 44 -27.5 69t-74.5 25zM596 422q-54 0 -97 -41.5t-48 -93.5h289q-7 58 -47 96.5t-97 38.5zM139 133q0 -31 23 -49.5t59 -18.5q63 0 104 43t41 105v16l-132 -17q-45 -6 -70 -27t-25 -52zM484 577h-84l93 139
h102z" />
    <glyph glyph-name="Oslashacute" unicode="&#x1fe;" horiz-adv-x="822" 
d="M770 350q0 -149 -105.5 -255t-253.5 -106q-121 0 -216 73l-75 -81l-61 57l77 81q-84 100 -84 231q0 150 105.5 256t253.5 106q119 0 217 -74l76 80l57 -53l-77 -82q86 -102 86 -233zM679 350q0 93 -56 168l-368 -393q70 -51 156 -51q111 0 189.5 81t78.5 195zM143 350
q0 -92 54 -167l371 391q-71 53 -157 53q-111 0 -189.5 -81.5t-78.5 -195.5zM446 756h-84l93 139h102z" />
    <glyph glyph-name="oslashacute" unicode="&#x1ff;" horiz-adv-x="602" 
d="M495 501l55 -54l-46 -49q51 -69 51 -155q0 -107 -72.5 -180.5t-181.5 -73.5q-83 0 -146 44l-48 -50l-55 54l47 49q-52 68 -52 157q0 107 72.5 180.5t181.5 73.5q81 0 147 -45zM301 418q-71 0 -119 -51t-48 -124q0 -52 25 -94l231 242q-40 27 -89 27zM468 243q0 50 -25 92
l-231 -242q41 -25 89 -25q71 0 119 51t48 124zM337 577h-84l93 139h102z" />
    <glyph glyph-name="Scommaaccent" unicode="&#x218;" horiz-adv-x="542" 
d="M37 168l83 30q20 -57 61 -91t99 -34q55 0 93 31t38 84q0 79 -104 118l-82 31q-160 60 -160 188q0 84 58.5 135.5t146.5 51.5q74 0 130 -41.5t82 -115.5l-81 -34q-39 107 -132 107q-49 0 -81.5 -27t-32.5 -71q0 -71 106 -111l81 -31q160 -61 160 -194q0 -93 -64.5 -149
t-160.5 -56q-88 0 -151 47.5t-89 131.5zM289 -218h-53l33 69h-2q-18 0 -31 13t-13 31q0 23 16 38t38 15q24 0 39.5 -14.5t15.5 -37.5q0 -21 -9 -41z" />
    <glyph glyph-name="scommaaccent" unicode="&#x219;" horiz-adv-x="420" 
d="M34 121l76 29q11 -39 40.5 -62.5t67.5 -23.5q33 0 57 18.5t24 49.5q0 47 -69 70l-54 18q-125 42 -125 138q0 61 45 100t113 39q59 0 102.5 -31.5t63.5 -86.5l-75 -30q-27 74 -93 74q-30 0 -50.5 -16.5t-20.5 -42.5q0 -43 71 -68l50 -17q127 -43 127 -142q0 -64 -48 -106
t-120 -42q-67 0 -116 36t-66 96zM227 -218h-53l33 69h-2q-18 0 -31 13t-13 31q0 23 16 38t38 15q24 0 39.5 -14.5t15.5 -37.5q0 -21 -9 -41z" />
    <glyph glyph-name="dotlessj" unicode="&#x237;" horiz-adv-x="249" 
d="M83 -44v530h86v-530q0 -87 -40.5 -131.5t-110.5 -44.5q-31 0 -57 12v78q18 -10 49 -10q34 0 53.5 24.5t19.5 71.5z" />
    <glyph glyph-name="circumflex" unicode="&#x2c6;" horiz-adv-x="500" 
d="M192 577h-87l111 139h68l111 -139h-89l-57 72z" />
    <glyph glyph-name="caron" unicode="&#x2c7;" horiz-adv-x="500" 
d="M308 716h87l-111 -139h-68l-111 139h89l57 -72z" />
    <glyph glyph-name="breve" unicode="&#x2d8;" horiz-adv-x="500" 
d="M250 637q28 0 46.5 20t20.5 53h67q0 -59 -37.5 -96t-96.5 -37t-96.5 37t-37.5 96h67q2 -33 20.5 -53t46.5 -20z" />
    <glyph glyph-name="dotaccent" unicode="&#x2d9;" horiz-adv-x="500" 
d="M308 630q0 -24 -17 -41t-41 -17t-41 17t-17 41t17 41t41 17t41 -17t17 -41z" />
    <glyph glyph-name="ring" unicode="&#x2da;" horiz-adv-x="500" 
d="M349 650q0 -41 -28.5 -68.5t-70.5 -27.5t-70.5 27.5t-28.5 68.5q0 40 29 67.5t70 27.5t70 -27.5t29 -67.5zM292 650q0 17 -12.5 29.5t-29.5 12.5t-29.5 -12.5t-12.5 -29.5q0 -18 12.5 -30.5t29.5 -12.5t29.5 12.5t12.5 30.5z" />
    <glyph glyph-name="ogonek" unicode="&#x2db;" horiz-adv-x="500" 
d="M255 0h85q-48 -21 -77.5 -48t-29.5 -56q0 -38 44 -38q29 0 49 16v-62q-30 -16 -68 -16q-45 0 -71 23t-26 62q0 71 94 119z" />
    <glyph glyph-name="tilde" unicode="&#x2dc;" horiz-adv-x="500" 
d="M90 588q0 52 25 77.5t66 25.5q37 0 76.5 -24.5t55.5 -24.5q37 0 37 46h59q0 -52 -25.5 -77.5t-65.5 -25.5q-37 0 -76.5 24.5t-55.5 24.5q-37 0 -37 -46h-59z" />
    <glyph glyph-name="hungarumlaut" unicode="&#x2dd;" horiz-adv-x="500" 
d="M157 572h-76l85 139h93zM318 572h-76l85 139h92z" />
    <glyph glyph-name="uni0312" unicode="&#x312;" horiz-adv-x="500" 
d="M240 731h51l-33 -68h2q18 0 31 -13t13 -34q0 -22 -15.5 -36.5t-38.5 -14.5q-22 0 -38 15t-16 36q0 19 14 51z" />
    <glyph glyph-name="mu" unicode="&#x3bc;" horiz-adv-x="594" 
d="M428 232v254h86v-486h-86v70q-51 -81 -154 -81q-63 0 -108 31v-228h-86v694h86v-275q0 -66 32.5 -104t93.5 -38q62 0 99 44.5t37 118.5z" />
    <glyph glyph-name="pi" unicode="&#x3c0;" horiz-adv-x="596" 
d="M25 406v80h546v-80h-85v-406h-86v406h-204v-406h-86v406h-85z" />
    <glyph glyph-name="Wgrave" unicode="&#x1e80;" horiz-adv-x="986" 
d="M308 0h-57l-237 700h92l176 -534l184 534h55l184 -534l177 534h90l-238 -700h-57l-185 533zM536 756h-83l-112 139h103z" />
    <glyph glyph-name="wgrave" unicode="&#x1e81;" horiz-adv-x="794" 
d="M591 0h-66l-128 360l-128 -360h-66l-181 486h89l127 -364l129 364h62l129 -364l127 364h87zM438 577h-83l-112 139h103z" />
    <glyph glyph-name="Wacute" unicode="&#x1e82;" horiz-adv-x="986" 
d="M308 0h-57l-237 700h92l176 -534l184 534h55l184 -534l177 534h90l-238 -700h-57l-185 533zM535 756h-84l93 139h102z" />
    <glyph glyph-name="wacute" unicode="&#x1e83;" horiz-adv-x="794" 
d="M591 0h-66l-128 360l-128 -360h-66l-181 486h89l127 -364l129 364h62l129 -364l127 364h87zM444 577h-84l93 139h102z" />
    <glyph glyph-name="Wdieresis" unicode="&#x1e84;" horiz-adv-x="986" 
d="M308 0h-57l-237 700h92l176 -534l184 534h55l184 -534l177 534h90l-238 -700h-57l-185 533zM457 826q0 -22 -15.5 -37.5t-37.5 -15.5q-21 0 -36.5 15.5t-15.5 37.5q0 21 15.5 36.5t36.5 15.5q22 0 37.5 -15.5t15.5 -36.5zM638 826q0 -22 -15.5 -37.5t-37.5 -15.5
q-21 0 -36.5 15.5t-15.5 37.5q0 21 15.5 36.5t36.5 15.5q22 0 37.5 -15.5t15.5 -36.5z" />
    <glyph glyph-name="wdieresis" unicode="&#x1e85;" horiz-adv-x="794" 
d="M591 0h-66l-128 360l-128 -360h-66l-181 486h89l127 -364l129 364h62l129 -364l127 364h87zM360 628q0 -22 -15.5 -37.5t-37.5 -15.5q-21 0 -36.5 15.5t-15.5 37.5q0 21 15.5 36.5t36.5 15.5q22 0 37.5 -15.5t15.5 -36.5zM541 628q0 -22 -15.5 -37.5t-37.5 -15.5
q-21 0 -36.5 15.5t-15.5 37.5q0 21 15.5 36.5t36.5 15.5q22 0 37.5 -15.5t15.5 -36.5z" />
    <glyph glyph-name="Ygrave" unicode="&#x1ef2;" horiz-adv-x="624" 
d="M268 312l-256 388h104l197 -306l197 306h102l-255 -388v-312h-89v312zM359 756h-83l-112 139h103z" />
    <glyph glyph-name="ygrave" unicode="&#x1ef3;" horiz-adv-x="513" 
d="M495 486l-234 -560q-33 -79 -69.5 -112.5t-90.5 -33.5q-30 0 -53 10v76q22 -8 46 -8q29 0 48.5 19t39.5 66l29 70l-193 473h92l146 -375l150 375h89zM306 577h-83l-112 139h103z" />
    <glyph glyph-name="thinspace" unicode="&#x2009;" horiz-adv-x="115" 
 />
    <glyph glyph-name="figuredash" unicode="&#x2012;" 
d="M60 227v72h480v-72h-480z" />
    <glyph glyph-name="endash" unicode="&#x2013;" horiz-adv-x="563" 
d="M60 227v72h443v-72h-443z" />
    <glyph glyph-name="emdash" unicode="&#x2014;" horiz-adv-x="863" 
d="M60 227v72h743v-72h-743z" />
    <glyph glyph-name="quoteleft" unicode="&#x2018;" horiz-adv-x="202" 
d="M100 700h57l-47 -98h2q20 0 35 -15.5t15 -37.5q0 -25 -17.5 -41.5t-43.5 -16.5q-25 0 -43 17t-18 41q0 21 16 57z" />
    <glyph glyph-name="quoteright" unicode="&#x2019;" horiz-adv-x="202" 
d="M102 503h-57l46 98h-1q-20 0 -35 15.5t-15 37.5q0 25 17.5 41.5t43.5 16.5q25 0 43 -17t18 -41q0 -21 -16 -57z" />
    <glyph glyph-name="quotesinglbase" unicode="&#x201a;" horiz-adv-x="202" 
d="M102 -100h-57l46 98h-1q-20 0 -35 15.5t-15 37.5q0 25 17.5 41.5t43.5 16.5q25 0 43 -17t18 -41q0 -21 -16 -57z" />
    <glyph glyph-name="quotedblleft" unicode="&#x201c;" horiz-adv-x="364" 
d="M100 700h57l-47 -98h2q20 0 35 -15.5t15 -37.5q0 -25 -17.5 -41.5t-43.5 -16.5q-25 0 -43 17t-18 41q0 21 16 57zM262 700h57l-47 -98h2q20 0 35 -15.5t15 -37.5q0 -25 -17.5 -41.5t-43.5 -16.5q-25 0 -43 17t-18 41q0 21 16 57z" />
    <glyph glyph-name="quotedblright" unicode="&#x201d;" horiz-adv-x="364" 
d="M102 503h-57l46 98h-1q-20 0 -35 15.5t-15 37.5q0 25 17.5 41.5t43.5 16.5q25 0 43 -17t18 -41q0 -21 -16 -57zM264 503h-57l46 98h-1q-20 0 -35 15.5t-15 37.5q0 25 17.5 41.5t43.5 16.5q25 0 43 -17t18 -41q0 -21 -16 -57z" />
    <glyph glyph-name="quotedblbase" unicode="&#x201e;" horiz-adv-x="364" 
d="M102 -100h-57l46 98h-1q-20 0 -35 15.5t-15 37.5q0 25 17.5 41.5t43.5 16.5q25 0 43 -17t18 -41q0 -21 -16 -57zM264 -100h-57l46 98h-1q-20 0 -35 15.5t-15 37.5q0 25 17.5 41.5t43.5 16.5q25 0 43 -17t18 -41q0 -21 -16 -57z" />
    <glyph glyph-name="dagger" unicode="&#x2020;" horiz-adv-x="455" 
d="M40 382v76h145v242h85v-242h145v-76h-145v-490h-85v490h-145z" />
    <glyph glyph-name="daggerdbl" unicode="&#x2021;" horiz-adv-x="455" 
d="M40 403v76h145v221h85v-221h145v-76h-145v-205h145v-76h-145v-230h-85v230h-145v76h145v205h-145z" />
    <glyph glyph-name="bullet" unicode="&#x2022;" horiz-adv-x="286" 
d="M55 263q0 35 26.5 61t61.5 26q36 0 62 -26t26 -61t-26 -60.5t-62 -25.5q-35 0 -61.5 26t-26.5 60z" />
    <glyph glyph-name="ellipsis" unicode="&#x2026;" horiz-adv-x="837" 
d="M187 52q0 -25 -17.5 -43t-43.5 -18t-43.5 17.5t-17.5 43.5q0 25 17.5 42.5t43.5 17.5t43.5 -17.5t17.5 -42.5zM772 52q0 -25 -17.5 -43t-43.5 -18q-25 0 -43 17.5t-18 43.5q0 25 17.5 42.5t43.5 17.5t43.5 -17.5t17.5 -42.5zM479 52q0 -25 -17.5 -43t-43.5 -18
q-25 0 -42.5 18t-17.5 43t17.5 42.5t42.5 17.5q26 0 43.5 -17.5t17.5 -42.5z" />
    <glyph glyph-name="perthousand" unicode="&#x2030;" horiz-adv-x="1202" 
d="M710 687l-507 -687h-101l507 687h101zM443 152q0 67 47.5 113t116.5 46t116.5 -46t47.5 -113t-47.5 -113t-116.5 -46t-116.5 46t-47.5 113zM40 535q0 67 47.5 113t116.5 46t116.5 -46t47.5 -113t-47.5 -113t-116.5 -46t-116.5 46t-47.5 113zM121 535q0 -36 24 -60t59 -24
t59 24t24 60t-24 60t-59 24t-59 -24t-24 -60zM524 152q0 -36 24 -60t59 -24t59 24t24 60t-24 60t-59 24t-59 -24t-24 -60zM834 152q0 67 47.5 113t116.5 46t116.5 -46t47.5 -113t-47.5 -113t-116.5 -46t-116.5 46t-47.5 113zM915 152q0 -36 24 -60t59 -24t59 24t24 60
t-24 60t-59 24t-59 -24t-24 -60z" />
    <glyph glyph-name="guilsinglleft" unicode="&#x2039;" horiz-adv-x="292" 
d="M172 60l-132 202l133 202h88l-132 -202l133 -202h-90z" />
    <glyph glyph-name="guilsinglright" unicode="&#x203a;" horiz-adv-x="291" 
d="M119 464l132 -202l-133 -202h-87l132 202l-133 202h89z" />
    <glyph glyph-name="fraction" unicode="&#x2044;" horiz-adv-x="192" 
d="M395 687l-507 -687h-91l507 687h91z" />
    <glyph glyph-name="uni2070" unicode="&#x2070;" horiz-adv-x="369" 
d="M334 493q0 -95 -39.5 -148t-110.5 -53q-70 0 -109.5 53t-39.5 148t39.5 148t109.5 53q71 0 110.5 -53t39.5 -148zM263 493q0 64 -20.5 99.5t-58.5 35.5q-37 0 -57.5 -35t-20.5 -100t20.5 -100t57.5 -35q38 0 58.5 35.5t20.5 99.5z" />
    <glyph glyph-name="uni2074" unicode="&#x2074;" horiz-adv-x="345" 
d="M281 687v-242h49v-62h-49v-84h-69v84h-192v52l177 252h84zM212 604l-112 -159h112v159z" />
    <glyph glyph-name="uni2075" unicode="&#x2075;" horiz-adv-x="343" 
d="M108 470l-65 14l27 203h220v-62h-166l-12 -91q27 28 79 28q54 0 90.5 -37t36.5 -92q0 -60 -41.5 -100.5t-103.5 -40.5q-61 0 -100 34.5t-41 89.5h70q2 -26 22 -42.5t49 -16.5q32 0 53.5 21t21.5 52t-21.5 51.5t-54.5 20.5q-40 0 -64 -32z" />
    <glyph glyph-name="uni2076" unicode="&#x2076;" horiz-adv-x="355" 
d="M326 432q0 -59 -42 -99.5t-105 -40.5t-104.5 40.5t-41.5 101.5q0 52 41 114l91 139h82l-92 -132q18 8 39 8q56 0 94 -37t38 -94zM256 430q0 32 -22 53t-55 21q-32 0 -54.5 -21t-22.5 -52t22.5 -52.5t54.5 -21.5t54.5 21t22.5 52z" />
    <glyph glyph-name="uni2077" unicode="&#x2077;" horiz-adv-x="323" 
d="M136 299h-80l163 323h-194v65h277v-52z" />
    <glyph glyph-name="uni2078" unicode="&#x2078;" horiz-adv-x="343" 
d="M171 292q-60 0 -100.5 34t-40.5 85q0 33 18.5 59t50.5 38q-53 25 -53 80q0 45 36 75.5t89 30.5q54 0 90 -30.5t36 -75.5q0 -55 -53 -80q32 -12 50.5 -38t18.5 -59q0 -51 -40.5 -85t-101.5 -34zM171 354q31 0 51.5 17.5t20.5 43.5t-20.5 43.5t-51.5 17.5t-51 -17.5
t-20 -43.5t20 -43.5t51 -17.5zM171 533q26 0 43 14t17 36t-17 36.5t-43 14.5q-25 0 -42 -14.5t-17 -36.5t16.5 -36t42.5 -14z" />
    <glyph glyph-name="uni2079" unicode="&#x2079;" horiz-adv-x="355" 
d="M29 554q0 59 42 99.5t104 40.5q64 0 105.5 -40.5t41.5 -101.5q0 -52 -41 -114l-92 -139h-81l92 132q-18 -8 -39 -8q-56 0 -94 37t-38 94zM99 556q0 -31 22 -52.5t54 -21.5t55 21t23 52t-23 52.5t-55 21.5t-54 -21t-22 -52z" />
    <glyph glyph-name="uni207A" unicode="&#x207a;" horiz-adv-x="343" 
d="M40 462v62h101v101h61v-101h101v-62h-101v-101h-61v101h-101z" />
    <glyph glyph-name="uni207B" unicode="&#x207b;" horiz-adv-x="343" 
d="M40 462v62h263v-62h-263z" />
    <glyph glyph-name="uni207C" unicode="&#x207c;" horiz-adv-x="343" 
d="M40 403v61h263v-61h-263zM40 523v61h263v-61h-263z" />
    <glyph glyph-name="uni207D" unicode="&#x207d;" horiz-adv-x="212" 
d="M35 493q0 140 94 237h63q-90 -111 -90 -237q0 -127 90 -238h-63q-46 47 -70 110t-24 128z" />
    <glyph glyph-name="uni207E" unicode="&#x207e;" horiz-adv-x="212" 
d="M177 493q0 -65 -24 -128t-70 -110h-63q90 111 90 238q0 126 -90 237h63q94 -97 94 -237z" />
    <glyph glyph-name="n.superior" unicode="&#x207f;" horiz-adv-x="468" 
d="M141 491v-192h-73v366h73v-52q38 60 117 60q69 0 108 -42.5t39 -114.5v-217h-73v206q0 47 -24 74t-68 27q-45 0 -72 -31.5t-27 -83.5z" />
    <glyph glyph-name="uni2080" unicode="&#x2080;" horiz-adv-x="369" 
d="M334 194q0 -95 -39.5 -148t-110.5 -53q-70 0 -109.5 53t-39.5 148t39.5 148t109.5 53q71 0 110.5 -53t39.5 -148zM263 194q0 64 -20.5 99.5t-58.5 35.5q-37 0 -57.5 -35t-20.5 -100t20.5 -100t57.5 -35q38 0 58.5 35.5t20.5 99.5z" />
    <glyph glyph-name="uni2081" unicode="&#x2081;" horiz-adv-x="229" 
d="M166 0h-71v321h-68v67h139v-388z" />
    <glyph glyph-name="uni2082" unicode="&#x2082;" horiz-adv-x="334" 
d="M309 64v-64h-278v56l147 123q56 47 56 89q0 28 -17.5 45t-46.5 17t-48 -21.5t-19 -53.5h-70q0 62 38.5 101t98.5 39q59 0 97 -34.5t38 -88.5q0 -71 -88 -143l-80 -65h172z" />
    <glyph glyph-name="uni2083" unicode="&#x2083;" horiz-adv-x="336" 
d="M148 231h20q25 0 43 15t18 36t-16.5 35.5t-41.5 14.5q-27 0 -44.5 -16.5t-17.5 -40.5h-68q0 53 37 86.5t94 33.5q55 0 90.5 -30t35.5 -75q0 -55 -52 -83q68 -24 68 -94q0 -52 -40 -86t-101 -34q-62 0 -101.5 35.5t-39.5 92.5h70q1 -28 20.5 -45.5t51.5 -17.5
q31 0 50.5 16t19.5 42q0 27 -20.5 42.5t-55.5 15.5h-20v57z" />
    <glyph glyph-name="uni2084" unicode="&#x2084;" horiz-adv-x="345" 
d="M281 388v-242h49v-62h-49v-84h-69v84h-192v52l177 252h84zM212 305l-112 -159h112v159z" />
    <glyph glyph-name="uni2085" unicode="&#x2085;" horiz-adv-x="343" 
d="M108 171l-65 14l27 203h220v-62h-166l-12 -91q27 28 79 28q54 0 90.5 -37t36.5 -92q0 -60 -41.5 -100.5t-103.5 -40.5q-61 0 -100 34.5t-41 89.5h70q2 -26 22 -42.5t49 -16.5q32 0 53.5 21t21.5 52t-21.5 51.5t-54.5 20.5q-40 0 -64 -32z" />
    <glyph glyph-name="uni2086" unicode="&#x2086;" horiz-adv-x="355" 
d="M326 133q0 -59 -42 -99.5t-105 -40.5t-104.5 40.5t-41.5 101.5q0 53 41 114l91 139h82l-92 -132q18 8 39 8q56 0 94 -37t38 -94zM256 131q0 32 -22 53t-55 21q-32 0 -54.5 -21t-22.5 -52t22.5 -52.5t54.5 -21.5t54.5 21t22.5 52z" />
    <glyph glyph-name="uni2087" unicode="&#x2087;" horiz-adv-x="323" 
d="M136 0h-80l163 323h-194v65h277v-52z" />
    <glyph glyph-name="uni2088" unicode="&#x2088;" horiz-adv-x="343" 
d="M171 -7q-60 0 -100.5 34t-40.5 85q0 33 18.5 59t50.5 38q-53 25 -53 80q0 45 36 75.5t89 30.5q54 0 90 -30.5t36 -75.5q0 -55 -53 -80q32 -12 50.5 -38t18.5 -59q0 -51 -40.5 -85t-101.5 -34zM171 55q31 0 51.5 17.5t20.5 43.5t-20.5 43.5t-51.5 17.5t-51 -17.5
t-20 -43.5t20 -43.5t51 -17.5zM171 234q26 0 43 14t17 36t-17 36.5t-43 14.5q-25 0 -42 -14.5t-17 -36.5t16.5 -36t42.5 -14z" />
    <glyph glyph-name="uni2089" unicode="&#x2089;" horiz-adv-x="355" 
d="M29 255q0 59 42 99.5t104 40.5q64 0 105.5 -40.5t41.5 -101.5q0 -53 -41 -114l-92 -139h-81l92 132q-18 -8 -39 -8q-56 0 -94 37t-38 94zM99 257q0 -31 22 -52.5t54 -21.5t55 21t23 52t-23 52.5t-55 21.5t-54 -21t-22 -52z" />
    <glyph glyph-name="uni208A" unicode="&#x208a;" horiz-adv-x="343" 
d="M40 163v62h101v101h61v-101h101v-62h-101v-101h-61v101h-101z" />
    <glyph glyph-name="uni208B" unicode="&#x208b;" horiz-adv-x="343" 
d="M40 163v62h263v-62h-263z" />
    <glyph glyph-name="uni208C" unicode="&#x208c;" horiz-adv-x="343" 
d="M40 104v61h263v-61h-263zM40 224v61h263v-61h-263z" />
    <glyph glyph-name="uni208D" unicode="&#x208d;" horiz-adv-x="212" 
d="M35 194q0 140 94 237h63q-90 -111 -90 -237q0 -127 90 -238h-63q-46 47 -70 110t-24 128z" />
    <glyph glyph-name="uni208E" unicode="&#x208e;" horiz-adv-x="212" 
d="M177 194q0 -65 -24 -128t-70 -110h-63q90 111 90 238q0 126 -90 237h63q94 -97 94 -237z" />
    <glyph glyph-name="Euro" unicode="&#x20ac;" 
d="M437 314v-69h-242q25 -74 83 -119t131 -45q71 0 148 40v-86q-70 -34 -153 -34q-109 0 -191 67t-110 177h-87v69h76q-1 10 -1 30q0 19 1 29h-76v69h87q27 110 109.5 177.5t191.5 67.5q83 0 153 -34v-86q-77 40 -148 40q-73 0 -131 -45.5t-83 -119.5h241v-69h-256
q-1 -10 -1 -29q0 -20 1 -30h257z" />
    <glyph glyph-name="afii61289" unicode="&#x2113;" horiz-adv-x="408" 
d="M35 272q35 9 73 29v235q0 77 35.5 119t98.5 42q58 0 94.5 -38.5t36.5 -102.5q0 -87 -47.5 -163.5t-131.5 -131.5v-109q0 -83 80 -83q36 0 57 15v-80q-28 -15 -73 -15q-71 0 -110.5 41t-39.5 115v71q-29 -13 -73 -25v81zM194 539v-178q95 88 95 191q0 66 -46 66
q-49 0 -49 -79z" />
    <glyph glyph-name="trademark" unicode="&#x2122;" horiz-adv-x="797" 
d="M660 700h77v-342h-63v235l-108 -235h-43l-108 234v-234h-63v342h79l115 -251zM22 638v62h266v-62h-101v-280h-65v280h-100z" />
    <glyph glyph-name="ohm" unicode="&#x2126;" horiz-adv-x="803" 
d="M452 0v65q85 20 141.5 104.5t56.5 193.5q0 106 -72.5 181t-175.5 75t-175.5 -75t-72.5 -181q0 -109 56.5 -193.5t141.5 -104.5v-65h-297v83h131q-54 44 -88.5 123t-34.5 164q0 138 99.5 236t239.5 98t239.5 -98t99.5 -236q0 -85 -35 -164t-89 -123h131v-83h-296z" />
    <glyph glyph-name="estimated" unicode="&#x212e;" horiz-adv-x="776" 
d="M176 329v-203q85 -96 213 -96q79 0 146.5 40.5t105.5 108.5h52q-41 -85 -124 -137.5t-180 -52.5q-143 0 -240 100t-97 243t96.5 243t240.5 100q143 0 239 -100.5t96 -245.5h-548zM389 634q-129 0 -213 -94v-170h420v174q-83 90 -207 90z" />
    <glyph glyph-name="uni2153" unicode="&#x2153;" horiz-adv-x="782" 
d="M644 687l-507 -687h-91l507 687h91zM594 231h20q25 0 43 15t18 36t-16.5 35.5t-41.5 14.5q-27 0 -44.5 -16.5t-17.5 -40.5h-68q0 53 37 86.5t94 33.5q55 0 90.5 -30t35.5 -75q0 -55 -52 -83q68 -24 68 -94q0 -52 -40 -86t-101 -34q-62 0 -101.5 35.5t-39.5 92.5h70
q1 -28 20.5 -45.5t51.5 -17.5q31 0 50.5 16t19.5 42q0 27 -20.5 42.5t-55.5 15.5h-20v57zM166 299h-71v321h-68v67h139v-388z" />
    <glyph glyph-name="uni2154" unicode="&#x2154;" horiz-adv-x="902" 
d="M309 363v-64h-278v56l147 123q56 47 56 89q0 28 -17.5 45t-46.5 17t-48 -21.5t-19 -53.5h-70q0 62 38.5 101t98.5 39q59 0 97 -34.5t38 -88.5q0 -71 -88 -143l-80 -65h172zM764 687l-507 -687h-91l507 687h91zM714 231h20q25 0 43 15t18 36t-16.5 35.5t-41.5 14.5
q-27 0 -44.5 -16.5t-17.5 -40.5h-68q0 53 37 86.5t94 33.5q55 0 90.5 -30t35.5 -75q0 -55 -52 -83q68 -24 68 -94q0 -52 -40 -86t-101 -34q-62 0 -101.5 35.5t-39.5 92.5h70q1 -28 20.5 -45.5t51.5 -17.5q31 0 50.5 16t19.5 42q0 27 -20.5 42.5t-55.5 15.5h-20v57z" />
    <glyph glyph-name="uni2155" unicode="&#x2155;" horiz-adv-x="789" 
d="M644 687l-507 -687h-91l507 687h91zM554 171l-65 14l27 203h220v-62h-166l-12 -91q27 28 79 28q54 0 90.5 -37t36.5 -92q0 -60 -41.5 -100.5t-103.5 -40.5q-61 0 -100 34.5t-41 89.5h70q2 -26 22 -42.5t49 -16.5q32 0 53.5 21t21.5 52t-21.5 51.5t-54.5 20.5
q-40 0 -64 -32zM166 299h-71v321h-68v67h139v-388z" />
    <glyph glyph-name="uni2156" unicode="&#x2156;" horiz-adv-x="909" 
d="M309 363v-64h-278v56l147 123q56 47 56 89q0 28 -17.5 45t-46.5 17t-48 -21.5t-19 -53.5h-70q0 62 38.5 101t98.5 39q59 0 97 -34.5t38 -88.5q0 -71 -88 -143l-80 -65h172zM764 687l-507 -687h-91l507 687h91zM674 171l-65 14l27 203h220v-62h-166l-12 -91q27 28 79 28
q54 0 90.5 -37t36.5 -92q0 -60 -41.5 -100.5t-103.5 -40.5q-61 0 -100 34.5t-41 89.5h70q2 -26 22 -42.5t49 -16.5q32 0 53.5 21t21.5 52t-21.5 51.5t-54.5 20.5q-40 0 -64 -32z" />
    <glyph glyph-name="uni2157" unicode="&#x2157;" horiz-adv-x="881" 
d="M148 530h20q25 0 43 15t18 36t-16.5 35.5t-41.5 14.5q-27 0 -44.5 -16.5t-17.5 -40.5h-68q0 53 37 86.5t94 33.5q55 0 90.5 -30t35.5 -75q0 -55 -52 -83q68 -24 68 -94q0 -52 -40 -86t-101 -34q-62 0 -101.5 35.5t-39.5 92.5h70q1 -28 20.5 -45.5t51.5 -17.5
q31 0 50.5 16t19.5 42q0 27 -20.5 42.5t-55.5 15.5h-20v57zM736 687l-507 -687h-91l507 687h91zM646 171l-65 14l27 203h220v-62h-166l-12 -91q27 28 79 28q54 0 90.5 -37t36.5 -92q0 -60 -41.5 -100.5t-103.5 -40.5q-61 0 -100 34.5t-41 89.5h70q2 -26 22 -42.5t49 -16.5
q32 0 53.5 21t21.5 52t-21.5 51.5t-54.5 20.5q-40 0 -64 -32z" />
    <glyph glyph-name="uni2158" unicode="&#x2158;" horiz-adv-x="905" 
d="M281 687v-242h49v-62h-49v-84h-69v84h-192v52l177 252h84zM212 604l-112 -159h112v159zM760 687l-507 -687h-91l507 687h91zM670 171l-65 14l27 203h220v-62h-166l-12 -91q27 28 79 28q54 0 90.5 -37t36.5 -92q0 -60 -41.5 -100.5t-103.5 -40.5q-61 0 -100 34.5t-41 89.5
h70q2 -26 22 -42.5t49 -16.5q32 0 53.5 21t21.5 52t-21.5 51.5t-54.5 20.5q-40 0 -64 -32z" />
    <glyph glyph-name="uni2159" unicode="&#x2159;" horiz-adv-x="751" 
d="M644 687l-507 -687h-91l507 687h91zM722 133q0 -59 -42 -99.5t-105 -40.5t-104.5 40.5t-41.5 101.5q0 53 41 114l91 139h82l-92 -132q18 8 39 8q56 0 94 -37t38 -94zM652 131q0 32 -22 53t-55 21q-32 0 -54.5 -21t-22.5 -52t22.5 -52.5t54.5 -21.5t54.5 21t22.5 52z
M166 299h-71v321h-68v67h139v-388z" />
    <glyph glyph-name="uni215A" unicode="&#x215a;" horiz-adv-x="845" 
d="M108 470l-65 14l27 203h220v-62h-166l-12 -91q27 28 79 28q54 0 90.5 -37t36.5 -92q0 -60 -41.5 -100.5t-103.5 -40.5q-61 0 -100 34.5t-41 89.5h70q2 -26 22 -42.5t49 -16.5q32 0 53.5 21t21.5 52t-21.5 51.5t-54.5 20.5q-40 0 -64 -32zM738 687l-507 -687h-91l507 687
h91zM816 133q0 -59 -42 -99.5t-105 -40.5t-104.5 40.5t-41.5 101.5q0 53 41 114l91 139h82l-92 -132q18 8 39 8q56 0 94 -37t38 -94zM746 131q0 32 -22 53t-55 21q-32 0 -54.5 -21t-22.5 -52t22.5 -52.5t54.5 -21.5t54.5 21t22.5 52z" />
    <glyph glyph-name="uni215B" unicode="&#x215b;" horiz-adv-x="779" 
d="M644 687l-507 -687h-91l507 687h91zM607 -7q-60 0 -100.5 34t-40.5 85q0 33 18.5 59t50.5 38q-53 25 -53 80q0 45 36 75.5t89 30.5q54 0 90 -30.5t36 -75.5q0 -55 -53 -80q32 -12 50.5 -38t18.5 -59q0 -51 -40.5 -85t-101.5 -34zM607 55q31 0 51.5 17.5t20.5 43.5
t-20.5 43.5t-51.5 17.5t-51 -17.5t-20 -43.5t20 -43.5t51 -17.5zM607 234q26 0 43 14t17 36t-17 36.5t-43 14.5q-25 0 -42 -14.5t-17 -36.5t16.5 -36t42.5 -14zM166 299h-71v321h-68v67h139v-388z" />
    <glyph glyph-name="uni215C" unicode="&#x215c;" horiz-adv-x="871" 
d="M148 530h20q25 0 43 15t18 36t-16.5 35.5t-41.5 14.5q-27 0 -44.5 -16.5t-17.5 -40.5h-68q0 53 37 86.5t94 33.5q55 0 90.5 -30t35.5 -75q0 -55 -52 -83q68 -24 68 -94q0 -52 -40 -86t-101 -34q-62 0 -101.5 35.5t-39.5 92.5h70q1 -28 20.5 -45.5t51.5 -17.5
q31 0 50.5 16t19.5 42q0 27 -20.5 42.5t-55.5 15.5h-20v57zM736 687l-507 -687h-91l507 687h91zM699 -7q-60 0 -100.5 34t-40.5 85q0 33 18.5 59t50.5 38q-53 25 -53 80q0 45 36 75.5t89 30.5q54 0 90 -30.5t36 -75.5q0 -55 -53 -80q32 -12 50.5 -38t18.5 -59
q0 -51 -40.5 -85t-101.5 -34zM699 55q31 0 51.5 17.5t20.5 43.5t-20.5 43.5t-51.5 17.5t-51 -17.5t-20 -43.5t20 -43.5t51 -17.5zM699 234q26 0 43 14t17 36t-17 36.5t-43 14.5q-25 0 -42 -14.5t-17 -36.5t16.5 -36t42.5 -14z" />
    <glyph glyph-name="uni215D" unicode="&#x215d;" horiz-adv-x="873" 
d="M108 470l-65 14l27 203h220v-62h-166l-12 -91q27 28 79 28q54 0 90.5 -37t36.5 -92q0 -60 -41.5 -100.5t-103.5 -40.5q-61 0 -100 34.5t-41 89.5h70q2 -26 22 -42.5t49 -16.5q32 0 53.5 21t21.5 52t-21.5 51.5t-54.5 20.5q-40 0 -64 -32zM738 687l-507 -687h-91l507 687
h91zM701 -7q-60 0 -100.5 34t-40.5 85q0 33 18.5 59t50.5 38q-53 25 -53 80q0 45 36 75.5t89 30.5q54 0 90 -30.5t36 -75.5q0 -55 -53 -80q32 -12 50.5 -38t18.5 -59q0 -51 -40.5 -85t-101.5 -34zM701 55q31 0 51.5 17.5t20.5 43.5t-20.5 43.5t-51.5 17.5t-51 -17.5
t-20 -43.5t20 -43.5t51 -17.5zM701 234q26 0 43 14t17 36t-17 36.5t-43 14.5q-25 0 -42 -14.5t-17 -36.5t16.5 -36t42.5 -14z" />
    <glyph glyph-name="uni215E" unicode="&#x215e;" horiz-adv-x="803" 
d="M136 299h-80l163 323h-194v65h277v-52zM668 687l-507 -687h-91l507 687h91zM631 -7q-60 0 -100.5 34t-40.5 85q0 33 18.5 59t50.5 38q-53 25 -53 80q0 45 36 75.5t89 30.5q54 0 90 -30.5t36 -75.5q0 -55 -53 -80q32 -12 50.5 -38t18.5 -59q0 -51 -40.5 -85t-101.5 -34z
M631 55q31 0 51.5 17.5t20.5 43.5t-20.5 43.5t-51.5 17.5t-51 -17.5t-20 -43.5t20 -43.5t51 -17.5zM631 234q26 0 43 14t17 36t-17 36.5t-43 14.5q-25 0 -42 -14.5t-17 -36.5t16.5 -36t42.5 -14z" />
    <glyph glyph-name="uni215F" unicode="&#x215f;" horiz-adv-x="441" 
d="M166 299h-71v321h-68v67h139v-388zM644 687l-507 -687h-91l507 687h91z" />
    <glyph glyph-name="arrowleft" unicode="&#x2190;" horiz-adv-x="850" 
d="M424 94l-50 -50l-307 306l307 306l50 -50l-220 -220h566v-72h-566z" />
    <glyph glyph-name="arrowup" unicode="&#x2191;" horiz-adv-x="800" 
d="M706 412l-50 -50l-220 220v-582h-72v582l-220 -220l-50 50l306 306z" />
    <glyph glyph-name="arrowright" unicode="&#x2192;" horiz-adv-x="850" 
d="M476 44l-50 50l220 220h-566v72h566l-220 220l50 50l307 -306z" />
    <glyph glyph-name="arrowdown" unicode="&#x2193;" horiz-adv-x="800" 
d="M656 338l50 -50l-306 -306l-306 306l50 50l220 -220v582h72v-582z" />
    <glyph glyph-name="uni2196" unicode="&#x2196;" horiz-adv-x="750" 
d="M562 700v-71h-311l404 -404l-50 -51l-404 404v-311h-71v433h432z" />
    <glyph glyph-name="uni2197" unicode="&#x2197;" horiz-adv-x="750" 
d="M188 629v71h432v-433h-71v311l-404 -404l-50 51l404 404h-311z" />
    <glyph glyph-name="uni2198" unicode="&#x2198;" horiz-adv-x="750" 
d="M562 71v-71h-432v433h71v-311l404 404l50 -51l-404 -404h311z" />
    <glyph glyph-name="uni2199" unicode="&#x2199;" horiz-adv-x="750" 
d="M188 0v71h311l-404 404l50 51l404 -404v311h71v-433h-432z" />
    <glyph glyph-name="partialdiff" unicode="&#x2202;" horiz-adv-x="609" 
d="M278 -11q-96 0 -162 61.5t-66 165.5q0 103 69 171.5t170 68.5q59 0 105.5 -20t70.5 -52q-2 104 -55.5 172t-145.5 68q-78 0 -146 -36v81q69 35 154 35q120 0 201.5 -90t81.5 -258q0 -101 -28.5 -182t-92.5 -133t-156 -52zM283 70q77 0 124 61.5t54 144.5q-22 46 -66 73.5
t-96 27.5q-72 0 -116.5 -46t-44.5 -114q0 -65 41.5 -106t103.5 -41z" />
    <glyph glyph-name="increment" unicode="&#x2206;" horiz-adv-x="714" 
d="M323 700h68l288 -700h-644zM356 565l-197 -483h393z" />
    <glyph glyph-name="product" unicode="&#x220f;" horiz-adv-x="714" 
d="M90 0v693h534v-693h-89v610h-356v-610h-89z" />
    <glyph glyph-name="summation" unicode="&#x2211;" horiz-adv-x="575" 
d="M386 361v-29l-211 -251h350v-81h-475v63l238 283l-238 283v64h475v-81h-349z" />
    <glyph glyph-name="minus" unicode="&#x2212;" 
d="M74 297v73h452v-73h-452z" />
    <glyph glyph-name="radical" unicode="&#x221a;" horiz-adv-x="685" 
d="M565 694h85l-296 -694h-64l-161 388h-89v77h147l137 -339z" />
    <glyph glyph-name="infinity" unicode="&#x221e;" horiz-adv-x="788" 
d="M728 332q0 -69 -49 -116t-122 -47q-89 0 -165 94q-75 -94 -161 -94q-73 0 -122 47t-49 116t49 116t122 47q89 0 165 -94q76 94 161 94q73 0 122 -47t49 -116zM643 332q0 36 -26 61t-62 25q-24 0 -47 -15t-36.5 -30.5t-31.5 -40.5q60 -86 115 -86q36 0 62 25t26 61z
M145 332q0 -36 26 -61t62 -25q24 0 47.5 15t36.5 30t32 41q-19 26 -32.5 41.5t-36.5 30t-47 14.5q-36 0 -62 -25t-26 -61z" />
    <glyph glyph-name="integral" unicode="&#x222b;" horiz-adv-x="418" 
d="M252 -47q0 -85 -42 -129t-112 -44q-43 0 -73 12v78q25 -10 59 -10q82 0 82 92v578q0 85 42.5 129t112.5 44q44 0 72 -12v-78q-25 10 -58 10q-83 0 -83 -92v-578z" />
    <glyph glyph-name="approxequal" unicode="&#x2248;" 
d="M163 180h-77q1 57 37.5 92t89.5 35q42 0 73 -15.5t53 -31t44 -15.5q24 0 39.5 16.5t16.5 41.5h78q-1 -56 -38 -91.5t-90 -35.5q-42 0 -73 16t-53 31.5t-44 15.5q-24 0 -39.5 -17t-16.5 -42zM163 363h-77q1 57 37.5 92t89.5 35q42 0 73 -15.5t53 -31t44 -15.5
q24 0 39.5 16.5t16.5 41.5h78q-1 -56 -38 -91.5t-90 -35.5q-33 0 -60 10t-41.5 21.5t-32.5 21.5t-36 10q-24 0 -39.5 -17t-16.5 -42z" />
    <glyph glyph-name="notequal" unicode="&#x2260;" 
d="M74 395v71h249l42 90h80l-42 -90h123v-71h-155l-57 -123h212v-71h-244l-43 -93h-80l43 93h-128v71h160l57 123h-217z" />
    <glyph glyph-name="equivalence" unicode="&#x2261;" 
d="M74 104v71h452v-71h-452zM74 297v71h452v-71h-452zM74 490v71h452v-71h-452z" />
    <glyph glyph-name="lessequal" unicode="&#x2264;" 
d="M88 55v71h423v-71h-423zM88 383v84l423 178v-77l-330 -142l330 -142v-80z" />
    <glyph glyph-name="greaterequal" unicode="&#x2265;" 
d="M512 126v-71h-423v71h423zM512 467v-84l-423 -179v79l329 141l-329 141v80z" />
    <glyph glyph-name="lozenge" unicode="&#x25ca;" horiz-adv-x="566" 
d="M531 348l-218 -348h-60l-218 348l218 346h60zM436 346l-154 244l-152 -240l154 -246z" />
    <glyph glyph-name="anglebracketleft" unicode="&#x3008;" horiz-adv-x="323" 
d="M227 -165l-202 457l203 461h84l-201 -459l202 -459h-86z" />
    <glyph glyph-name="anglebracketright" unicode="&#x3009;" horiz-adv-x="323" 
d="M96 753l202 -457l-203 -461h-84l201 459l-202 459h86z" />
    <glyph glyph-name="commaaccent" unicode="&#xf6c3;" horiz-adv-x="500" 
d="M261 -218h-53l33 69h-2q-18 0 -31 13t-13 31q0 23 16 38t38 15q24 0 39.5 -14.5t15.5 -37.5q0 -21 -9 -41z" />
    <glyph glyph-name="fi" unicode="&#xfb01;" horiz-adv-x="592" 
d="M188 0h-86v409h-75v77h75v42q0 90 46 137t121 47q43 0 73 -12v-77q-25 10 -59 10q-95 0 -95 -103v-44h136v-77h-136v-409zM527 630q0 -24 -17 -41t-41 -17t-41 17t-17 41t17 41t41 17t41 -17t17 -41zM426 486h86v-486h-86v486z" />
    <glyph glyph-name="fl" unicode="&#xfb02;" horiz-adv-x="592" 
d="M188 0h-86v409h-75v77h75v42q0 90 46 137t121 47q43 0 73 -12v-77q-25 10 -59 10q-95 0 -95 -103v-44h136v-77h-136v-409zM426 700h86v-700h-86v700z" />
    <glyph glyph-name="Adieresis.square" horiz-adv-x="671" 
d="M301 700h70l288 -700h-94l-82 203h-297l-82 -203h-92zM334 575l-116 -291h233zM288 775h-85v100h85v-100zM469 775h-85v100h85v-100z" />
    <glyph glyph-name="Anocross" horiz-adv-x="668" 
d="M300 700h68l288 -700h-94l-230 566l-228 -566h-92z" />
    <glyph glyph-name="Cdotaccent.square" horiz-adv-x="661" 
d="M52 350q0 152 103.5 257t254.5 105q110 0 205 -63v-99q-101 76 -207 76q-111 0 -187.5 -80t-76.5 -196q0 -115 76.5 -195t187.5 -80q106 0 209 74v-99q-98 -61 -208 -61q-150 0 -253.5 104.5t-103.5 256.5zM453 775h-86v101h86v-101z" />
    <glyph glyph-name="Edieresis.square" horiz-adv-x="536" 
d="M90 0v700h389v-82h-300v-214h279v-81h-279v-241h302v-82h-391zM237 775h-85v100h85v-100zM418 775h-85v100h85v-100z" />
    <glyph glyph-name="Edotaccent.square" horiz-adv-x="536" 
d="M90 0v700h389v-82h-300v-214h279v-81h-279v-241h302v-82h-391zM329 775h-86v101h86v-101z" />
    <glyph glyph-name="Gcommaaccent.square" horiz-adv-x="789" 
d="M707 536l-79 -41q-32 63 -89.5 97.5t-130.5 34.5q-111 0 -188 -81t-77 -196q0 -114 77 -195t189 -81q96 0 161 59t76 152h-254v84h348v-34q0 -148 -92.5 -247t-239.5 -99q-148 0 -252 105.5t-104 255.5q0 151 104.5 256.5t252.5 105.5q97 0 176.5 -48t121.5 -128z
M365 -149v94h88v-96q0 -76 -74 -78l-12 1v44q2 -1 6 -1q13 0 21.5 7.5t8.5 20.5v8h-38z" />
    <glyph glyph-name="Gdotaccent.square" horiz-adv-x="789" 
d="M707 536l-79 -41q-32 63 -89.5 97.5t-130.5 34.5q-111 0 -188 -81t-77 -196q0 -114 77 -195t189 -81q96 0 161 59t76 152h-254v84h348v-34q0 -148 -92.5 -247t-239.5 -99q-148 0 -252 105.5t-104 255.5q0 151 104.5 256.5t252.5 105.5q97 0 176.5 -48t121.5 -128z
M452 775h-86v101h86v-101z" />
    <glyph glyph-name="Idieresis.square" horiz-adv-x="269" 
d="M90 700h89v-700h-89v700zM86 775h-85v100h85v-100zM267 775h-85v100h85v-100z" />
    <glyph glyph-name="Idotaccent.square" horiz-adv-x="269" 
d="M90 700h89v-700h-89v700zM177 775h-86v101h86v-101z" />
    <glyph glyph-name="Kcommaaccent.square" horiz-adv-x="620" 
d="M179 700v-301l293 301h112l-307 -315l331 -385h-113l-277 326l-39 -40v-286h-89v700h89zM285 -149v94h88v-96q0 -76 -74 -78l-12 1v44q2 -1 6 -1q13 0 21.5 7.5t8.5 20.5v8h-38z" />
    <glyph glyph-name="Lcommaaccent.square" horiz-adv-x="449" 
d="M90 700h89v-617h250v-83h-339v700zM214 -149v94h88v-96q0 -76 -74 -78l-12 1v44q2 -1 6 -1q13 0 21.5 7.5t8.5 20.5v8h-38z" />
    <glyph glyph-name="Ldot.square" horiz-adv-x="449" 
d="M90 700h89v-617h250v-83h-339v700zM399 298h-86v105h86v-105z" />
    <glyph glyph-name="Ncommaaccent.square" horiz-adv-x="775" 
d="M599 700h86v-700h-84l-425 565v-565h-86v700h91l418 -558v558zM339 -149v94h88v-96q0 -76 -74 -78l-12 1v44q2 -1 6 -1q13 0 21.5 7.5t8.5 20.5v8h-38z" />
    <glyph glyph-name="Odieresis.square" horiz-adv-x="822" 
d="M770 350q0 -149 -105.5 -255t-253.5 -106t-253.5 106t-105.5 255q0 150 105.5 256t253.5 106t253.5 -106t105.5 -256zM679 350q0 114 -78.5 195.5t-189.5 81.5t-189.5 -81.5t-78.5 -195.5t78.5 -195t189.5 -81t189.5 81t78.5 195zM363 775h-85v100h85v-100zM544 775h-85
v100h85v-100z" />
    <glyph glyph-name="Rcommaaccent.square" horiz-adv-x="588" 
d="M179 297v-297h-89v700h205q101 0 163 -53.5t62 -148.5q0 -79 -47.5 -131t-126.5 -66l220 -301h-105l-214 297h-68zM179 618v-242h115q61 0 98.5 32.5t37.5 89.5t-37 88.5t-99 31.5h-115zM274 -149v94h88v-96q0 -76 -74 -78l-12 1v44q2 -1 6 -1q13 0 21.5 7.5t8.5 20.5v8
h-38z" />
    <glyph glyph-name="Scommaaccent.square" horiz-adv-x="542" 
d="M37 168l83 30q20 -57 61 -91t99 -34q55 0 93 31t38 84q0 79 -104 118l-82 31q-160 60 -160 188q0 84 58.5 135.5t146.5 51.5q74 0 130 -41.5t82 -115.5l-81 -34q-39 107 -132 107q-49 0 -81.5 -27t-32.5 -71q0 -71 106 -111l81 -31q160 -61 160 -194q0 -93 -64.5 -149
t-160.5 -56q-88 0 -151 47.5t-89 131.5zM233 -149v94h88v-96q0 -76 -74 -78l-12 1v44q2 -1 6 -1q13 0 21.5 7.5t8.5 20.5v8h-38z" />
    <glyph glyph-name="Tcommaaccent.square" horiz-adv-x="538" 
d="M20 618v82h498v-82h-204v-618h-90v618h-204zM225 -149v94h88v-96q0 -76 -74 -78l-12 1v44q2 -1 6 -1q13 0 21.5 7.5t8.5 20.5v8h-38z" />
    <glyph glyph-name="Udieresis.square" horiz-adv-x="695" 
d="M348 -11q-127 0 -197.5 79t-70.5 211v421h89v-420q0 -95 46.5 -151t132.5 -56q85 0 131.5 56.5t46.5 150.5v420h89v-421q0 -133 -70 -211.5t-197 -78.5zM299 775h-85v100h85v-100zM480 775h-85v100h85v-100z" />
    <glyph glyph-name="Wdieresis.square" horiz-adv-x="986" 
d="M308 0h-57l-237 700h92l176 -534l184 534h55l184 -534l177 534h90l-238 -700h-57l-185 533zM445 775h-85v100h85v-100zM626 775h-85v100h85v-100z" />
    <glyph glyph-name="Ydieresis.square" horiz-adv-x="624" 
d="M268 312l-256 388h104l197 -306l197 306h102l-255 -388v-312h-89v312zM264 775h-85v100h85v-100zM445 775h-85v100h85v-100z" />
    <glyph glyph-name="Zdotaccent.square" horiz-adv-x="607" 
d="M569 646l-412 -565h415v-81h-537v54l411 565h-385v81h508v-54zM368 775h-86v101h86v-101z" />
    <glyph glyph-name="a.alt" horiz-adv-x="522" 
d="M52 128q0 65 42.5 105t125.5 51l145 18v25q0 44 -27.5 69t-74.5 25q-87 0 -113 -86l-81 23q18 64 70 101.5t123 37.5q88 0 137.5 -47t49.5 -129v-321h-81v64q-58 -75 -163 -75q-67 0 -110 39.5t-43 99.5zM139 133q0 -31 23 -49.5t59 -18.5q63 0 104 36.5t41 92.5v35
l-132 -17q-45 -6 -70 -27t-25 -52z" />
    <glyph glyph-name="t.alt" horiz-adv-x="308" 
d="M193 0h-86v409h-87v77h87v146h86v-146h100v-77h-100v-409z" />
    <glyph glyph-name="u.alt" horiz-adv-x="562" 
d="M281 -11q-97 0 -152.5 59.5t-55.5 164.5v273h86v-268q0 -69 32.5 -108.5t89.5 -39.5t89.5 39.5t32.5 108.5v268h86v-273q0 -105 -55.5 -164.5t-152.5 -59.5z" />
    <glyph glyph-name="adieresis.square" horiz-adv-x="626" 
d="M461 486h85v-486h-85v78q-26 -41 -72.5 -65t-99.5 -24q-104 0 -174 73t-70 181q0 107 70.5 180.5t173.5 73.5q54 0 99.5 -22.5t72.5 -62.5v74zM466 243q0 74 -48 124.5t-119 50.5t-119 -50.5t-48 -124.5t48 -124.5t119 -50.5t119 50.5t48 124.5zM254 580h-85v100h85v-100
zM435 580h-85v100h85v-100z" />
    <glyph glyph-name="cdotaccent.square" horiz-adv-x="482" 
d="M45 243q0 108 71.5 181t182.5 73q76 0 138 -42v-87q-64 49 -134 49q-74 0 -122.5 -50t-48.5 -124q0 -73 48.5 -123.5t122.5 -50.5q62 0 137 48v-87q-66 -41 -140 -41q-113 0 -184 72.5t-71 181.5zM343 577h-86v105h86v-105z" />
    <glyph glyph-name="edieresis.square" horiz-adv-x="563" 
d="M293 -11q-108 0 -178 71.5t-70 182.5q0 109 69 181.5t173 72.5q102 0 169 -72.5t67 -177.5l-1 -31h-391q4 -64 51.5 -107t111.5 -43q51 0 83 21t58 62l70 -36q-31 -57 -86 -90.5t-126 -33.5zM133 287h303q-7 58 -49.5 96.5t-101.5 38.5q-57 0 -101.5 -41.5t-50.5 -93.5z
M239 580h-85v100h85v-100zM420 580h-85v100h85v-100z" />
    <glyph glyph-name="edotaccent.square" horiz-adv-x="563" 
d="M293 -11q-108 0 -178 71.5t-70 182.5q0 109 69 181.5t173 72.5q102 0 169 -72.5t67 -177.5l-1 -31h-391q4 -64 51.5 -107t111.5 -43q51 0 83 21t58 62l70 -36q-31 -57 -86 -90.5t-126 -33.5zM133 287h303q-7 58 -49.5 96.5t-101.5 38.5q-57 0 -101.5 -41.5t-50.5 -93.5z
M330 577h-86v105h86v-105z" />
    <glyph glyph-name="gcommaaccent.square" horiz-adv-x="615" 
d="M450 93q-26 -40 -71.5 -64t-96.5 -24q-100 0 -168.5 70.5t-68.5 174.5t68.5 175.5t168.5 71.5q52 0 97 -22.5t71 -61.5v73h85v-458q0 -113 -65.5 -180.5t-175.5 -67.5q-76 0 -135 32.5t-93 93.5l68 48q53 -96 160 -96q71 0 113.5 45.5t42.5 122.5v67zM455 250
q0 71 -46.5 119.5t-115.5 48.5t-115 -48.5t-46 -119.5t46 -119.5t115 -48.5t115.5 48.5t46.5 119.5zM336 662v-94h-88v96q0 76 74 78h6.5h3.5l2 -1v-44l-2 1h-5q-13 0 -21.5 -7.5t-8.5 -20.5v-8h39z" />
    <glyph glyph-name="gdotaccent.square" horiz-adv-x="615" 
d="M450 93q-26 -40 -71.5 -64t-96.5 -24q-100 0 -168.5 70.5t-68.5 174.5t68.5 175.5t168.5 71.5q52 0 97 -22.5t71 -61.5v73h85v-458q0 -113 -65.5 -180.5t-175.5 -67.5q-76 0 -135 32.5t-93 93.5l68 48q53 -96 160 -96q71 0 113.5 45.5t42.5 122.5v67zM455 250
q0 71 -46.5 119.5t-115.5 48.5t-115 -48.5t-46 -119.5t46 -119.5t115 -48.5t115.5 48.5t46.5 119.5zM340 577h-86v105h86v-105z" />
    <glyph glyph-name="idieresis.square" horiz-adv-x="246" 
d="M80 486h86v-486h-86v486zM75 580h-85v100h85v-100zM256 580h-85v100h85v-100z" />
    <glyph glyph-name="idotaccent" horiz-adv-x="246" 
d="M181 630q0 -24 -17 -41t-41 -17t-41 17t-17 41t17 41t41 17t41 -17t17 -41zM80 486h86v-486h-86v486z" />
    <glyph glyph-name="idotaccent.square" horiz-adv-x="246" 
d="M166 577h-86v105h86v-105zM80 486h86v-486h-86v486z" />
    <glyph glyph-name="iogonek.square" horiz-adv-x="246" 
d="M80 486h86v-486q-88 -45 -88 -98q0 -21 11 -33t29 -12q32 0 52 16v-61q-30 -16 -69 -16q-44 0 -69 25t-25 67q0 64 73 112v486zM166 577h-86v105h86v-105z" />
    <glyph glyph-name="kcommaaccent.square" horiz-adv-x="508" 
d="M165 700v-407l204 193h110l-221 -207l240 -279h-109l-191 226l-33 -31v-195h-85v700h85zM230 -149v94h88v-96q0 -76 -74 -78l-12 1v44q2 -1 6 -1q13 0 21.5 7.5t8.5 20.5v8h-38z" />
    <glyph glyph-name="lcommaaccent.square" horiz-adv-x="246" 
d="M80 700h86v-700h-86v700zM79 -149v94h88v-96q0 -76 -74 -78l-12 1v44q2 -1 6 -1q13 0 21.5 7.5t8.5 20.5v8h-38z" />
    <glyph glyph-name="ldot.square" horiz-adv-x="322" 
d="M80 700h86v-700h-86v700zM327 276h-86v105h86v-105z" />
    <glyph glyph-name="ncommaaccent.square" horiz-adv-x="590" 
d="M166 254v-254h-86v486h86v-70q51 81 155 81q92 0 144 -57t52 -155v-285h-86v275q0 66 -33.5 104t-94.5 38q-62 0 -99.5 -44.5t-37.5 -118.5zM255 -149v94h88v-96q0 -76 -74 -78l-12 1v44q2 -1 6 -1q13 0 21.5 7.5t8.5 20.5v8h-38z" />
    <glyph glyph-name="odieresis.square" horiz-adv-x="598" 
d="M299 497q109 0 181.5 -73.5t72.5 -180.5t-72.5 -180.5t-181.5 -73.5t-181.5 73.5t-72.5 180.5t72.5 180.5t181.5 73.5zM299 418q-71 0 -119 -51t-48 -124t48 -124t119 -51t119 51t48 124t-48 124t-119 51zM251 580h-85v100h85v-100zM432 580h-85v100h85v-100z" />
    <glyph glyph-name="rcommaaccent.square" horiz-adv-x="360" 
d="M334 492v-86q-9 2 -24 2q-67 0 -106 -48.5t-39 -128.5v-231h-85v486h84v-86q16 42 58.5 68t90.5 26zM81 -149v94h88v-96q0 -76 -74 -78l-12 1v44q2 -1 6 -1q13 0 21.5 7.5t8.5 20.5v8h-38z" />
    <glyph glyph-name="scommaaccent.square" horiz-adv-x="420" 
d="M170 -149v94h88v-96q0 -76 -74 -78l-12 1v44q2 -1 6 -1q13 0 21.5 7.5t8.5 20.5v8h-38zM34 121l76 29q11 -39 40.5 -62.5t67.5 -23.5q33 0 57 18.5t24 49.5q0 47 -69 70l-54 18q-125 42 -125 138q0 61 45 100t113 39q59 0 102.5 -31.5t63.5 -86.5l-75 -30q-27 74 -93 74
q-30 0 -50.5 -16.5t-20.5 -42.5q0 -43 71 -68l50 -17q127 -43 127 -142q0 -64 -48 -106t-120 -42q-67 0 -116 36t-66 96z" />
    <glyph glyph-name="tcommaaccent.square" horiz-adv-x="355" 
d="M99 632h86v-146h136v-77h-136v-257q0 -43 19.5 -63t61.5 -20q32 0 55 15v-80q-28 -15 -75 -15q-69 0 -108 40t-39 111v269h-75v77h75v146zM156 -149v94h88v-96q0 -76 -74 -78l-12 1v44q2 -1 6 -1q13 0 21.5 7.5t8.5 20.5v8h-38z" />
    <glyph glyph-name="udieresis.square" horiz-adv-x="587" 
d="M421 232v254h86v-486h-86v70q-51 -81 -154 -81q-91 0 -142.5 57t-51.5 155v285h86v-275q0 -66 32.5 -104t93.5 -38q62 0 99 44.5t37 118.5zM242 580h-85v100h85v-100zM423 580h-85v100h85v-100z" />
    <glyph glyph-name="wdieresis.square" horiz-adv-x="794" 
d="M591 0h-66l-128 360l-128 -360h-66l-181 486h89l127 -364l129 364h62l129 -364l127 364h87zM351 580h-85v100h85v-100zM532 580h-85v100h85v-100z" />
    <glyph glyph-name="ydieresis.square" horiz-adv-x="513" 
d="M495 486l-234 -560q-33 -79 -69.5 -112.5t-90.5 -33.5q-30 0 -53 10v76q22 -8 46 -8q29 0 48.5 19t39.5 66l29 70l-193 473h92l146 -375l150 375h89zM208 580h-85v100h85v-100zM389 580h-85v100h85v-100z" />
    <glyph glyph-name="ij.square" horiz-adv-x="495" 
d="M166 577h-86v105h86v-105zM80 486h86v-486h-86v486zM329 -44v530h86v-530q0 -87 -40.5 -131.5t-110.5 -44.5q-31 0 -57 12v78q17 -10 49 -10q34 0 53.5 24.5t19.5 71.5zM415 577h-86v105h86v-105z" />
    <glyph glyph-name="zdotaccent.square" horiz-adv-x="450" 
d="M44 411v75h376v-51l-281 -360h285v-75h-398v53l279 358h-261zM286 577h-86v105h86v-105z" />
    <glyph glyph-name="i.square" horiz-adv-x="246" 
d="M166 577h-86v105h86v-105zM80 486h86v-486h-86v486z" />
    <glyph glyph-name="j.square" horiz-adv-x="249" 
d="M83 -44v530h86v-530q0 -87 -40.5 -131.5t-110.5 -44.5q-31 0 -57 12v78q18 -10 49 -10q34 0 53.5 24.5t19.5 71.5zM169 577h-86v105h86v-105z" />
    <glyph glyph-name="aring.alt" horiz-adv-x="522" 
d="M52 128q0 65 42.5 105t125.5 51l145 18v25q0 44 -27.5 69t-74.5 25q-87 0 -113 -86l-81 23q18 64 70 101.5t123 37.5q88 0 137.5 -47t49.5 -129v-321h-81v64q-58 -75 -163 -75q-67 0 -110 39.5t-43 99.5zM139 133q0 -31 23 -49.5t59 -18.5q63 0 104 36.5t41 92.5v35
l-132 -17q-45 -6 -70 -27t-25 -52zM363 650q0 -41 -28.5 -68.5t-70.5 -27.5t-70.5 27.5t-28.5 68.5q0 40 29 67.5t70 27.5t70 -27.5t29 -67.5zM306 650q0 17 -12.5 29.5t-29.5 12.5t-29.5 -12.5t-12.5 -29.5q0 -18 12.5 -30.5t29.5 -12.5t29.5 12.5t12.5 30.5z" />
    <glyph glyph-name="aacute.alt" horiz-adv-x="522" 
d="M52 128q0 65 42.5 105t125.5 51l145 18v25q0 44 -27.5 69t-74.5 25q-87 0 -113 -86l-81 23q18 64 70 101.5t123 37.5q88 0 137.5 -47t49.5 -129v-321h-81v64q-58 -75 -163 -75q-67 0 -110 39.5t-43 99.5zM139 133q0 -31 23 -49.5t59 -18.5q63 0 104 36.5t41 92.5v35
l-132 -17q-45 -6 -70 -27t-25 -52zM299 577h-84l93 139h102z" />
    <glyph glyph-name="abreve.alt" horiz-adv-x="522" 
d="M262 637q28 0 46.5 20t20.5 53h67q0 -59 -37.5 -96t-96.5 -37t-96.5 37t-37.5 96h67q2 -33 20.5 -53t46.5 -20zM52 128q0 65 42.5 105t125.5 51l145 18v25q0 44 -27.5 69t-74.5 25q-87 0 -113 -86l-81 23q18 64 70 101.5t123 37.5q88 0 137.5 -47t49.5 -129v-321h-81v64
q-58 -75 -163 -75q-67 0 -110 39.5t-43 99.5zM139 133q0 -31 23 -49.5t59 -18.5q63 0 104 36.5t41 92.5v35l-132 -17q-45 -6 -70 -27t-25 -52z" />
    <glyph glyph-name="acircumflex.alt" horiz-adv-x="522" 
d="M206 577h-87l111 139h68l111 -139h-89l-57 72zM52 128q0 65 42.5 105t125.5 51l145 18v25q0 44 -27.5 69t-74.5 25q-87 0 -113 -86l-81 23q18 64 70 101.5t123 37.5q88 0 137.5 -47t49.5 -129v-321h-81v64q-58 -75 -163 -75q-67 0 -110 39.5t-43 99.5zM139 133
q0 -31 23 -49.5t59 -18.5q63 0 104 36.5t41 92.5v35l-132 -17q-45 -6 -70 -27t-25 -52z" />
    <glyph glyph-name="adieresis.alt" horiz-adv-x="522" 
d="M224 628q0 -22 -15.5 -37.5t-37.5 -15.5q-21 0 -36.5 15.5t-15.5 37.5q0 21 15.5 36.5t36.5 15.5q22 0 37.5 -15.5t15.5 -36.5zM405 628q0 -22 -15.5 -37.5t-37.5 -15.5q-21 0 -36.5 15.5t-15.5 37.5q0 21 15.5 36.5t36.5 15.5q22 0 37.5 -15.5t15.5 -36.5zM52 128
q0 65 42.5 105t125.5 51l145 18v25q0 44 -27.5 69t-74.5 25q-87 0 -113 -86l-81 23q18 64 70 101.5t123 37.5q88 0 137.5 -47t49.5 -129v-321h-81v64q-58 -75 -163 -75q-67 0 -110 39.5t-43 99.5zM139 133q0 -31 23 -49.5t59 -18.5q63 0 104 36.5t41 92.5v35l-132 -17
q-45 -6 -70 -27t-25 -52z" />
    <glyph glyph-name="adieresisalt.square" horiz-adv-x="522" 
d="M214 580h-85v100h85v-100zM395 580h-85v100h85v-100zM52 128q0 65 42.5 105t125.5 51l145 18v25q0 44 -27.5 69t-74.5 25q-87 0 -113 -86l-81 23q18 64 70 101.5t123 37.5q88 0 137.5 -47t49.5 -129v-321h-81v64q-58 -75 -163 -75q-67 0 -110 39.5t-43 99.5zM139 133
q0 -31 23 -49.5t59 -18.5q63 0 104 36.5t41 92.5v35l-132 -17q-45 -6 -70 -27t-25 -52z" />
    <glyph glyph-name="agrave.alt" horiz-adv-x="522" 
d="M321 577h-83l-112 139h103zM52 128q0 65 42.5 105t125.5 51l145 18v25q0 44 -27.5 69t-74.5 25q-87 0 -113 -86l-81 23q18 64 70 101.5t123 37.5q88 0 137.5 -47t49.5 -129v-321h-81v64q-58 -75 -163 -75q-67 0 -110 39.5t-43 99.5zM139 133q0 -31 23 -49.5t59 -18.5
q63 0 104 36.5t41 92.5v35l-132 -17q-45 -6 -70 -27t-25 -52z" />
    <glyph glyph-name="amacron.alt" horiz-adv-x="522" 
d="M397 598h-268v58h268v-58zM52 128q0 65 42.5 105t125.5 51l145 18v25q0 44 -27.5 69t-74.5 25q-87 0 -113 -86l-81 23q18 64 70 101.5t123 37.5q88 0 137.5 -47t49.5 -129v-321h-81v64q-58 -75 -163 -75q-67 0 -110 39.5t-43 99.5zM139 133q0 -31 23 -49.5t59 -18.5
q63 0 104 36.5t41 92.5v35l-132 -17q-45 -6 -70 -27t-25 -52z" />
    <glyph glyph-name="aogonek.alt" horiz-adv-x="522" 
d="M52 128q0 65 42.5 105t125.5 51l145 18v25q0 44 -27.5 69t-74.5 25q-87 0 -113 -86l-81 23q18 64 70 101.5t123 37.5q88 0 137.5 -47t49.5 -129v-321q-47 -21 -77 -48t-30 -56q0 -38 44 -38q30 0 50 16v-62q-30 -16 -68 -16q-45 0 -71.5 23t-26.5 62q0 72 98 119v64
q-58 -75 -163 -75q-67 0 -110 39.5t-43 99.5zM139 133q0 -31 23 -49.5t59 -18.5q63 0 104 36.5t41 92.5v35l-132 -17q-45 -6 -70 -27t-25 -52z" />
    <glyph glyph-name="atilde.alt" horiz-adv-x="522" 
d="M105 588q0 52 25 77.5t66 25.5q37 0 76.5 -24.5t55.5 -24.5q37 0 37 46h59q0 -52 -25 -77.5t-66 -25.5q-37 0 -76.5 24.5t-55.5 24.5q-37 0 -37 -46h-59zM52 128q0 65 42.5 105t125.5 51l145 18v25q0 44 -27.5 69t-74.5 25q-87 0 -113 -86l-81 23q18 64 70 101.5
t123 37.5q88 0 137.5 -47t49.5 -129v-321h-81v64q-58 -75 -163 -75q-67 0 -110 39.5t-43 99.5zM139 133q0 -31 23 -49.5t59 -18.5q63 0 104 36.5t41 92.5v35l-132 -17q-45 -6 -70 -27t-25 -52z" />
    <glyph glyph-name="tbar.alt" horiz-adv-x="308" 
d="M193 0h-86v230h-84v75h84v104h-87v77h87v146h86v-146h100v-77h-100v-104h103v-75h-103v-230z" />
    <glyph glyph-name="tcaron.alt" horiz-adv-x="308" 
d="M329 548h-74l28 163h88zM193 0h-86v409h-87v77h87v146h86v-146h100v-77h-100v-409z" />
    <glyph glyph-name="tcommaaccent.alt" horiz-adv-x="308" 
d="M163 -218h-53l33 69h-2q-18 0 -31 13t-13 31q0 23 16 38t38 15q24 0 39.5 -14.5t15.5 -37.5q0 -21 -9 -41zM193 0h-86v409h-87v77h87v146h86v-146h100v-77h-100v-409z" />
    <glyph glyph-name="tcommaaccentalt.square" horiz-adv-x="308" 
d="M106 -149v94h88v-96q0 -76 -74 -78l-12 1v44q2 -1 6 -1q13 0 21.5 7.5t8.5 20.5v8h-38zM193 0h-86v409h-87v77h87v146h86v-146h100v-77h-100v-409z" />
    <glyph glyph-name="uacute.alt" horiz-adv-x="562" 
d="M310 577h-84l93 139h102zM281 -11q-97 0 -152.5 59.5t-55.5 164.5v273h86v-268q0 -69 32.5 -108.5t89.5 -39.5t89.5 39.5t32.5 108.5v268h86v-273q0 -105 -55.5 -164.5t-152.5 -59.5z" />
    <glyph glyph-name="ubreve.alt" horiz-adv-x="562" 
d="M281 637q28 0 46.5 20t20.5 53h67q0 -59 -37.5 -96t-96.5 -37t-96.5 37t-37.5 96h67q2 -33 20.5 -53t46.5 -20zM281 -11q-97 0 -152.5 59.5t-55.5 164.5v273h86v-268q0 -69 32.5 -108.5t89.5 -39.5t89.5 39.5t32.5 108.5v268h86v-273q0 -105 -55.5 -164.5t-152.5 -59.5z
" />
    <glyph glyph-name="ucircumflex.alt" horiz-adv-x="562" 
d="M223 577h-87l111 139h68l111 -139h-89l-57 72zM281 -11q-97 0 -152.5 59.5t-55.5 164.5v273h86v-268q0 -69 32.5 -108.5t89.5 -39.5t89.5 39.5t32.5 108.5v268h86v-273q0 -105 -55.5 -164.5t-152.5 -59.5z" />
    <glyph glyph-name="udieresis.alt" horiz-adv-x="562" 
d="M243 628q0 -22 -15.5 -37.5t-37.5 -15.5q-21 0 -36.5 15.5t-15.5 37.5q0 21 15.5 36.5t36.5 15.5q22 0 37.5 -15.5t15.5 -36.5zM424 628q0 -22 -15.5 -37.5t-37.5 -15.5q-21 0 -36.5 15.5t-15.5 37.5q0 21 15.5 36.5t36.5 15.5q22 0 37.5 -15.5t15.5 -36.5zM281 -11
q-97 0 -152.5 59.5t-55.5 164.5v273h86v-268q0 -69 32.5 -108.5t89.5 -39.5t89.5 39.5t32.5 108.5v268h86v-273q0 -105 -55.5 -164.5t-152.5 -59.5z" />
    <glyph glyph-name="udieresisalt.square" horiz-adv-x="562" 
d="M233 580h-85v100h85v-100zM414 580h-85v100h85v-100zM281 -11q-97 0 -152.5 59.5t-55.5 164.5v273h86v-268q0 -69 32.5 -108.5t89.5 -39.5t89.5 39.5t32.5 108.5v268h86v-273q0 -105 -55.5 -164.5t-152.5 -59.5z" />
    <glyph glyph-name="ugrave.alt" horiz-adv-x="562" 
d="M334 577h-83l-112 139h103zM281 -11q-97 0 -152.5 59.5t-55.5 164.5v273h86v-268q0 -69 32.5 -108.5t89.5 -39.5t89.5 39.5t32.5 108.5v268h86v-273q0 -105 -55.5 -164.5t-152.5 -59.5z" />
    <glyph glyph-name="uhungarumlaut.alt" horiz-adv-x="562" 
d="M230 572h-76l85 139h93zM391 572h-76l85 139h92zM281 -11q-97 0 -152.5 59.5t-55.5 164.5v273h86v-268q0 -69 32.5 -108.5t89.5 -39.5t89.5 39.5t32.5 108.5v268h86v-273q0 -105 -55.5 -164.5t-152.5 -59.5z" />
    <glyph glyph-name="umacron.alt" horiz-adv-x="562" 
d="M281 -11q-97 0 -152.5 59.5t-55.5 164.5v273h86v-268q0 -69 32.5 -108.5t89.5 -39.5t89.5 39.5t32.5 108.5v268h86v-273q0 -105 -55.5 -164.5t-152.5 -59.5zM415 598h-268v58h268v-58z" />
    <glyph glyph-name="uogonek.alt" horiz-adv-x="562" 
d="M213 -118q0 57 58 107q-92 4 -145 63t-53 161v273h86v-268q0 -69 32.5 -108.5t89.5 -39.5t89.5 39.5t32.5 108.5v268h86v-273q0 -150 -114 -207q-41 -21 -65.5 -50.5t-24.5 -59.5q0 -38 44 -38q29 0 49 16v-62q-30 -16 -68 -16q-45 0 -71 23.5t-26 62.5z" />
    <glyph glyph-name="uring.alt" horiz-adv-x="562" 
d="M380 650q0 -41 -28.5 -68.5t-70.5 -27.5t-70.5 27.5t-28.5 68.5q0 40 29 67.5t70 27.5t70 -27.5t29 -67.5zM323 650q0 17 -12.5 29.5t-29.5 12.5t-29.5 -12.5t-12.5 -29.5q0 -18 12.5 -30.5t29.5 -12.5t29.5 12.5t12.5 30.5zM281 -11q-97 0 -152.5 59.5t-55.5 164.5v273
h86v-268q0 -69 32.5 -108.5t89.5 -39.5t89.5 39.5t32.5 108.5v268h86v-273q0 -105 -55.5 -164.5t-152.5 -59.5z" />
    <glyph glyph-name="utilde.alt" horiz-adv-x="562" 
d="M124 588q0 52 25 77.5t66 25.5q37 0 76.5 -24.5t55.5 -24.5q37 0 37 46h59q0 -52 -25.5 -77.5t-65.5 -25.5q-37 0 -76.5 24.5t-55.5 24.5q-37 0 -37 -46h-59zM281 -11q-97 0 -152.5 59.5t-55.5 164.5v273h86v-268q0 -69 32.5 -108.5t89.5 -39.5t89.5 39.5t32.5 108.5v268
h86v-273q0 -105 -55.5 -164.5t-152.5 -59.5z" />
    <glyph glyph-name="ordfeminine.alt" horiz-adv-x="417" 
d="M45 398q0 50 35 81.5t102 38.5l101 11v14q0 30 -21 47t-56 17q-63 0 -83 -57l-64 22q14 47 53 74t94 27q70 0 109 -35t39 -97v-242h-69v46q-48 -54 -123 -54q-52 0 -84.5 29.5t-32.5 77.5zM117 399q0 -44 59 -44q45 0 76 26.5t31 66.5v22l-89 -10q-36 -4 -56.5 -20
t-20.5 -41z" />
    <glyph glyph-name="a.superior" horiz-adv-x="492" 
d="M351 665h73v-366h-73v56q-44 -64 -129 -64q-77 0 -130 55t-53 136t53 136t130 55q83 0 129 -59v51zM353 482q0 53 -34.5 88.5t-86.5 35.5t-86.5 -35.5t-34.5 -88.5t34.5 -88.5t86.5 -35.5t86.5 35.5t34.5 88.5z" />
    <glyph glyph-name="b.superior" horiz-adv-x="492" 
d="M68 824h73v-210q46 59 129 59q77 0 130 -55t53 -136t-53 -136t-130 -55q-85 0 -129 64v-56h-73v525zM139 482q0 -53 34.5 -88.5t86.5 -35.5t86.5 35.5t34.5 88.5t-34.5 88.5t-86.5 35.5t-86.5 -35.5t-34.5 -88.5z" />
    <glyph glyph-name="c.superior" horiz-adv-x="374" 
d="M39 482q0 82 54.5 136.5t138.5 54.5q59 0 104 -30v-71q-47 35 -99 35q-54 0 -89.5 -36t-35.5 -90q0 -52 35.5 -88t89.5 -36q49 0 101 34v-71q-49 -29 -105 -29q-85 0 -139.5 54.5t-54.5 136.5z" />
    <glyph glyph-name="d.superior" horiz-adv-x="492" 
d="M351 824h73v-525h-73v56q-44 -64 -129 -64q-77 0 -130 55t-53 136t53 136t130 55q83 0 129 -59v210zM353 482q0 53 -34.5 88.5t-86.5 35.5t-86.5 -35.5t-34.5 -88.5t34.5 -88.5t86.5 -35.5t86.5 35.5t34.5 88.5z" />
    <glyph glyph-name="e.superior" horiz-adv-x="438" 
d="M224 673q77 0 128.5 -54.5t51.5 -134.5v-12v-9l-1 -3h-292q3 -46 37.5 -76.5t80.5 -30.5q65 0 104 61l58 -30q-51 -93 -163 -93q-82 0 -135.5 53.5t-53.5 137.5q0 82 53 136.5t132 54.5zM222 612q-41 0 -73 -29.5t-37 -65.5h220q-5 42 -35.5 68.5t-74.5 26.5z" />
    <glyph glyph-name="f.superior" horiz-adv-x="271" 
d="M152 695v-30h103v-64h-103v-302h-73v302h-56v64h56v29q0 68 36 104t96 36q34 0 56 -9v-64q-19 7 -44 7q-71 0 -71 -73z" />
    <glyph glyph-name="g.superior" horiz-adv-x="485" 
d="M344 364q-44 -61 -126 -61q-76 0 -127.5 53t-51.5 131q0 79 51.5 132.5t127.5 53.5q83 0 126 -64v56h73v-345q0 -85 -51.5 -135.5t-136.5 -50.5q-122 0 -175 96l57 38q39 -69 118 -69q53 0 84 33t31 88v44zM346 487q0 50 -34 84.5t-84 34.5q-51 0 -84 -34t-33 -85t33 -85
t84 -34q50 0 84 34.5t34 84.5z" />
    <glyph glyph-name="h.superior" horiz-adv-x="468" 
d="M141 491v-192h-73v525h73v-211q38 60 117 60q69 0 108 -42.5t39 -114.5v-217h-73v206q0 47 -24 74t-68 27q-45 0 -72 -31.5t-27 -83.5z" />
    <glyph glyph-name="i.superior" horiz-adv-x="210" 
d="M142 299h-74v366h74v-366zM152 772q0 -19 -13.5 -33t-33.5 -14t-33.5 14t-13.5 33t13.5 33t33.5 14t33.5 -14t13.5 -33z" />
    <glyph glyph-name="j.superior" horiz-adv-x="189" 
d="M121 665v-391q0 -69 -31.5 -104t-86.5 -35q-25 0 -47 9v64q13 -7 35 -7q56 0 56 74v390h74zM131 772q0 -19 -13.5 -33t-33.5 -14t-33.5 14t-13.5 33t13.5 33t33.5 14t33.5 -14t13.5 -33z" />
    <glyph glyph-name="k.superior" horiz-adv-x="405" 
d="M290 665h92l-166 -157l180 -209h-92l-141 168l-23 -20v-148h-72v525h72v-301z" />
    <glyph glyph-name="l.superior" horiz-adv-x="209" 
d="M68 824h73v-525h-73v525z" />
    <glyph glyph-name="m.superior" horiz-adv-x="688" 
d="M141 492v-193h-73v366h72v-50q34 58 108 58q83 0 116 -70q40 70 125 70q64 0 100 -41.5t36 -111.5v-221h-73v211q0 45 -21 70.5t-59 25.5q-40 0 -64 -29.5t-25 -79.5v-198h-73v207q0 47 -20.5 73.5t-59.5 26.5q-41 0 -65 -31t-24 -83z" />
    <glyph glyph-name="o.superior" horiz-adv-x="459" 
d="M420 482q0 -79 -55.5 -135t-134.5 -56t-135 56t-56 135t56 135t135 56t134.5 -56t55.5 -135zM348 482q0 52 -34.5 88t-83.5 36t-83.5 -36t-34.5 -88t34.5 -88t83.5 -36t83.5 36t34.5 88z" />
    <glyph glyph-name="p.superior" horiz-adv-x="492" 
d="M141 144h-73v521h73v-56q44 64 129 64q77 0 130 -55t53 -136t-53 -136t-130 -55q-83 0 -129 59v-206zM139 482q0 -53 34.5 -88.5t86.5 -35.5t86.5 35.5t34.5 88.5t-34.5 88.5t-86.5 35.5t-86.5 -35.5t-34.5 -88.5z" />
    <glyph glyph-name="q.superior" horiz-adv-x="492" 
d="M424 144h-73v206q-46 -59 -129 -59q-77 0 -130 55t-53 136t53 136t130 55q85 0 129 -64v56h73v-521zM353 482q0 53 -34.5 88.5t-86.5 35.5t-86.5 -35.5t-34.5 -88.5t34.5 -88.5t86.5 -35.5t86.5 35.5t34.5 88.5z" />
    <glyph glyph-name="r.superior" horiz-adv-x="284" 
d="M268 669v-73h-2q-3 1 -8 1.5t-10 0.5q-108 0 -108 -160v-139h-72v366h71v-64q13 31 44.5 50.5t68.5 19.5q16 0 16 -2z" />
    <glyph glyph-name="s.superior" horiz-adv-x="333" 
d="M29 388l62 27q23 -62 81 -62q25 0 42 13.5t17 33.5q0 34 -52 50l-42 13q-92 29 -92 106q0 46 34 75t87 29q91 0 128 -88l-60 -28q-22 56 -67 56q-22 0 -37 -12t-15 -29q0 -30 51 -47l39 -13q97 -33 97 -109q0 -48 -37 -80t-94 -32q-51 0 -89.5 26t-52.5 71z" />
    <glyph glyph-name="t.superior" horiz-adv-x="281" 
d="M77 774h73v-109h102v-64h-102v-182q0 -61 60 -61q25 0 42 11v-66q-22 -12 -60 -12q-54 0 -84.5 30.5t-30.5 85.5v194h-56v64h56v109z" />
    <glyph glyph-name="u.superior" horiz-adv-x="466" 
d="M325 473v192h73v-366h-73v52q-38 -60 -116 -60q-69 0 -107.5 42t-38.5 115v217h73v-206q0 -47 23.5 -74t67.5 -27t71 31.5t27 83.5z" />
    <glyph glyph-name="v.superior" horiz-adv-x="401" 
d="M170 299l-154 366h78l108 -268l107 268h76l-154 -366h-61z" />
    <glyph glyph-name="w.superior" horiz-adv-x="614" 
d="M458 299h-57l-94 262l-94 -262h-57l-137 366h75l93 -264l94 264h53l95 -264l93 264h73z" />
    <glyph glyph-name="x.superior" horiz-adv-x="394" 
d="M293 299l-97 135l-98 -135h-82l138 186l-132 180h85l91 -127l92 127h82l-131 -178l137 -188h-85z" />
    <glyph glyph-name="y.superior" horiz-adv-x="404" 
d="M84 135q-24 0 -44 9v63q16 -7 36 -7q42 0 68 61l20 47l-148 357h78l108 -275l111 275h75l-154 -363q-39 -96 -69 -131.5t-81 -35.5z" />
    <glyph glyph-name="z.superior" horiz-adv-x="353" 
d="M327 665v-44l-208 -260h211v-62h-307v45l206 258h-193v63h291z" />
    <glyph glyph-name="aalt.superior" horiz-adv-x="417" 
d="M45 398q0 50 35 81.5t102 38.5l101 11v14q0 30 -21 47t-56 17q-63 0 -83 -57l-64 22q14 47 53 74t94 27q70 0 109 -35t39 -97v-242h-69v46q-48 -54 -123 -54q-52 0 -84.5 29.5t-32.5 77.5zM117 399q0 -44 59 -44q45 0 76 26.5t31 66.5v22l-89 -10q-36 -4 -56.5 -20
t-20.5 -41z" />
    <glyph glyph-name="talt.superior" horiz-adv-x="243" 
d="M155 299h-73v302h-65v64h65v109h73v-109h75v-64h-75v-302z" />
    <glyph glyph-name="ualt.superior" horiz-adv-x="447" 
d="M224 291q-75 0 -118 44t-43 123v207h73v-203q0 -48 23.5 -75.5t64.5 -27.5t64 27.5t23 75.5v203h73v-207q0 -78 -42.5 -122.5t-117.5 -44.5z" />
    <glyph glyph-name="isquare.superior" horiz-adv-x="210" 
d="M142 730h-74v85h74v-85zM142 299h-74v366h74v-366z" />
    <glyph glyph-name="jsquare.superior" horiz-adv-x="189" 
d="M121 730h-74v85h74v-85zM47 275v390h74v-391q0 -69 -31.5 -104t-86.5 -35q-25 0 -47 9v64q13 -7 35 -7q56 0 56 74z" />
    <glyph glyph-name="caronSlovak" horiz-adv-x="500" 
d="M266 548h-74l28 163h88z" />
    <glyph glyph-name="commaaccent.square" horiz-adv-x="500" 
d="M206 -149v94h88v-96q0 -76 -74 -78l-12 1v44q2 -1 6 -1q13 0 21.5 7.5t8.5 20.5v8h-38z" />
    <glyph glyph-name="dieresis.square" horiz-adv-x="500" 
d="M202 580h-85v100h85v-100zM383 580h-85v100h85v-100z" />
    <glyph glyph-name="dotaccent.square" horiz-adv-x="500" 
d="M293 577h-86v105h86v-105z" />
    <glyph glyph-name="uni0312.square" horiz-adv-x="500" 
d="M294 662v-94h-88v96q0 76 74 78h6.5h3.5l2 -1v-44l-2 1h-5q-13 0 -21.5 -7.5t-8.5 -20.5v-8h39z" />
    <glyph glyph-name="acute.cap" horiz-adv-x="500" 
d="M235 756h-84l93 139h102z" />
    <glyph glyph-name="breve.cap" horiz-adv-x="500" 
d="M250 819q28 0 46.5 20t20.5 53h67q0 -59 -37.5 -96t-96.5 -37t-96.5 37t-37.5 96h67q2 -33 20.5 -53t46.5 -20z" />
    <glyph glyph-name="caron.cap" horiz-adv-x="500" 
d="M308 895h87l-111 -139h-68l-111 139h89l57 -72z" />
    <glyph glyph-name="circumflex.cap" horiz-adv-x="500" 
d="M192 756h-87l111 139h68l111 -139h-89l-57 72z" />
    <glyph glyph-name="dieresis.cap" horiz-adv-x="500" 
d="M212 826q0 -22 -15.5 -37.5t-37.5 -15.5q-21 0 -36.5 15.5t-15.5 37.5q0 21 15.5 36.5t36.5 15.5q22 0 37.5 -15.5t15.5 -36.5zM393 826q0 -22 -15.5 -37.5t-37.5 -15.5q-21 0 -36.5 15.5t-15.5 37.5q0 21 15.5 36.5t36.5 15.5q22 0 37.5 -15.5t15.5 -36.5z" />
    <glyph glyph-name="dieresiscap.square" horiz-adv-x="500" 
d="M202 775h-85v100h85v-100zM383 775h-85v100h85v-100z" />
    <glyph glyph-name="dotaccent.cap" horiz-adv-x="500" 
d="M306 827q0 -23 -16.5 -39.5t-39.5 -16.5t-39.5 16.5t-16.5 39.5t16.5 39.5t39.5 16.5t39.5 -16.5t16.5 -39.5z" />
    <glyph glyph-name="dotaccentcap.square" horiz-adv-x="500" 
d="M293 775h-86v101h86v-101z" />
    <glyph glyph-name="grave.cap" horiz-adv-x="500" 
d="M348 756h-83l-112 139h103z" />
    <glyph glyph-name="hungarumlaut.cap" horiz-adv-x="500" 
d="M153 756h-76l85 139h93zM314 756h-76l85 139h93z" />
    <glyph glyph-name="macron.cap" horiz-adv-x="500" 
d="M384 780h-268v58h268v-58z" />
    <glyph glyph-name="ring.cap" horiz-adv-x="500" 
d="M348 830q0 -40 -28.5 -67.5t-69.5 -27.5t-69.5 27.5t-28.5 67.5q0 41 28.5 68.5t69.5 27.5t69.5 -27.5t28.5 -68.5zM291 830q0 18 -12 30.5t-29 12.5t-29 -12.5t-12 -30.5q0 -17 12 -29.5t29 -12.5t29 12.5t12 29.5z" />
    <glyph glyph-name="tilde.cap" horiz-adv-x="500" 
d="M91 769q0 52 25 77.5t66 25.5q37 0 76.5 -24.5t55.5 -24.5q37 0 37 46h59q0 -53 -25 -78t-66 -25q-37 0 -76.5 24.5t-55.5 24.5q-37 0 -37 -46h-59z" />
    <glyph glyph-name="period.square" horiz-adv-x="253" 
d="M177 0h-101v109h101v-109z" />
    <glyph glyph-name="comma.square" horiz-adv-x="253" 
d="M76 0v109h101v-119q0 -100 -85 -102h-7h-5l-2 1v50q3 -1 8 -1q14 0 24 12t10 30v20h-44z" />
    <glyph glyph-name="colon.square" horiz-adv-x="253" 
d="M177 0h-101v109h101v-109zM177 358h-101v109h101v-109z" />
    <glyph glyph-name="semicolon.square" horiz-adv-x="253" 
d="M76 0v109h101v-119q0 -100 -85 -102h-7h-5l-2 1v50q3 -1 8 -1q14 0 24 12t10 30v20h-44zM177 358h-101v109h101v-109z" />
    <glyph glyph-name="ellipsis.square" horiz-adv-x="837" 
d="M177 0h-101v109h101v-109zM761 0h-101v109h101v-109zM469 0h-100v109h100v-109z" />
    <glyph glyph-name="exclamdown.cap" horiz-adv-x="262" 
d="M178 0h-94l8 505h78zM70 650q0 25 17.5 43t43.5 18q25 0 43 -17.5t18 -43.5q0 -25 -17.5 -42.5t-43.5 -17.5t-43.5 17.5t-17.5 42.5z" />
    <glyph glyph-name="questiondown.cap" horiz-adv-x="525" 
d="M50 185q0 92 91 174l15 13q14 12 17 15l14.5 14.5t15.5 18t10.5 17t9 20.5t2.5 20v23h89v-30q0 -74 -95 -151q-80 -65 -80 -129q0 -49 36.5 -82.5t90.5 -33.5q56 0 93.5 38.5t38.5 96.5h87q0 -95 -62.5 -157t-157.5 -62q-92 0 -153.5 56t-61.5 139zM204 645q0 25 17.5 43
t43.5 18q25 0 43 -18t18 -43t-17.5 -42.5t-43.5 -17.5t-43.5 17.5t-17.5 42.5z" />
    <glyph glyph-name="exclam.square" horiz-adv-x="261" 
d="M82 106h97v-106h-97v106zM84 700h93l-9 -503h-75z" />
    <glyph glyph-name="exclamdown.square" horiz-adv-x="261" 
d="M177 -208h-93l9 498h75zM82 485h97v-106h-97v106z" />
    <glyph glyph-name="exclamdowncap.square" horiz-adv-x="261" 
d="M82 700h97v-106h-97v106zM177 0h-93l9 505h75z" />
    <glyph glyph-name="question.square" horiz-adv-x="525" 
d="M217 106h98v-106h-98v106zM485 517q0 -92 -91 -174q-1 -1 -11.5 -10t-13.5 -11.5t-12.5 -11t-13 -13t-10.5 -12.5t-10 -14l-7 -14t-5.5 -16t-1.5 -16v-28h-86v35q0 76 93 151q80 65 80 129q0 49 -36.5 82.5t-90.5 33.5q-56 0 -93.5 -38.5t-38.5 -96.5h-87q0 95 62.5 157
t157.5 62q92 0 153.5 -56t61.5 -139z" />
    <glyph glyph-name="questiondown.square" horiz-adv-x="515" 
d="M220 485h98v-106h-98v106zM50 -25q0 92 92 174l14 13q15 12 18 15l14.5 14.5t15.5 18t10.5 17t9 20.5t2.5 20v23h87v-29q0 -76 -93 -151q-81 -66 -81 -129q0 -50 36.5 -83.5t91.5 -33.5t92.5 38.5t38.5 96.5h87q0 -94 -62 -156.5t-157 -62.5q-92 0 -154 56t-62 139z" />
    <glyph glyph-name="questiondowncap.square" horiz-adv-x="525" 
d="M220 700h98v-106h-98v106zM50 185q0 92 92 174l14 13q15 12 18 15l14.5 14.5t15.5 18t10.5 17t9 20.5t2.5 20v28h87v-35q0 -75 -93 -151q-81 -64 -81 -129q0 -49 36.5 -82.5t91.5 -33.5t92.5 38.5t38.5 96.5h87q0 -95 -62 -157t-157 -62q-92 0 -154 56t-62 139z" />
    <glyph glyph-name="reversequoteleft" horiz-adv-x="202" 
d="M156 503h-56l-49 103q-11 24 -11 48t17.5 41t42.5 17q26 0 44 -16.5t18 -41.5q0 -22 -15 -37.5t-36 -15.5h-2z" />
    <glyph glyph-name="reversequotedblleft" horiz-adv-x="363" 
d="M156 503h-56l-49 103q-11 24 -11 48t17.5 41t42.5 17q26 0 44 -16.5t18 -41.5q0 -22 -15 -37.5t-35 -15.5h-3zM318 503h-56l-49 103q-11 24 -11 48t17.5 41t42.5 17q26 0 43.5 -16.5t17.5 -41.5q0 -22 -15 -37.5t-35 -15.5h-2z" />
    <glyph glyph-name="quoteleft.square" horiz-adv-x="203" 
d="M151 600v-108h-100v118q0 99 84 101l13 -1v-50q-3 1 -7 1q-14 0 -24 -11.5t-10 -29.5v-20h44z" />
    <glyph glyph-name="quoteright.square" horiz-adv-x="202" 
d="M52 592v108h99v-118q0 -99 -84 -101l-13 1v50q3 -1 7 -1q15 0 24.5 11.5t9.5 29.5v20h-43z" />
    <glyph glyph-name="quotedblleft.square" horiz-adv-x="356" 
d="M151 600v-108h-100v118q0 99 84 101l13 -1v-50q-3 1 -7 1q-14 0 -24 -11.5t-10 -29.5v-20h44zM304 600v-108h-100v118q0 99 84 101l13 -1v-50q-3 1 -7 1q-14 0 -24 -11.5t-10 -29.5v-20h44z" />
    <glyph glyph-name="quotedblright.square" horiz-adv-x="355" 
d="M52 592v108h99v-118q0 -99 -84 -101l-13 1v50q3 -1 7 -1q15 0 24.5 11.5t9.5 29.5v20h-43zM205 592v108h99v-118q0 -99 -84 -101l-13 1v50q3 -1 7 -1q15 0 24.5 11.5t9.5 29.5v20h-43z" />
    <glyph glyph-name="quotesinglbase.square" horiz-adv-x="202" 
d="M52 0v108h99v-118q0 -99 -84 -101l-13 1v50q3 -1 7 -1q15 0 24.5 11.5t9.5 29.5v20h-43z" />
    <glyph glyph-name="quotedblbase.square" horiz-adv-x="355" 
d="M52 0v108h99v-118q0 -99 -84 -101l-13 1v50q3 -1 7 -1q15 0 24.5 11.5t9.5 29.5v20h-43zM205 0v108h99v-118q0 -99 -84 -101l-13 1v50q3 -1 7 -1q15 0 24.5 11.5t9.5 29.5v20h-43z" />
    <glyph glyph-name="reversequoteleft.square" horiz-adv-x="203" 
d="M151 700v-108h-44v-20q0 -18 10 -29.5t24 -11.5l7 1v-50q-4 -1 -13 -1q-84 2 -84 101v118h100z" />
    <glyph glyph-name="reversequotedblleft.square" horiz-adv-x="356" 
d="M151 700v-108h-44v-20q0 -18 10 -29.5t24 -11.5l7 1v-50q-4 -1 -13 -1q-84 2 -84 101v118h100zM304 700v-108h-44v-20q0 -18 10 -29.5t24 -11.5l7 1v-50q-4 -1 -13 -1q-84 2 -84 101v118h100z" />
    <glyph glyph-name="guilsinglleft.cap" horiz-adv-x="292" 
d="M172 143l-132 202l133 202h88l-132 -202l133 -202h-90z" />
    <glyph glyph-name="guilsinglright.cap" horiz-adv-x="291" 
d="M119 547l132 -202l-133 -202h-87l132 202l-133 202h89z" />
    <glyph glyph-name="guillemotleft.cap" horiz-adv-x="467" 
d="M172 143l-132 202l133 202h88l-132 -202l133 -202h-90zM347 143l-131 202l133 202h87l-132 -202l133 -202h-90z" />
    <glyph glyph-name="guillemotright.cap" horiz-adv-x="466" 
d="M295 547l131 -202l-133 -202h-87l132 202l-133 202h90zM119 547l132 -202l-133 -202h-87l132 202l-133 202h89z" />
    <glyph glyph-name="doublebar" horiz-adv-x="433" 
d="M177 -156h-82v921h82v-921zM338 -156h-82v921h82v-921z" />
    <glyph glyph-name="slash.cap" horiz-adv-x="449" 
d="M108 -24h-86l319 748h86z" />
    <glyph glyph-name="backslash.cap" horiz-adv-x="449" 
d="M427 -24h-86l-319 748h86z" />
    <glyph glyph-name="bar.cap" horiz-adv-x="272" 
d="M177 -24h-82v748h82v-748z" />
    <glyph glyph-name="doublebar.cap" horiz-adv-x="433" 
d="M177 -24h-82v748h82v-748zM338 -24h-82v748h82v-748z" />
    <glyph glyph-name="brokenbar.cap" horiz-adv-x="272" 
d="M177 431h-82v293h82v-293zM95 274h82v-298h-82v298z" />
    <glyph glyph-name="bullet.cap" horiz-adv-x="286" 
d="M55 345q0 35 26.5 61t61.5 26q36 0 62 -26t26 -61t-26 -60.5t-62 -25.5q-35 0 -61.5 26t-26.5 60z" />
    <glyph glyph-name="periodcentered.square" horiz-adv-x="252" 
d="M176 208h-101v109h101v-109z" />
    <glyph glyph-name="periodcentered.cap" horiz-adv-x="252" 
d="M187 345q0 -25 -17.5 -43t-43.5 -18t-43.5 18t-17.5 43t18 42.5t43 17.5t43 -17.5t18 -42.5z" />
    <glyph glyph-name="periodcenteredcap.square" horiz-adv-x="252" 
d="M176 290h-101v109h101v-109z" />
    <glyph glyph-name="hyphen.cap" horiz-adv-x="424" 
d="M60 306v78h304v-78h-304z" />
    <glyph glyph-name="endash.cap" horiz-adv-x="563" 
d="M60 310v72h443v-72h-443z" />
    <glyph glyph-name="emdash.cap" horiz-adv-x="863" 
d="M60 310v72h743v-72h-743z" />
    <glyph glyph-name="figuredash.cap" 
d="M60 310v72h480v-72h-480z" />
    <glyph glyph-name="parenleft.cap" horiz-adv-x="317" 
d="M55 347q0 110 40 217.5t115 188.5h87q-156 -187 -156 -406q0 -220 156 -407h-87q-75 80 -115 188t-40 219z" />
    <glyph glyph-name="parenright.cap" horiz-adv-x="317" 
d="M262 347q0 -111 -40 -219t-115 -188h-87q156 187 156 407q0 219 -156 406h87q75 -81 115 -188.5t40 -217.5z" />
    <glyph glyph-name="bracketleft.cap" horiz-adv-x="329" 
d="M80 -60v813h229v-71h-148v-671h148v-71h-229z" />
    <glyph glyph-name="bracketright.cap" horiz-adv-x="329" 
d="M249 753v-813h-229v71h148v671h-148v71h229z" />
    <glyph glyph-name="braceleft.cap" horiz-adv-x="363" 
d="M201 219l-6 -92q-8 -118 102 -118l36 2v-68q-20 -3 -44 -3q-187 0 -174 185l6 92q5 81 -86 94v71q91 11 86 94l-6 92q-13 185 174 185l44 -3v-68q-16 2 -36 2q-110 0 -102 -118l6 -92q7 -95 -81 -127q87 -31 81 -128z" />
    <glyph glyph-name="braceright.cap" horiz-adv-x="363" 
d="M162 474l6 92q8 118 -102 118l-36 -2v68q20 3 44 3q187 0 174 -185l-6 -92q-5 -81 86 -94v-71q-91 -11 -86 -94l6 -92q13 -185 -174 -185l-44 3v68q16 -2 36 -2q110 0 102 118l-6 92q-7 95 81 127q-87 31 -81 128z" />
    <glyph glyph-name="anglebracketleft.cap" horiz-adv-x="317" 
d="M206 -60l-181 405l183 408h83l-180 -406l181 -407h-86z" />
    <glyph glyph-name="anglebracketright.cap" horiz-adv-x="317" 
d="M292 345l-181 -405h-86l181 407l-180 406h83z" />
    <glyph glyph-name="at.cap" horiz-adv-x="862" 
d="M754 400q0 118 -85 195t-207 77q-141 0 -240.5 -93t-99.5 -236q0 -147 93 -233t228 -86q137 0 235 68l33 -58q-47 -35 -120 -56.5t-148 -21.5q-167 0 -282 104.5t-115 281.5q0 173 122.5 285.5t297.5 112.5q150 0 256 -96t106 -236q0 -112 -53.5 -181.5t-124.5 -69.5
q-45 -1 -68.5 20.5t-27.5 48.5q-48 -70 -143 -70q-72 0 -119 51.5t-47 131.5q0 84 55 143t132 59q100 0 136 -68l7 58h68l-29 -244q-7 -67 42 -67q38 0 68 52t30 128zM424 220q50 0 88 40.5t38 97.5q0 50 -30 84t-80 34t-86.5 -40t-36.5 -97q0 -52 30.5 -85.5t76.5 -33.5z
" />
    <glyph glyph-name="registered.superior" horiz-adv-x="477" 
d="M428 507q0 -79 -56 -136t-133 -57q-78 0 -134 57t-56 136t56 136t134 57q77 0 133 -57t56 -136zM375 507q0 59 -40 100.5t-96 41.5q-57 0 -97 -41.5t-40 -100.5t40 -100.5t97 -41.5q56 0 96 41.5t40 100.5zM175 601h67q32 0 51 -16t19 -45q0 -35 -34 -51l44 -73h-54
l-35 63h-12v-63h-46v185zM221 560v-40h20q23 0 23 20t-23 20h-20z" />
    <glyph glyph-name="numbersign.LT" 
d="M494 687l-27 -187h105v-65h-114l-25 -178h108v-65h-117l-27 -192h-74l27 192h-143l-27 -192h-74l27 192h-105v65h114l25 178h-108v65h117l27 187h74l-27 -187h143l27 187h74zM241 435l-25 -178h143l25 178h-143z" />
    <glyph glyph-name="zero.LT" 
d="M555 344q0 -162 -69.5 -258.5t-185.5 -96.5t-185.5 96.5t-69.5 258.5q0 161 69.5 257.5t185.5 96.5t185.5 -96.5t69.5 -257.5zM466 344q0 124 -44.5 197t-121.5 73t-121.5 -73t-44.5 -197q0 -125 44.5 -198t121.5 -73t121.5 73t44.5 198z" />
    <glyph glyph-name="one.LT" 
d="M81 0v80h187v523h-137v84h225v-607h183v-80h-458z" />
    <glyph glyph-name="two.LT" 
d="M299 698q96 0 159 -59t63 -150q0 -59 -29.5 -111t-95.5 -115l-194 -181h328v-82h-458v72l274 257q86 82 86 156q0 55 -38.5 92.5t-94.5 37.5q-60 0 -97.5 -44.5t-38.5 -108.5h-86q0 104 61.5 170t160.5 66z" />
    <glyph glyph-name="three.LT" 
d="M301 400q47 0 84 32.5t37 75.5q0 46 -35 77t-87 31q-55 0 -90.5 -36.5t-37.5 -93.5h-86q1 95 61.5 153.5t154.5 58.5q90 0 148.5 -52t58.5 -130q0 -49 -25 -88.5t-71 -61.5q57 -19 91 -65t34 -104q0 -91 -66.5 -149.5t-167.5 -58.5q-105 0 -169 62t-66 163h87
q5 -63 45 -102.5t103 -39.5q62 0 103.5 35t41.5 91q0 54 -42.5 89t-105.5 35h-38v78h38z" />
    <glyph glyph-name="four.LT" 
d="M39 161v67l330 458h100v-447h89v-78h-89v-161h-87v161h-343zM141 239h241v332z" />
    <glyph glyph-name="five.LT" 
d="M157 306l-78 17l49 364h368v-81h-298l-28 -203q60 58 152 58q96 0 159.5 -66.5t63.5 -162.5q0 -103 -70 -173t-173 -70q-104 0 -171.5 60.5t-68.5 154.5h89q1 -54 44 -93t106 -39q65 0 110 45.5t45 110.5q0 66 -45.5 110t-111.5 44q-44 0 -82 -21t-60 -55z" />
    <glyph glyph-name="six.LT" 
d="M551 232q0 -102 -72 -172.5t-176 -70.5q-107 0 -178 70t-71 174q0 90 77 206l164 248h106l-169 -247q36 25 87 25q99 0 165.5 -67.5t66.5 -165.5zM462 228q0 67 -46 112t-113 45q-68 0 -114 -44.5t-46 -111.5q0 -66 46 -111.5t113 -45.5t113.5 45.5t46.5 110.5z" />
    <glyph glyph-name="seven.LT" 
d="M525 619l-287 -619h-97l281 604h-342v82h445v-67z" />
    <glyph glyph-name="eight.LT" 
d="M300 698q87 0 148.5 -50.5t61.5 -130.5q0 -53 -28.5 -93t-70.5 -55q50 -18 88 -62.5t38 -111.5q0 -92 -70 -149t-167 -57t-167 57t-70 149q0 67 38 111.5t88 62.5q-42 15 -70.5 55t-28.5 93q0 80 61.5 130.5t148.5 50.5zM449 199q0 56 -43 91.5t-106 35.5t-106 -35.5
t-43 -91.5t43.5 -92t105.5 -36t105.5 36t43.5 92zM300 617q-51 0 -87.5 -29.5t-36.5 -76.5t36.5 -76.5t87.5 -29.5t87.5 29.5t36.5 76.5t-36.5 76.5t-87.5 29.5z" />
    <glyph glyph-name="nine.LT" 
d="M48 455q0 102 72 172.5t176 70.5q107 0 178 -70t71 -174q0 -90 -77 -206l-164 -248h-106l164 243q-33 -20 -82 -20q-99 0 -165.5 67.5t-66.5 164.5zM137 459q0 -67 46 -112t113 -45q68 0 114 44.5t46 111.5q0 66 -46 111.5t-113 45.5t-113.5 -45.5t-46.5 -110.5z" />
    <glyph glyph-name="Euro.LT" 
d="M437 314v-69h-242q25 -74 83 -119t131 -45q71 0 148 40v-86q-70 -34 -153 -34q-109 0 -191 67t-110 177h-87v69h76q-1 10 -1 30q0 19 1 29h-76v69h87q27 110 109.5 177.5t191.5 67.5q83 0 153 -34v-86q-77 40 -148 40q-73 0 -131 -45.5t-83 -119.5h241v-69h-256
q-1 -10 -1 -29q0 -20 1 -30h257z" />
    <glyph glyph-name="dollar.LT" 
d="M271 776h67v-92q117 -22 162 -146l-77 -32q-27 74 -85 94v-209l29 -11q152 -58 152 -184q0 -80 -51 -132.5t-130 -61.5v-98h-67v99q-72 9 -122.5 53.5t-71.5 116.5l80 26q31 -93 114 -114v240l-15 6q-151 57 -151 179q0 73 46.5 120t119.5 55v91zM433 190q0 73 -95 110
v-217q42 8 68.5 36t26.5 71zM190 514q0 -61 81 -97v187q-37 -7 -59 -31t-22 -59z" />
    <glyph glyph-name="cent.LT" 
d="M375 178q52 5 116 46v-84q-56 -36 -116 -40v-105h-65v108q-91 15 -145.5 81t-54.5 159q0 91 55.5 158t144.5 81v105h65v-102q61 -4 113 -39v-85q-55 42 -113 46v-329zM310 501q-52 -14 -83.5 -57t-31.5 -101q0 -57 31.5 -100.5t83.5 -58.5v317z" />
    <glyph glyph-name="sterling.LT" 
d="M136 371v89q0 105 55 166t156 61q93 0 151.5 -60t58.5 -146h-85q0 51 -34.5 87.5t-88.5 36.5q-61 0 -92.5 -39t-31.5 -109v-86h180v-76h-180v-124q0 -70 -33 -90h358v-81h-491v81h21q56 0 56 90v124h-77v76h77z" />
    <glyph glyph-name="florin.LT" 
d="M148 328v77h116l26 146q15 82 61.5 125t119.5 43q42 0 73 -13v-81q-30 14 -65 14q-87 0 -104 -95l-25 -139h131v-77h-144l-57 -327q-14 -82 -60.5 -125t-120.5 -43q-42 0 -73 13v81q30 -14 65 -14q87 0 104 95l56 320h-103z" />
    <glyph glyph-name="yen.LT" 
d="M77 303v69h152l-194 312h99l167 -271l166 271h98l-194 -312h152v-69h-179v-57h179v-69h-179v-177h-88v177h-179v69h179v57h-179z" />
    <glyph glyph-name="zero.OP" horiz-adv-x="635" 
d="M585 299q0 -137 -75 -223.5t-192 -86.5q-118 0 -193 86.5t-75 223.5t75.5 223t192.5 86t192 -86t75 -223zM496 299q0 101 -50 163.5t-128 62.5q-79 0 -129 -62.5t-50 -163.5t50 -164t129 -63q78 0 128 63t50 164z" />
    <glyph glyph-name="one.OP" horiz-adv-x="331" 
d="M251 0h-89v512h-124v84h213v-596z" />
    <glyph glyph-name="two.OP" horiz-adv-x="521" 
d="M266 608q90 0 149 -53t59 -135q0 -66 -35 -115.5t-132 -124.5l-127 -98h301v-82h-439v72l236 188q60 47 84 81.5t24 72.5q0 49 -34 80.5t-86 31.5q-58 0 -96 -43t-38 -108h-85q1 104 61 168.5t158 64.5z" />
    <glyph glyph-name="three.OP" horiz-adv-x="553" 
d="M279 309q47 0 84 32.5t37 75.5q0 46 -35 77t-87 31q-55 0 -90.5 -36.5t-37.5 -93.5h-86q1 95 61.5 153.5t154.5 58.5q90 0 148.5 -52t58.5 -130q0 -49 -25 -88.5t-71 -61.5q57 -19 91 -65t34 -104q0 -91 -66.5 -149.5t-167.5 -58.5q-105 0 -169 62t-66 163h87
q5 -63 45 -102.5t103 -39.5q62 0 103.5 35t41.5 91q0 54 -42.5 89t-105.5 35h-38v78h38z" />
    <glyph glyph-name="four.OP" horiz-adv-x="586" 
d="M22 43v66l340 487h100v-475h96v-78h-96v-133h-87v133h-353zM125 121h250v360z" />
    <glyph glyph-name="five.OP" horiz-adv-x="559" 
d="M137 215l-78 17l49 364h368v-81h-298l-28 -203q60 58 152 58q96 0 159.5 -66.5t63.5 -162.5q0 -103 -70 -173t-173 -70q-104 0 -171.5 60.5t-68.5 154.5h89q1 -54 44 -93t106 -39q65 0 110 45.5t45 110.5q0 66 -45.5 110t-111.5 44q-44 0 -82 -21t-60 -55z" />
    <glyph glyph-name="six.OP" horiz-adv-x="585" 
d="M544 232q0 -102 -72 -172.5t-176 -70.5q-107 0 -178 70t-71 174q0 90 77 206l164 248h106l-169 -247q36 25 87 25q99 0 165.5 -67.5t66.5 -165.5zM455 228q0 67 -46 112t-113 45q-68 0 -114 -44.5t-46 -111.5q0 -66 46 -111.5t113 -45.5t113.5 45.5t46.5 110.5z" />
    <glyph glyph-name="seven.OP" horiz-adv-x="507" 
d="M473 529l-287 -619h-97l281 604h-342v82h445v-67z" />
    <glyph glyph-name="eight.OP" horiz-adv-x="554" 
d="M277 698q87 0 148.5 -50.5t61.5 -130.5q0 -53 -28.5 -93t-70.5 -55q50 -18 88 -62.5t38 -111.5q0 -92 -70 -149t-167 -57t-167 57t-70 149q0 67 38 111.5t88 62.5q-42 15 -70.5 55t-28.5 93q0 80 61.5 130.5t148.5 50.5zM426 199q0 56 -43 91.5t-106 35.5t-106 -35.5
t-43 -91.5t43.5 -92t105.5 -36t105.5 36t43.5 92zM277 617q-51 0 -87.5 -29.5t-36.5 -76.5t36.5 -76.5t87.5 -29.5t87.5 29.5t36.5 76.5t-36.5 76.5t-87.5 29.5z" />
    <glyph glyph-name="nine.OP" horiz-adv-x="581" 
d="M40 365q0 102 72 172.5t176 70.5q107 0 178 -70t71 -174q0 -90 -77 -206l-164 -248h-106l164 243q-33 -20 -82 -20q-99 0 -165.5 67.5t-66.5 164.5zM129 369q0 -67 46 -112t113 -45q68 0 114 44.5t46 111.5q0 66 -46 111.5t-113 45.5t-113.5 -45.5t-46.5 -110.5z" />
    <glyph glyph-name="zero.OT" 
d="M555 299q0 -141 -69.5 -225.5t-185.5 -84.5t-185.5 84.5t-69.5 225.5t69.5 225t185.5 84t185.5 -84t69.5 -225zM466 299q0 105 -44.5 165t-121.5 60t-121.5 -60t-44.5 -165t44.5 -165.5t121.5 -60.5t121.5 60.5t44.5 165.5z" />
    <glyph glyph-name="one.OT" 
d="M85 0v79h183v433h-132v84h221v-517h178v-79h-450z" />
    <glyph glyph-name="two.OT" 
d="M305 608q90 0 149 -53t59 -135q0 -66 -35 -115.5t-132 -124.5l-127 -98h301v-82h-439v72l236 188q60 47 84 81.5t24 72.5q0 49 -34 80.5t-86 31.5q-58 0 -96 -43t-38 -108h-85q1 104 61 168.5t158 64.5z" />
    <glyph glyph-name="three.OT" 
d="M303 309q47 0 84 32.5t37 75.5q0 46 -35 77t-87 31q-55 0 -90.5 -36.5t-37.5 -93.5h-86q1 95 61.5 153.5t154.5 58.5q90 0 148.5 -52t58.5 -130q0 -49 -25 -88.5t-71 -61.5q57 -19 91 -65t34 -104q0 -91 -66.5 -149.5t-167.5 -58.5q-105 0 -169 62t-66 163h87
q5 -63 45 -102.5t103 -39.5q62 0 103.5 35t41.5 91q0 54 -42.5 89t-105.5 35h-38v78h38z" />
    <glyph glyph-name="four.OT" 
d="M38 43v67l329 486h101v-475h89v-78h-89v-133h-87v133h-343zM139 121h242v361z" />
    <glyph glyph-name="five.OT" 
d="M157 215l-78 17l49 364h368v-81h-298l-28 -203q60 58 152 58q96 0 159.5 -66.5t63.5 -162.5q0 -103 -70 -173t-173 -70q-104 0 -171.5 60.5t-68.5 154.5h89q1 -54 44 -93t106 -39q65 0 110 45.5t45 110.5q0 66 -45.5 110t-111.5 44q-44 0 -82 -21t-60 -55z" />
    <glyph glyph-name="six.OT" 
d="M551 232q0 -102 -72 -172.5t-176 -70.5q-107 0 -178 70t-71 174q0 90 77 206l164 248h106l-169 -247q36 25 87 25q99 0 165.5 -67.5t66.5 -165.5zM462 228q0 67 -46 112t-113 45q-68 0 -114 -44.5t-46 -111.5q0 -66 46 -111.5t113 -45.5t113.5 45.5t46.5 110.5z" />
    <glyph glyph-name="seven.OT" 
d="M519 529l-287 -619h-97l281 604h-342v82h445v-67z" />
    <glyph glyph-name="eight.OT" 
d="M300 698q87 0 148.5 -50.5t61.5 -130.5q0 -53 -28.5 -93t-70.5 -55q50 -18 88 -62.5t38 -111.5q0 -92 -70 -149t-167 -57t-167 57t-70 149q0 67 38 111.5t88 62.5q-42 15 -70.5 55t-28.5 93q0 80 61.5 130.5t148.5 50.5zM449 199q0 56 -43 91.5t-106 35.5t-106 -35.5
t-43 -91.5t43.5 -92t105.5 -36t105.5 36t43.5 92zM300 617q-51 0 -87.5 -29.5t-36.5 -76.5t36.5 -76.5t87.5 -29.5t87.5 29.5t36.5 76.5t-36.5 76.5t-87.5 29.5z" />
    <glyph glyph-name="nine.OT" 
d="M49 365q0 102 72 172.5t176 70.5q107 0 178 -70t71 -174q0 -90 -77 -206l-164 -248h-106l164 243q-33 -20 -82 -20q-99 0 -165.5 67.5t-66.5 164.5zM138 369q0 -67 46 -112t113 -45q68 0 114 44.5t46 111.5q0 66 -46 111.5t-113 45.5t-113.5 -45.5t-46.5 -110.5z" />
    <glyph glyph-name="zero.inf" horiz-adv-x="369" 
d="M334 86q0 -95 -39.5 -148t-110.5 -53q-70 0 -109.5 53t-39.5 148t39.5 148t109.5 53q71 0 110.5 -53t39.5 -148zM263 86q0 64 -20.5 99.5t-58.5 35.5q-37 0 -57.5 -35t-20.5 -100t20.5 -100t57.5 -35q38 0 58.5 35.5t20.5 99.5z" />
    <glyph glyph-name="one.inf" horiz-adv-x="229" 
d="M166 -108h-71v321h-68v67h139v-388z" />
    <glyph glyph-name="two.inf" horiz-adv-x="334" 
d="M309 -44v-64h-278v56l147 123q56 47 56 89q0 28 -17.5 45t-46.5 17t-48 -21.5t-19 -53.5h-70q0 62 38.5 101t98.5 39q59 0 97 -34.5t38 -88.5q0 -71 -88 -143l-80 -65h172z" />
    <glyph glyph-name="three.inf" horiz-adv-x="336" 
d="M148 123h20q25 0 43 15t18 36t-16.5 35.5t-41.5 14.5q-27 0 -44.5 -16.5t-17.5 -40.5h-68q0 53 37 86.5t94 33.5q55 0 90.5 -30t35.5 -75q0 -55 -52 -83q68 -24 68 -94q0 -52 -40 -86t-101 -34q-62 0 -101.5 35.5t-39.5 92.5h70q1 -28 20.5 -45.5t51.5 -17.5
q31 0 50.5 16t19.5 42q0 27 -20.5 42.5t-55.5 15.5h-20v57z" />
    <glyph glyph-name="four.inf" horiz-adv-x="345" 
d="M281 280v-242h49v-62h-49v-84h-69v84h-192v52l177 252h84zM212 197l-112 -159h112v159z" />
    <glyph glyph-name="five.inf" horiz-adv-x="343" 
d="M108 63l-65 14l27 203h220v-62h-166l-12 -91q27 28 79 28q54 0 90.5 -37t36.5 -92q0 -60 -41.5 -100.5t-103.5 -40.5q-61 0 -100 34.5t-41 89.5h70q2 -26 22 -42.5t49 -16.5q32 0 53.5 21t21.5 52t-21.5 51.5t-54.5 20.5q-40 0 -64 -32z" />
    <glyph glyph-name="six.inf" horiz-adv-x="355" 
d="M326 25q0 -59 -42 -99.5t-105 -40.5t-104.5 40.5t-41.5 101.5q0 53 41 114l91 139h82l-92 -132q18 8 39 8q56 0 94 -37t38 -94zM256 23q0 32 -22 53t-55 21q-32 0 -54.5 -21t-22.5 -52t22.5 -52.5t54.5 -21.5t54.5 21t22.5 52z" />
    <glyph glyph-name="seven.inf" horiz-adv-x="323" 
d="M136 -108h-80l163 323h-194v65h277v-52z" />
    <glyph glyph-name="eight.inf" horiz-adv-x="343" 
d="M171 -115q-60 0 -100.5 34t-40.5 85q0 33 18.5 59t50.5 38q-53 25 -53 80q0 45 36 75.5t89 30.5q54 0 90 -30.5t36 -75.5q0 -55 -53 -80q32 -12 50.5 -38t18.5 -59q0 -51 -40.5 -85t-101.5 -34zM171 -53q31 0 51.5 17.5t20.5 43.5t-20.5 43.5t-51.5 17.5t-51 -17.5
t-20 -43.5t20 -43.5t51 -17.5zM171 126q26 0 43 14t17 36t-17 36.5t-43 14.5q-25 0 -42 -14.5t-17 -36.5t16.5 -36t42.5 -14z" />
    <glyph glyph-name="nine.inf" horiz-adv-x="355" 
d="M29 147q0 59 42 99.5t104 40.5q64 0 105.5 -40.5t41.5 -101.5q0 -53 -41 -114l-92 -139h-81l92 132q-18 -8 -39 -8q-56 0 -94 37t-38 94zM99 149q0 -31 22 -52.5t54 -21.5t55 21t23 52t-23 52.5t-55 21.5t-54 -21t-22 -52z" />
    <glyph glyph-name="plus.inf" horiz-adv-x="343" 
d="M40 56v62h101v101h61v-101h101v-62h-101v-101h-61v101h-101z" />
    <glyph glyph-name="minus.inf" horiz-adv-x="343" 
d="M40 56v62h263v-62h-263z" />
    <glyph glyph-name="equal.inf" horiz-adv-x="343" 
d="M40 -4v61h263v-61h-263zM40 116v61h263v-61h-263z" />
    <glyph glyph-name="parenleft.inf" horiz-adv-x="212" 
d="M35 86q0 140 94 237h63q-90 -111 -90 -237q0 -127 90 -238h-63q-46 47 -70 110t-24 128z" />
    <glyph glyph-name="parenright.inf" horiz-adv-x="212" 
d="M177 86q0 -65 -24 -128t-70 -110h-63q90 111 90 238q0 126 -90 237h63q94 -97 94 -237z" />
    </font>
</defs>
</svg>
